<svg xmlns="http://www.w3.org/2000/svg" viewBox="0 0 1217.9 191.32"><g id="Layer_2" data-name="Layer 2"><g id="Layer_1-2" data-name="Layer 1"><polygon points="803.81 0 275.61 0 275.61 75 285.61 75 285.61 10.66 803.61 10.67 803.61 75.26 803.61 75 814.61 75 814.61 75 814.61 75 814.61 10 1114.61 10 1114.61 75 1124.61 75 1124.61 0 814.33 0 803.81 0"/><path d="M28.39,180c-9.43,0-16.34-7.87-16.34-17.64S19,144.63,28.39,144.63A16.59,16.59,0,0,1,42.17,152l9.76-6.73a28.1,28.1,0,0,0-23.54-12c-16.17,0-28.39,12.95-28.39,29,0,15.93,12.22,29,28.39,29a28.1,28.1,0,0,0,23.79-12.4L42.5,172.2A17,17,0,0,1,28.39,180Z"/><path d="M98.37,133.31a29,29,0,1,0,28.72,29A28.68,28.68,0,0,0,98.37,133.31Zm0,46.11a17.11,17.11,0,1,1,16.74-17.07A16.77,16.77,0,0,1,98.37,179.42Z"/><polygon points="197.24 134 180.32 170.43 163.27 134 153.34 134 146.38 190 158.43 190 162.45 156.35 175.74 184 185.01 184 198.22 156.35 202.16 190 214.22 190 207.32 134 197.24 134"/><path d="M260,134H236.61v56h12V171H260c12.88,0,18.62-9.1,18.62-18.46S272.9,134,260,134Zm-.57,26H248.61V144h11.16c4.51,0,6.8,4.48,6.8,8C266.57,155.69,264.11,160,259.45,160Z"/><path d="M324.9,133.31a29,29,0,1,0,28.71,29A28.69,28.69,0,0,0,324.9,133.31Zm0,46.11a17.11,17.11,0,1,1,16.73-17.07A16.77,16.77,0,0,1,324.9,179.42Z"/><path d="M407.61,170.31a10,10,0,0,1-20,0V134h-12v36.31c0,12.8,10.44,21,22.09,21s21.91-8.21,21.91-21V134h-12Z"/><polygon points="474.61 167.77 455.35 134 444.61 134 444.61 190 456.61 190 456.61 156.28 476.02 190 486.61 190 486.61 134 474.61 134 474.61 167.77"/><path d="M534.6,134h-22v56h22c16.25,0,25.51-11.88,25.51-27.88S550.85,134,534.6,134Zm0,45h-10V145h10c9,0,13.54,7.76,13.54,17.12S543.62,179,534.6,179Z"/><path d="M657.89,180c-9.44,0-16.33-7.87-16.33-17.64s6.89-17.72,16.33-17.72A16.58,16.58,0,0,1,671.67,152l9.77-6.73a28.13,28.13,0,0,0-23.55-12c-16.16,0-28.39,12.95-28.39,29,0,15.93,12.23,29,28.39,29a28.11,28.11,0,0,0,23.79-12.4L672,172.2A17,17,0,0,1,657.89,180Z"/><path d="M727.85,133.31a29,29,0,1,0,28.73,29A28.68,28.68,0,0,0,727.85,133.31Zm0,46.11a17.11,17.11,0,1,1,16.75-17.07A16.77,16.77,0,0,1,727.85,179.42Z"/><polygon points="778.61 190 790.61 190 790.61 168 809.61 168 809.61 157 790.61 157 790.61 144 814.61 144 814.61 134 778.61 134 778.61 190"/><polygon points="835.61 190 847.61 190 847.61 168 865.61 168 865.61 157 847.61 157 847.61 144 870.61 144 870.61 134 835.61 134 835.61 190"/><polygon points="903.61 167 924.61 167 924.61 157 903.61 157 903.61 144 927.61 144 927.61 134 891.61 134 891.61 190 928.61 190 928.61 180 903.61 180 903.61 167"/><polygon points="963.61 167 984.61 167 984.61 157 963.61 157 963.61 144 987.61 144 987.61 134 951.61 134 951.61 190 987.61 190 987.61 180 963.61 180 963.61 167"/><path d="M1086.3,180c-9.43,0-16.33-7.87-16.33-17.64s6.9-17.72,16.33-17.72a16.63,16.63,0,0,1,13.79,7.39l9.77-6.73a28.14,28.14,0,0,0-23.56-12c-16.15,0-28.39,12.95-28.39,29,0,15.93,12.24,29,28.39,29a28.12,28.12,0,0,0,23.8-12.4l-9.68-6.72A17,17,0,0,1,1086.3,180Z"/><path d="M1156.29,133.31a29,29,0,1,0,28.71,29A28.69,28.69,0,0,0,1156.29,133.31Zm0,46.11A17.11,17.11,0,1,1,1173,162.35,16.77,16.77,0,0,1,1156.29,179.42Z"/><path d="M1210.77,177.61a6.86,6.86,0,1,0,0,13.71,6.86,6.86,0,1,0,0-13.71Z"/></g></g></svg>