<svg xmlns="http://www.w3.org/2000/svg" viewBox="0 0 920.62 697.43"><defs><style>.cls-1,.cls-14,.cls-5{fill:#406860;}.cls-1,.cls-2{stroke:#2d4440;}.cls-1,.cls-10,.cls-14,.cls-15,.cls-16,.cls-24,.cls-3,.cls-7,.cls-8,.cls-9{stroke-linecap:round;stroke-linejoin:round;}.cls-1{stroke-width:6.25px;}.cls-10,.cls-15,.cls-16,.cls-2,.cls-24,.cls-3,.cls-8,.cls-9{fill:none;}.cls-2{stroke-miterlimit:10;stroke-width:5.2px;}.cls-3{stroke:#406860;stroke-width:3.81px;}.cls-4{fill:#ccb783;}.cls-6,.cls-7{fill:#2d4440;}.cls-10,.cls-14,.cls-15,.cls-16,.cls-7,.cls-8,.cls-9{stroke:#ccb783;}.cls-10,.cls-7{stroke-width:4.16px;}.cls-24,.cls-8{stroke-width:3.12px;}.cls-9{stroke-width:2.08px;}.cls-11{fill:#cc4937;}.cls-12{fill:#661a14;}.cls-13{fill:#a82011;}.cls-14{stroke-width:3.24px;}.cls-15{stroke-width:2.43px;}.cls-16{stroke-width:1.62px;}.cls-17{fill:#cea636;}.cls-18{fill:#995e4a;}.cls-19{fill:#875041;}.cls-20{fill:#f2eee4;}.cls-21{fill:#2d2922;}.cls-22{fill:#ddcfaf;}.cls-23{fill:#7c483c;}.cls-24{stroke:#cea636;}</style></defs><g id="Layer_2" data-name="Layer 2"><g id="POST_1" data-name="POST 1"><g id="OBJECTS"><path class="cls-1" d="M427.06,328.69c3.18-21.6,25.76-43.91,39.7-60.19,17.13-20,36.34-39.85,57.44-55.81a191.8,191.8,0,0,1,65.85-32.64c51.15-14,83.78,8.49,115.32,50.24C739.14,275,763,334.13,779.51,387.11c6.71,21.58,9.18,60.43-5.54,78.8-29.55-39.28-75.32-67.79-121.9-81.22-39.41-11.36-83.41-28.53-125.08-26.34"/><path class="cls-2" d="M495.76,325.56c-.57-18.83,15.33-43.35,26.68-56.54a158.34,158.34,0,0,1,66.84-46.11c26.26-9.45,45.76-7.28,62.38,13,35.43,43.16,56.32,106,56.45,161.52"/><path class="cls-2" d="M528.55,347.42c13.9-40.39,58.15-104,105.83-70.73,18.71,13.06,27,31.74,31.29,53.5,4.49,22.75,15.7,48.6,14.33,71.88"/><path class="cls-1" d="M449.42,341.57c-3.19-18.1-25.76-36.79-39.71-50.43-17.13-16.76-36.33-33.39-57.43-46.76A208.8,208.8,0,0,0,286.42,217c-51.15-11.76-82.2,8.61-115.32,42.1-94.25,95.3,6.73,140.61,53.31,129.36,39.4-9.52,83.4-23.91,125.08-22.07"/><path class="cls-2" d="M380.72,339c.56-15.78-21.22-30.56-32.56-41.61-17.82-17.36-34.57-36.44-61-44.4s-45.76-6.1-62.38,10.86c-35.42,36.16-56.32,88.8-56.45,135.33"/><path class="cls-3" d="M347.93,357.26C334,323.42,289.77,270.11,242.09,298c-18.7,10.94-27,26.58-31.28,44.81-4.5,19.06-15.7,40.73-14.34,60.23"/><path class="cls-4" d="M115.71,298.33c-2.75-32.81,51.56-35.27,57.8-3.53,18.12-30.14,57.7-8.08,55,1.85,11.37-24.53,61.51-9.16,63.69,16.7,11.33-17.49,16.09-25.5,37.17-31.13,12.09-3.22,24.79-4.19,37.1-.5,20.43,6.12,40.29,27.29,48.59,46.75-36.59,5.88-74.37,6.76-110.3,16.86-34.1,9.6-66.07,24.88-99.58,35.41-19,6-44.87,13.24-65,11.12-6.5-15.17-12.44-22.89-16.34-37.57C121.11,344.05,117.28,330.24,115.71,298.33Z"/><path class="cls-4" d="M815.71,333.88c5.21-43.94-57.42-50.13-66.59-7.81-19.08-41.47-66.19-13.93-63.67-.44-11.62-33.56-70.53-15.58-74.65,19.06-12-24.1-17-35.13-41-43.8-13.78-5-28.39-7-42.85-2.65-24,7.14-48.26,34.53-59.06,60.23,41.94,9.85,85.55,13,126.46,28.53,38.82,14.7,74.83,36.94,112.91,52.86,21.61,9,51,20.18,74.45,18.39,8.45-20,15.79-30.09,21.2-49.6C806.65,395,811.93,376.67,815.71,333.88Z"/><path class="cls-5" d="M149.76,378c66.39-36.93,143-45.27,217.34-45.28,66.86,0,141.56-5.94,206.39,13.25,35.86,10.61,78.11,21.44,111.23,39.84C709,399.23,772.8,434.71,774.84,446c3.6,20-23.89,47.52-33.18,64-9.75,17.3-23.57,40.19-38.11,53.86-12.65,11.89-32.7,17.79-48,26.39-56.34,31.64-117.86,35.39-181.15,37.64-65.94,2.35-129.66,9.45-188.66-23.56-19.06-10.66-41.3-20.47-58.44-33.92-13-10.22-19.88-25.5-30.61-37.28-21.82-23.94-47.37-87.59-51.27-121.74C142.62,387,146.64,405.75,149.76,378Z"/><path class="cls-6" d="M737.73,516.84c-19.67-4.83-38.69-15-58.66-20.38-20.35-5.46-40.55-6.54-61.38-7.71-45.19-2.54-91.23-4.46-136.44,1.65-49.94,6.75-100.48,18.5-147.42,36.86-17,6.66-33.64,16.47-47.16,29.1,43.54,1.15,86.54-11.34,129.63-15.45,63.54-6.07,125.72-9.5,189.46-9.5,31.78,0,64.91-1.43,95.84,6.18,6.14,1.52,12.53,5.42,19.76,3.29C731.34,537.94,738,526.32,737.73,516.84Z"/><path class="cls-6" d="M162.06,483.52c-6.35-12.61-16.5-28.79-16.65-43.11-.12-11,3.94-33,12.46-41.18,10.08-9.63,32.48-11.85,45.57-14,36.26-6,73.19-4.13,109.77-4.13,30.63,0,61.25.11,91.88,0,42.71-.15,83.93,9.64,126.06,15.58,62.7,8.83,139.59,24.78,197,54.45,15.83,8.18,22.69,23.41,36.7,31.72-141.7-35-285-56.52-430.91-45.92-41,3-84.13,11.11-123.81,22.33-11.62,3.28-37.94,10.8-44.71,20.2"/><path class="cls-7" d="M711.28,548.43c17.68-15.52,35.39-28.7,33.78-54.5-.46-7.39-4.14-9.24.14-16.22,5-8.2,16.91-14.56,26-15.73,6.26-.81,11.5,2.28,16.95.34,4.37-1.56,10.46-9.58,12.82-13.18,9.48-14.49,10.58-25.06,30.14-30.63,15.63-4.45,28.6-2.76,38.66-18-2.75,11.14-6.44,25.78-6.75,37-.27,10.3,3.69,18.41,2.6,29.23C864,483.2,853.06,488,841.46,496.7c-12.77,9.59-14.64,21.89-24,33.44-13.67,16.88-34.28,8.72-51.86,7.42-10.8-.8-37,.15-54.33,10.87"/><path class="cls-8" d="M867.66,404.44c-3.5,4.2-5.6,9.6-9.17,13.88a201.59,201.59,0,0,1-15.26,16c-8.18,7.88-17.73,11.43-18.07,24.3-.22,8.83,2,14.35-4.3,21.22S807.42,490,799,493.72c-9,4-17.58,8.17-24.83,14.94-4.64,4.32-9,9-14,12.9-3.65,2.79-23,12.51-26.1,14-5.37,2.56-12.85,8.1-18.26,8"/><path class="cls-9" d="M834,416.79c2.48,9.42-8.51,20.26-4.69,28"/><path class="cls-9" d="M863.11,439.86c-2.8,11.35-18.18,12.71-26.58,16.07-5.82,2.33-5.94,5.33-10.17,9.22,2.11-2.15,3.54-4.31,6.81-4.85s7.81,2,10.93,2.7c6.06,1.3,15.94,1.37,19.69-4.38"/><path class="cls-9" d="M814,430c-8.8,11.08.65,29.76,1.65,41,.73,8.33-5.28,11-8.39,17.66"/><path class="cls-9" d="M794.1,495.49c6.12-.65,13.19,1.38,18.74,1.68,8,.43,15.15-.51,22.5-4.1,9.14-4.46,20.53-11.26,27.24-19"/><path class="cls-9" d="M786.8,499.3c8.94-4.15,18.93,6.85,27.69,8.09,5.51.78,14.8-1.64,18.74-5.19"/><path class="cls-9" d="M820.72,524.13c-6.57,6-19,4.43-26.62.18-8.53-4.73-20.18-17.22-29.43-5.87,7.37-7.08,18.68,9.86,24.91,13.23,3.85,2.08,7.47,4.76,11.85,5.5,4,.68,6.15-.78,9.92-1.11"/><path class="cls-9" d="M794.2,457.21c.71,11.45-5.41,18-10.44,27.25-3.51,6.42-3.4,12.38-5,18.65"/><path class="cls-9" d="M769.28,464.26c2,14.68-8.18,27.2-14.35,39.36-2.84,5.6-3.41,12-.51,17.94"/><path class="cls-9" d="M802.11,446c-2.32,3.35,2.21,10.2,2.92,14a20.14,20.14,0,0,1-2.1,14.11c-2.15,4.25-5.29,7.72-7.5,11.74-1.49,2.7-1.64,5.56-2.82,8.14"/><path class="cls-9" d="M862.61,432.14c-7.16,7.35-14.94,10.25-24,14.39-5.85,2.67-6.36,3.52-11,8.27"/><path class="cls-10" d="M504.32,628.2c92.5,1.92,190.88-49.46,245-123.71,33-45.27,73.88-190.61,64.48-264.69"/><path class="cls-7" d="M813.45,256c.91-23.51,3.55-45.42-16.27-62-5.68-4.75-9.55-3.36-11.66-11.27C783,173.45,786.6,160.46,792,153c3.73-5.1,9.57-6.77,11.92-12.06,1.88-4.24.25-14.18-.74-18.37-4-16.85-10.88-24.93-1.45-42.94,7.53-14.4,17.69-22.64,13.58-40.43,6.18,9.67,14.26,22.43,22.18,30.37,7.28,7.3,15.89,10,23,18.24,10.79,12.53,6.73,23.75,5.06,38.17-1.83,15.86,5.8,25.69,7.74,40.42C876.13,188,856,197.3,843,209.15c-8,7.29-25.33,26.9-29.52,46.89"/><path class="cls-8" d="M816.7,43.49c.63,5.43,3.1,10.67,3.76,16.21a205.38,205.38,0,0,1,1.06,22c.08,11.36-3.93,20.73,5.18,29.84,6.24,6.24,11.75,8.47,12.43,17.72s-1.89,16.75-5,25.48c-3.31,9.3-6.19,18.38-6.27,28.3-.06,6.33.4,12.71-.28,19-.49,4.57-6.79,25.33-7.84,28.55-1.84,5.66-3,14.89-6.75,18.77"/><path class="cls-9" d="M802.48,76.4c8.54,4.69,8.84,20.12,17.12,22.71"/><path class="cls-9" d="M839.25,71.18c6.31,9.84-3.3,21.94-6.65,30.34-2.31,5.83-.22,8-.31,13.73-.11-3-.69-5.54,1.17-8.28s6.85-4.28,9.49-6.08c5.11-3.49,12-10.61,10.37-17.29"/><path class="cls-9" d="M798.28,100c2,14,22,20,30.85,27,6.55,5.2,4.37,11.43,7,18.24"/><path class="cls-9" d="M832.08,159.53c3.74-4.89,10.08-8.62,14.12-12.43,5.84-5.53,10.06-11.35,12.52-19.14,3.06-9.7,6-22.65,5-32.82"/><path class="cls-9" d="M829.82,167.44c3.14-9.34,18-9,24.93-14.51,4.35-3.46,9-11.86,9.14-17.16"/><path class="cls-9" d="M871.17,159.94c-.16,8.9-9.85,16.81-18.19,19.43-9.31,2.92-26.38,2.78-24.52,17.3-.07-10.22,20-6.75,26.75-8.95,4.15-1.36,8.59-2.14,12.14-4.81,3.26-2.44,3.67-5,6-7.95"/><path class="cls-9" d="M804.38,133.1c8.8,7.37,9.36,16.34,12.58,26.33,2.24,7,6.63,11,10.09,16.47"/><path class="cls-9" d="M792.34,156c12,8.64,14.1,24.66,18.67,37.51,2.1,5.92,6.38,10.76,12.65,12.73"/><path class="cls-9" d="M801.73,119.67c.83,4,8.92,5.42,12.18,7.54a20.15,20.15,0,0,1,8.79,11.23c1.6,4.49,2,9.16,3.34,13.53.93,2.94,2.9,5,4,7.65"/><path class="cls-9" d="M833.3,66.22c.4,10.26-2.84,17.9-6.08,27.32-2.1,6.08-1.83,7-1.55,13.65"/><path class="cls-11" d="M759.91,508.86a10.66,10.66,0,1,1,4-14.55A10.66,10.66,0,0,1,759.91,508.86Z"/><circle class="cls-12" cx="748.5" cy="518.23" r="13.52" transform="translate(-154.67 403.77) rotate(-27.47)"/><circle class="cls-11" cx="749.5" cy="541.65" r="13.52" transform="translate(-171.86 462.75) rotate(-30.96)"/><circle class="cls-13" cx="731.77" cy="532.11" r="13.52" transform="translate(-168.56 621.76) rotate(-41.71)"/><circle class="cls-13" cx="689.24" cy="548.59" r="13.52" transform="translate(-181.65 681.05) rotate(-47.17)"/><circle class="cls-12" cx="718.67" cy="550.89" r="13.52" transform="translate(-1.39 1099.96) rotate(-74.8)"/><circle class="cls-11" cx="711.53" cy="528.12" r="13.52" transform="translate(-163.4 387.83) rotate(-27.47)"/><path class="cls-7" d="M614.21,607.93c10.44-21.09,21.8-40,10.49-63.25-3.24-6.66-7.34-7-6-15.06,1.53-9.5,10.09-19.9,18.07-24.45,5.49-3.13,11.5-2.28,15.81-6.15,3.45-3.1,6-12.83,6.83-17.06,3.25-17,.25-27.2,16.21-39.8,12.76-10.06,25.4-13.44,28.91-31.34,1.69,11.34,3.86,26.29,7.84,36.77,3.67,9.63,10.42,15.62,13.53,26,4.73,15.84-3.56,24.43-11,36.9-8.15,13.73-5.2,25.82-9.45,40.06-6.21,20.82-28.37,21.11-45.12,26.6-10.29,3.37-34.11,14.21-46.11,30.74"/><path class="cls-8" d="M704,415.25c-1.64,5.21-1.53,11-3.19,16.32a203.27,203.27,0,0,1-8,20.57c-4.57,10.4-12,17.32-7.46,29.35,3.15,8.25,7.27,12.53,4.1,21.25s-8.56,14.52-15,21.22c-6.81,7.14-13.15,14.25-17.27,23.27-2.64,5.76-4.83,11.77-8,17.25-2.31,4-16.55,20.35-18.82,22.86-4,4.41-8.79,12.38-13.82,14.38"/><path class="cls-9" d="M677.58,439.48c5.88,7.76-.16,22,6.35,27.72"/><path class="cls-9" d="M713.27,449.73c1.74,11.56-12,18.68-18.46,25-4.49,4.37-3.46,7.19-5.89,12.4,1.13-2.8,1.64-5.34,4.45-7.08s8-1.1,11.14-1.67c6.09-1.09,15.25-4.8,16.53-11.54"/><path class="cls-9" d="M664.1,459.32c-3.92,13.6,11.93,27.27,17.12,37.28,3.85,7.42-.68,12.21-1,19.52"/><path class="cls-9" d="M670.64,527.45c5.41-2.94,12.73-3.75,18-5.59,7.6-2.65,13.82-6.24,19.25-12.35,6.76-7.6,14.7-18.23,18-27.91"/><path class="cls-9" d="M665.34,533.74c6.68-7.24,20.12-.86,28.69-3.06,5.39-1.37,13.05-7.15,15.35-11.93"/><path class="cls-9" d="M706.16,543.79c-3.79,8.06-15.86,11.32-24.55,10.31-9.68-1.14-25.21-8.24-29.44,5.77,4.11-9.35,21,2,28.07,2.75,4.34.46,8.72,1.56,13,.58,4-.9,5.39-3.07,8.75-4.8"/><path class="cls-9" d="M656.16,492c5,10.32,1.86,18.74.72,29.17-.8,7.27,1.57,12.75,2.49,19.15"/><path class="cls-9" d="M635.8,508c7.47,12.81,2.8,28.27,1.72,41.86-.5,6.27,1.43,12.43,6.35,16.79"/><path class="cls-9" d="M659.22,478.67c-.87,4,5.93,8.59,8,11.86a20.09,20.09,0,0,1,3.43,13.84c-.37,4.75-2,9.16-2.47,13.71-.35,3.06.6,5.76.49,8.6"/><path class="cls-9" d="M709.87,442.78c-3.82,9.52-9.91,15.17-16.71,22.44-4.4,4.7-4.55,5.68-7,11.83"/><path class="cls-14" d="M811.56,312.66c11.49-14.23,23.29-26.67,18.64-46.2-1.33-5.6-4.39-6.53-2-12.44,2.77-7,11-13.39,17.85-15.5,4.69-1.44,9.1.22,13-2,3.14-1.76,6.74-8.71,8.07-11.79,5.33-12.34,4.78-20.58,19-27.44,11.38-5.47,21.54-5.9,27.23-18.89-.64,8.89-1.52,20.6-.27,29.22,1.15,7.92,5.26,13.6,5.86,22,.91,12.81-6.83,17.92-14.55,26.13-8.51,9-8.31,18.7-13.94,28.78-8.23,14.74-25.08,11.22-38.72,12.55-8.37.82-28.27,5-40.16,15.53"/><path class="cls-15" d="M912.22,181.69c-2.13,3.68-3,8.09-5.19,11.85a157.22,157.22,0,0,1-9.57,14.23c-5.22,7.12-12.06,11.1-10.61,21,1,6.79,3.39,10.73-.48,16.82s-9,9.56-14.93,13.56c-6.38,4.26-12.38,8.59-17,14.73-3,3.92-5.65,8.11-9,11.73-2.43,2.62-16,12.63-18.14,14.15-3.77,2.68-8.76,7.91-12.91,8.57"/><path class="cls-16" d="M888.08,195.6c3.15,6.89-3.83,16.65.14,22.1"/><path class="cls-16" d="M913.42,209.41c-.63,9.06-12.24,12.14-18.22,15.83-4.15,2.55-3.84,4.87-6.56,8.41,1.33-1.93,2.14-3.77,4.57-4.62s6.25.51,8.73.62c4.8.19,12.38-1.07,14.49-6"/><path class="cls-16" d="M874.5,208.38c-5.27,9.65,4.45,22.7,6.69,31.16,1.67,6.28-2.58,9.15-4.08,14.63"/><path class="cls-16" d="M868,261.15c4.6-1.31,10.28-.69,14.57-1.2a33.8,33.8,0,0,0,16.68-6.12c6.41-4.62,14.23-11.34,18.34-18.13"/><path class="cls-16" d="M862.88,265c6.29-4.36,15.4,2.74,22.27,2.53,4.32-.14,11.11-3.22,13.66-6.46"/><path class="cls-16" d="M892.13,279.55c-4.23,5.47-13.94,5.9-20.36,3.66-7.15-2.49-17.72-10.5-23.3-.59,4.7-6.4,15.6,5.07,20.83,6.83,3.21,1.08,6.34,2.65,9.79,2.64,3.17,0,4.61-1.41,7.45-2.16"/><path class="cls-16" d="M863,231.83c2.06,8.67-1.75,14.53-4.38,22.24-1.83,5.38-1,9.93-1.35,14.95"/><path class="cls-16" d="M844.82,240.52c3.5,11-2.66,21.92-5.77,32a15.35,15.35,0,0,0,2,13.81"/><path class="cls-16" d="M867.53,222.22c-1.32,2.88,3.05,7.52,4.1,10.36a15.66,15.66,0,0,1,.27,11.08c-1.09,3.53-3,6.61-4.2,10-.78,2.26-.51,4.47-1.08,6.6"/><path class="cls-16" d="M912,203.56c-4.5,6.58-10.08,9.84-16.46,14.2-4.13,2.82-4.41,3.54-7.3,7.79"/><path class="cls-14" d="M645.62,591.9c18.26.94,35.26,3.21,48.34-12,3.75-4.37,2.71-7.39,8.87-9,7.25-1.84,17.31,1.05,23,5.34,3.93,3,5.17,7.5,9.26,9.38,3.27,1.5,11,.34,14.28-.39,13.13-2.93,19.47-8.22,33.38-.72,11.11,6,17.42,14,31.27,11-7.57,4.71-17.56,10.86-23.81,16.94-5.74,5.58-7.92,12.24-14.39,17.68-9.84,8.26-18.52,5-29.7,3.56-12.31-1.58-20,4.25-31.48,5.61-16.77,2-23.81-13.72-32.9-24-5.58-6.3-20.65-19.94-36.14-23.4"/><path class="cls-15" d="M810.73,596.5c-4.23.43-8.32,2.3-12.63,2.76a158.18,158.18,0,0,1-17.15.61c-8.82,0-16.06-3.25-23.22,3.73-4.92,4.79-6.7,9-13.9,9.49s-13-1.63-19.75-4.13c-7.19-2.66-14.21-5-21.92-5.14-4.92-.11-9.88.19-14.78-.4-3.54-.43-19.61-5.53-22.1-6.37-4.38-1.49-11.54-2.45-14.52-5.43"/><path class="cls-16" d="M785.3,585.13c-3.73,6.59-15.72,6.67-17.81,13.08"/><path class="cls-16" d="M789,613.74c-7.71,4.81-17-2.77-23.51-5.45-4.51-1.86-6.2-.25-10.66-.38,2.34-.06,4.31-.48,6.42,1s3.25,5.36,4.62,7.43c2.67,4,8.14,9.4,13.34,8.23"/><path class="cls-16" d="M767,581.64c-10.91,1.39-15.77,16.92-21.3,23.7-4.11,5-8.92,3.29-14.24,5.29"/><path class="cls-16" d="M720.42,607.32c3.77,2.95,6.6,7.91,9.53,11.09a33.76,33.76,0,0,0,14.74,9.91c7.51,2.47,17.54,4.86,25.45,4.2"/><path class="cls-16" d="M714.3,605.48c7.22,2.53,6.82,14.08,11,19.52,2.64,3.41,9.13,7.1,13.25,7.26"/><path class="cls-16" d="M719.72,637.69c-6.91-.22-13-7.82-14.92-14.33-2.18-7.25-1.9-20.52-13.2-19.21,7.94,0,5,15.61,6.7,20.86,1,3.24,1.58,6.7,3.61,9.49,1.87,2.55,3.85,2.9,6.13,4.76"/><path class="cls-16" d="M741.22,586.06c-5.8,6.76-12.78,7.11-20.57,9.51-5.43,1.67-8.61,5-12.89,7.68"/><path class="cls-16" d="M723.54,576.48c-6.84,9.27-19.3,10.71-29.33,14.14a15.34,15.34,0,0,0-10,9.7"/><path class="cls-16" d="M751.69,584.12c-3.11.61-4.3,6.88-6,9.4a15.67,15.67,0,0,1-8.81,6.72c-3.51,1.19-7.14,1.43-10.55,2.46-2.28.7-3.92,2.21-6,3"/><path class="cls-16" d="M792.9,609.18c-8,.21-13.87-2.39-21.16-5-4.7-1.68-5.45-1.49-10.59-1.33"/><path class="cls-14" d="M525.22,603.32c17.17,6.27,32.75,13.44,49.74,2.73,4.87-3.07,4.77-6.26,11.12-5.94,7.47.37,16.23,6.1,20.42,11.88,2.88,4,2.73,8.69,6.09,11.69,2.68,2.4,10.42,3.57,13.76,3.83,13.41,1.07,21-2.12,32.11,9.15,8.85,9,12.53,18.47,26.66,19.67-8.62,2.26-20,5.2-27.74,9.17-7.13,3.65-11.17,9.37-19,12.66-11.84,5-19.17-.68-29.43-5.34-11.3-5.14-20.38-1.83-31.74-3.9-16.61-3-18.72-20.13-24.38-32.6-3.48-7.66-13.86-25.14-27.65-33"/><path class="cls-15" d="M681.66,656.32c-4.17-.82-8.63-.25-12.88-1.08a158.89,158.89,0,0,1-16.57-4.47c-8.42-2.64-14.4-7.83-23.3-3.26-6.1,3.13-9.06,6.67-16.07,5s-11.94-5.38-17.66-9.76c-6.08-4.66-12.12-8.94-19.43-11.37-4.68-1.55-9.5-2.73-14-4.73-3.26-1.45-17.12-11.06-19.25-12.6-3.75-2.7-10.31-5.74-12.28-9.46"/><path class="cls-16" d="M660.7,638c-5.5,5.2-17,1.75-20.87,7.26"/><path class="cls-16" d="M655.81,666.41c-8.78,2.32-15.44-7.67-20.86-12.14-3.76-3.1-5.85-2.07-10.08-3.5,2.26.64,4.26.81,5.85,2.84s1.53,6.08,2.23,8.46c1.37,4.61,5,11.37,10.32,11.79"/><path class="cls-16" d="M644.23,629.24c-10.83-1.87-20.05,11.53-27.34,16.39-5.4,3.6-9.49.51-15.16.85"/><path class="cls-16" d="M592.17,640.08c2.73,3.92,4,9.5,5.84,13.39a33.75,33.75,0,0,0,11.17,13.82c6.44,4.58,15.33,9.81,23.08,11.51"/><path class="cls-16" d="M586.86,636.52c6.15,4.54,2.37,15.46,4.79,21.89,1.52,4.05,6.63,9.48,10.52,10.85"/><path class="cls-16" d="M582.56,668.89c-6.55-2.24-10.09-11.29-10-18.08.05-7.58,4.22-20.17-7-22.25,7.57,2.38.23,16.4.26,21.91,0,3.4-.47,6.87.66,10.13,1,3,2.82,3.9,4.45,6.35"/><path class="cls-16" d="M618.31,625.88c-7.54,4.75-14.32,3-22.47,3-5.68,0-9.71,2.29-14.58,3.55"/><path class="cls-16" d="M604.22,611.52c-9.25,6.85-21.59,4.55-32.18,4.87a15.38,15.38,0,0,0-12.43,6.33"/><path class="cls-16" d="M628.88,627.11c-3.15-.33-6.14,5.31-8.48,7.22a15.69,15.69,0,0,1-10.4,3.83c-3.7.11-7.24-.74-10.8-.75-2.4,0-4.4,1-6.6,1.11"/><path class="cls-16" d="M660.89,663.19c-7.68-2.15-12.56-6.37-18.75-11-4-3-4.77-3-9.73-4.4"/><path class="cls-14" d="M782.93,435.13c-4-17.85-6.32-34.84-24.49-43.38-5.21-2.45-7.84-.65-11-6.17-3.7-6.49-3.59-17-1-23.61,1.79-4.57,5.85-7,6.57-11.42.57-3.56-2.62-10.7-4.19-13.66-6.33-11.87-13.11-16.57-9.59-32,2.81-12.31,8.81-20.51,2.21-33.06,6.55,6,15.15,14,22.67,18.43,6.91,4,13.92,4.37,20.88,9.16,10.59,7.28,9.75,16.52,11.35,27.68,1.76,12.28,9.44,18.15,13.81,28.84,6.39,15.62-6.87,26.61-14.33,38.09-4.58,7.06-13.71,25.23-12.91,41.08"/><path class="cls-15" d="M743.32,274.77c1.55,4,4.44,7.41,6,11.44a157.61,157.61,0,0,1,5.16,16.36c2.31,8.52,1.15,16.35,9.8,21.39,5.92,3.46,10.5,4,12.84,10.86s1.9,13,1.29,20.14c-.64,7.64-1,15,.89,22.5,1.22,4.77,2.82,9.47,3.56,14.35.53,3.52-.1,20.37-.25,23-.26,4.62.72,11.78-1.35,15.44"/><path class="cls-16" d="M739.15,302.31c7.34,1.84,10.62,13.38,17.36,13.68"/><path class="cls-16" d="M765.74,291.12c6.69,6.15,1.86,17.13,1,24.11-.59,4.84,1.41,6,2.48,10.38-.68-2.25-1.61-4-.76-6.45s4.3-4.57,5.93-6.45c3.15-3.63,6.89-10.34,4.38-15"/><path class="cls-16" d="M740.67,320.9c4.25,10.13,20.51,10.68,28.53,14.2,5.94,2.61,5.54,7.72,8.89,12.31"/><path class="cls-16" d="M777.84,358.92c1.84-4.41,5.87-8.47,8.14-12.13a33.9,33.9,0,0,0,5.63-16.86c.38-7.89,0-18.2-2.74-25.65"/><path class="cls-16" d="M777.7,365.32c.51-7.64,11.75-10.34,15.86-15.84,2.59-3.46,4.42-10.69,3.48-14.7"/><path class="cls-16" d="M807.29,351.5c1.64,6.72-4.07,14.58-9.83,18.2-6.41,4-19.27,7.3-15,17.85-2.08-7.67,13.69-9,18.32-12,2.85-1.84,6-3.31,8.17-6,2-2.48,1.77-4.48,3-7.17"/><path class="cls-16" d="M751.8,344.54c8.06,3.8,10.26,10.43,14.65,17.3,3.06,4.79,7.16,7,10.85,10.37"/><path class="cls-16" d="M747.28,364.15c10.76,4.11,15.47,15.74,21.45,24.49a15.36,15.36,0,0,0,12,7.06"/><path class="cls-16" d="M747.14,335c1.42,2.83,7.78,2.31,10.65,3.25a15.7,15.7,0,0,1,8.83,6.7c2.08,3.06,3.28,6.5,5.19,9.51,1.27,2,3.17,3.19,4.48,5"/><path class="cls-16" d="M760.3,288.57c2.32,7.63,1.4,14,.83,21.73-.37,5,0,5.65,1.53,10.56"/><circle class="cls-12" cx="809.12" cy="231.63" r="11.33" transform="translate(91.31 671.03) rotate(-47.45)"/><circle class="cls-13" cx="813" cy="249.43" r="11.33" transform="matrix(0.86, -0.51, 0.51, 0.86, -14.24, 446.57)"/><circle class="cls-13" cx="808.9" cy="287.45" r="11.33" transform="translate(335.83 1003.79) rotate(-76.12)"/><circle class="cls-12" cx="821.95" cy="266.42" r="11.33" transform="translate(69.84 691.75) rotate(-47.45)"/><circle class="cls-11" cx="802.24" cy="262.97" r="11.33" transform="translate(66 676.11) rotate(-47.45)"/><path class="cls-7" d="M222.71,552.41c-18.33-14.75-36.58-27.16-36.08-53,.15-7.41,3.74-9.41-.83-16.2-5.38-8-17.52-13.83-26.68-14.61-6.29-.54-11.39,2.77-16.92,1.06-4.44-1.36-10.86-9.12-13.37-12.62-10.09-14.07-11.64-24.58-31.42-29.31C81.6,424,68.72,426.2,58,411.42c3.23,11,7.54,25.48,8.32,36.67.72,10.28-2.89,18.55-1.34,29.31,2.36,16.37,13.49,20.68,25.45,28.89,13.16,9,15.56,21.24,25.39,32.38,14.38,16.29,34.62,7.25,52.13,5.2,10.76-1.26,36.92-1.43,54.75,8.54"/><path class="cls-8" d="M60.32,415.24c3.68,4,6,9.34,9.75,13.47A203.55,203.55,0,0,0,86,444c8.51,7.52,18.21,10.66,19.09,23.51.6,8.81-1.33,14.42,5.2,21s13.87,9.59,22.49,13c9.18,3.61,17.92,7.41,25.45,13.86,4.81,4.12,9.32,8.66,14.52,12.29,3.77,2.63,23.57,11.52,26.68,12.84,5.48,2.33,13.18,7.55,18.58,7.25"/><path class="cls-9" d="M94.47,426.13c-2.08,9.52,9.37,19.88,5.88,27.83"/><path class="cls-9" d="M66.38,450.42c3.28,11.23,18.71,11.93,27.24,14.93,5.92,2.08,6.17,5.07,10.56,8.78-2.2-2.07-3.73-4.16-7-4.56s-7.72,2.36-10.81,3.16c-6,1.56-15.87,2-19.86-3.53"/><path class="cls-9" d="M115,438.48c9.27,10.7.62,29.76.11,41-.38,8.35,5.74,10.8,9.13,17.28"/><path class="cls-9" d="M137.7,503.06c-6.14-.39-13.12,1.94-18.65,2.47-8,.78-15.16.14-22.65-3.13-9.32-4.06-21-10.37-28-17.79"/><path class="cls-9" d="M145.15,506.55c-9.1-3.76-18.61,7.66-27.32,9.27-5.46,1-14.85-1-18.94-4.39"/><path class="cls-9" d="M112.33,532.81c6.82,5.72,19.15,3.61,26.61-1,8.31-5.09,19.41-18.06,29.14-7.12-7.66-6.76-18.23,10.65-24.32,14.28-3.75,2.24-7.26,5.08-11.6,6-4,.85-6.18-.51-10-.68"/><path class="cls-9" d="M136,464.82c-.22,11.47,6.17,17.79,11.59,26.77,3.78,6.27,3.93,12.23,5.78,18.43"/><path class="cls-9" d="M161.16,470.79c-1.4,14.76,9.34,26.83,16,38.72,3.08,5.48,3.92,11.88,1.28,17.9"/><path class="cls-9" d="M127.59,454c2.46,3.25-1.77,10.29-2.32,14.14a20.13,20.13,0,0,0,2.69,14c2.34,4.15,5.62,7.49,8,11.4,1.6,2.63,1.87,5.48,3.16,8"/><path class="cls-9" d="M66.55,442.69c7.47,7,15.37,9.61,24.59,13.35,6,2.42,6.51,3.25,11.31,7.8"/><path class="cls-10" d="M432.89,623.27c-92.34,5.87-192.82-41.26-250-113.13-34.87-43.83-82-187.28-75.74-261.7"/><path class="cls-7" d="M108.15,264.66c-1.93-23.46-5.49-45.24,13.6-62.66,5.47-5,9.39-3.77,11.17-11.76,2.08-9.4-2-22.22-7.78-29.41-3.94-4.93-9.85-6.35-12.42-11.54-2.06-4.15-.86-14.15,0-18.38,3.26-17,9.81-25.37-.38-43C104.15,73.88,93.65,66.08,97,48.14c-5.76,9.91-13.28,23-20.86,31.28C69.17,87,60.69,90.09,54,98.63c-10.25,13-5.71,24-3.43,38.34,2.51,15.77-4.69,25.92-6,40.72-1.91,21.64,18.58,30.09,32.12,41.38C85,226,103.1,244.86,108.15,264.66"/><path class="cls-8" d="M95.81,52.44c-.39,5.45-2.63,10.79-3,16.35a200.76,200.76,0,0,0-.12,22.08c.4,11.35,4.8,20.54-3.9,30-6,6.5-11.38,9-11.66,18.24s2.59,16.65,6.07,25.24c3.7,9.15,7,18.1,7.47,28,.32,6.33.14,12.72,1.09,19,.68,4.54,7.87,25,9.05,28.19,2.08,5.57,3.6,14.75,7.55,18.46"/><path class="cls-9" d="M111.43,84.71c-8.33,5-8,20.48-16.14,23.42"/><path class="cls-9" d="M74.47,81.06c-5.88,10.11,4.24,21.78,7.94,30,2.56,5.71.56,8,.9,13.69,0-3,.45-5.56-1.53-8.22s-7-4-9.73-5.66c-5.26-3.27-12.41-10.1-11.11-16.83"/><path class="cls-9" d="M116.63,108.13c-1.37,14.08-21.15,20.94-29.67,28.32-6.31,5.47-3.87,11.6-6.24,18.52"/><path class="cls-9" d="M85.4,169c-3.94-4.73-10.43-8.19-14.63-11.82-6.07-5.27-10.54-10.91-13.33-18.59-3.47-9.56-6.93-22.37-6.39-32.57"/><path class="cls-9" d="M88,176.83c-3.54-9.19-18.38-8.23-25.53-13.43-4.5-3.27-9.5-11.46-9.87-16.75"/><path class="cls-9" d="M46.37,171.11c.54,8.88,10.56,16.37,19,18.64,9.41,2.52,26.47,1.64,25.23,16.23-.37-10.21-20.28-5.89-27.11-7.81-4.2-1.17-8.67-1.77-12.33-4.28-3.36-2.3-3.88-4.84-6.37-7.69"/><path class="cls-9" d="M112,141.44c-8.48,7.74-8.65,16.73-11.44,26.84-1.94,7.05-6.16,11.27-9.38,16.88"/><path class="cls-9" d="M125,163.82c-11.66,9.15-13,25.24-17,38.28-1.85,6-5.91,11-12.1,13.25"/><path class="cls-9" d="M114,127.91c-.67,4-8.68,5.79-11.85,8.05a20.16,20.16,0,0,0-8.3,11.6c-1.4,4.55-1.57,9.23-2.77,13.66-.8,3-2.68,5.13-3.62,7.81"/><path class="cls-9" d="M80.2,75.86c0,10.26,3.61,17.76,7.25,27,2.35,6,2.12,7,2.12,13.58"/><path class="cls-11" d="M172.43,515a10.66,10.66,0,1,0-4.57-14.36A10.65,10.65,0,0,0,172.43,515Z"/><circle class="cls-12" cx="184.23" cy="523.83" r="13.52" transform="translate(-249.77 177.45) rotate(-32.03)"/><circle class="cls-11" cx="184.23" cy="547.27" r="13.52" transform="translate(-157.26 81.62) rotate(-17.65)"/><path class="cls-13" d="M195.33,549a13.52,13.52,0,1,0-5.79-18.21A13.52,13.52,0,0,0,195.33,549Z"/><path class="cls-13" d="M238.52,563.64a13.52,13.52,0,1,0-5.79-18.22A13.52,13.52,0,0,0,238.52,563.64Z"/><path class="cls-12" d="M209.22,567.19a13.52,13.52,0,1,0-5.8-18.22A13.51,13.51,0,0,0,209.22,567.19Z"/><path class="cls-11" d="M215.38,544.14a13.52,13.52,0,1,0-5.79-18.22A13.52,13.52,0,0,0,215.38,544.14Z"/><path class="cls-7" d="M322.23,607.72c-11.34-20.63-23.49-39.05-13.18-62.75,2.95-6.8,7-7.29,5.39-15.3-1.93-9.43-10.93-19.46-19.1-23.67-5.62-2.89-11.59-1.78-16.06-5.46-3.57-3-6.56-12.57-7.55-16.76-4-16.85-1.41-27.16-17.9-39.06-13.17-9.51-25.94-12.34-30.22-30.09-1.2,11.41-2.73,26.44-6.26,37.08-3.25,9.78-9.74,16.05-12.41,26.6-4.05,16,4.6,24.24,12.54,36.39,8.73,13.37,6.3,25.57,11.15,39.62,7.1,20.53,29.25,19.88,46.22,24.65,10.43,2.93,34.69,12.74,47.38,28.75"/><path class="cls-8" d="M224.29,419c1.87,5.14,2,10.93,3.89,16.18a203.72,203.72,0,0,0,8.91,20.2c5,10.19,12.78,16.79,8.7,29-2.79,8.38-6.72,12.83-3.19,21.41s9.17,14.15,15.85,20.56c7.12,6.84,13.75,13.68,18.26,22.51,2.88,5.65,5.33,11.55,8.75,16.89,2.48,3.87,17.41,19.63,19.78,22,4.18,4.24,9.31,12,14.43,13.77"/><path class="cls-9" d="M251.72,442.12c-5.54,8,1.1,21.95-5.16,28"/><path class="cls-9" d="M216.5,453.89C215.26,465.51,229.26,472,236,478.06c4.68,4.17,3.77,7,6.42,12.14-1.25-2.75-1.86-5.27-4.75-6.89s-8-.76-11.2-1.19c-6.14-.84-15.45-4.15-17-10.83"/><path class="cls-9" d="M266,461.37c4.5,13.42-10.75,27.76-15.51,38-3.53,7.58,1.2,12.18,1.86,19.46"/><path class="cls-9" d="M262.41,529.71c-5.53-2.7-12.87-3.2-18.18-4.81-7.7-2.33-14.08-5.65-19.76-11.52-7.07-7.31-15.47-17.59-19.14-27.12"/><path class="cls-9" d="M268,535.78c-7-6.95-20.13,0-28.79-1.83-5.44-1.15-13.34-6.59-15.84-11.27"/><path class="cls-9" d="M227.63,547.56c4.13,7.89,16.33,10.63,25,9.25,9.63-1.55,24.84-9.31,29.66,4.51-4.5-9.17-20.91,2.9-27.92,3.94-4.33.65-8.65,1.93-13,1.14-4-.73-5.52-2.84-8.95-4.42"/><path class="cls-9" d="M275.37,493.69c-4.57,10.52-1.06,18.8.53,29.17,1.1,7.23-1,12.8-1.67,19.24"/><path class="cls-9" d="M296.39,508.81c-6.91,13.11-1.58,28.36.07,41.9.77,6.23-.89,12.48-5.63,17"/><path class="cls-9" d="M271.74,480.49c1,3.94-5.55,8.84-7.52,12.19a20.15,20.15,0,0,0-2.85,14c.58,4.72,2.35,9.06,3.06,13.59.48,3-.35,5.78-.12,8.61"/><path class="cls-9" d="M219.6,446.8c4.23,9.35,10.55,14.74,17.66,21.71C241.85,473,242,474,244.74,480"/><path class="cls-14" d="M112.45,321.14c-12.09-13.73-24.41-25.65-20.6-45.36,1.09-5.65,4.11-6.71,1.5-12.52-3-6.82-11.57-12.9-18.48-14.72-4.75-1.24-9.09.61-13.1-1.43-3.21-1.63-7.11-8.42-8.56-11.43-5.86-12.11-5.66-20.36-20.17-26.61-11.61-5-21.77-5-28-17.71,1,8.86,2.4,20.51,1.52,29.18-.82,8-4.68,13.82-4.92,22.27-.36,12.84,7.59,17.61,15.66,25.48,8.88,8.67,9.1,18.33,15.15,28.16,8.85,14.38,25.54,10.14,39.22,10.89,8.4.46,28.46,3.8,40.79,13.8"/><path class="cls-15" d="M6.29,194.59c2.28,3.59,3.37,7.95,5.68,11.61A157.47,157.47,0,0,0,22.15,220c5.51,6.89,12.52,10.57,11.49,20.52-.7,6.83-2.93,10.87,1.2,16.78s9.35,9.18,15.5,12.92c6.55,4,12.73,8.05,17.65,14,3.14,3.8,6,7.87,9.49,11.34C80,298.07,94,307.5,96.2,308.93c3.88,2.51,9.09,7.52,13.27,8"/><path class="cls-16" d="M31,207.46c-2.85,7,4.53,16.46.81,22.08"/><path class="cls-16" d="M6.27,222.34c1,9,12.74,11.6,18.88,15,4.25,2.38,4.05,4.7,6.92,8.12-1.41-1.87-2.3-3.67-4.76-4.41s-6.23.78-8.7,1c-4.8.4-12.42-.53-14.73-5.34"/><path class="cls-16" d="M45.11,219.64c5.68,9.42-3.47,22.87-5.35,31.42-1.4,6.34,3,9,4.7,14.44"/><path class="cls-16" d="M53.9,272.09c-4.65-1.12-10.3-.26-14.6-.58-6.24-.47-11.63-1.9-16.93-5.4-6.6-4.35-14.71-10.73-19.1-17.34"/><path class="cls-16" d="M59.14,275.75c-6.47-4.09-15.27,3.39-22.14,3.47-4.32,0-11.24-2.74-13.92-5.87"/><path class="cls-16" d="M30.53,291.5c4.47,5.28,14.18,5.31,20.5,2.79,7-2.79,17.26-11.25,23.26-1.58-5-6.2-15.37,5.73-20.52,7.71-3.16,1.21-6.23,2.92-9.67,3.05-3.16.13-4.67-1.21-7.53-1.84"/><path class="cls-16" d="M57.64,242.58C56,251.33,60,257,63,264.61c2.06,5.3,1.39,9.89,2,14.88"/><path class="cls-16" d="M76.14,250.49c-3,11.11,3.59,21.78,7.13,31.77a15.35,15.35,0,0,1-1.39,13.87"/><path class="cls-16" d="M52.66,233.18c1.45,2.81-2.72,7.64-3.65,10.52a15.62,15.62,0,0,0,.21,11.08c1.24,3.48,3.31,6.48,4.62,9.79.87,2.23.7,4.45,1.36,6.55"/><path class="cls-16" d="M7.43,216.44c4.78,6.37,10.49,9.39,17.05,13.48,4.25,2.64,4.56,3.35,7.63,7.47"/><path class="cls-14" d="M290.17,593c-18.21,1.72-35.09,4.71-48.82-10-3.93-4.2-3-7.26-9.24-8.56-7.33-1.53-17.25,1.79-22.77,6.32-3.8,3.11-4.85,7.72-8.85,9.77-3.21,1.64-11,.8-14.28.21-13.25-2.36-19.81-7.37-33.38.72C142,598,136,606.23,122.05,603.81c7.76,4.38,18,10.1,24.51,15.9,6,5.34,8.44,11.9,15.14,17,10.18,7.84,18.71,4.2,29.82,2.29,12.23-2.1,20.18,3.4,31.69,4.27,16.84,1.27,23.21-14.73,31.84-25.36,5.31-6.53,19.79-20.81,35.12-24.92"/><path class="cls-15" d="M125.4,604.68c4.24.26,8.41,2,12.74,2.22a158.28,158.28,0,0,0,17.15-.12c8.82-.43,15.92-3.94,23.37,2.74,5.11,4.57,7.08,8.75,14.29,8.88s12.91-2.18,19.55-5c7.07-3,14-5.59,21.68-6.08,4.92-.31,9.89-.23,14.75-1,3.52-.58,19.36-6.36,21.82-7.31,4.31-1.67,11.42-2.94,14.27-6"/><path class="cls-16" d="M150.32,592.24c4,6.42,16,6,18.36,12.31"/><path class="cls-16" d="M147.85,621c7.91,4.47,16.88-3.5,23.26-6.46,4.42-2,6.18-.52,10.63-.83-2.34,0-4.33-.3-6.37,1.26s-3,5.5-4.31,7.62c-2.49,4.12-7.72,9.74-13,8.79"/><path class="cls-16" d="M168.47,588c11,.93,16.48,16.23,22.29,22.77,4.32,4.86,9.05,2.9,14.45,4.68"/><path class="cls-16" d="M216.09,611.64c-3.64,3.11-6.26,8.19-9,11.48-4,4.77-8.37,8.3-14.31,10.54-7.4,2.79-17.32,5.6-25.25,5.28"/><path class="cls-16" d="M222.13,609.54c-7.11,2.84-6.22,14.36-10.19,20-2.49,3.52-8.81,7.48-12.92,7.82"/><path class="cls-16" d="M218.08,642c6.9-.51,12.62-8.36,14.3-15,1.87-7.34,1-20.58,12.37-19.76-7.93.38-4.38,15.81-5.8,21.13-.88,3.28-1.29,6.76-3.21,9.63-1.76,2.63-3.72,3.06-5.91,5"/><path class="cls-16" d="M194.4,591.28c6.09,6.51,13.08,6.56,21,8.63,5.5,1.44,8.82,4.68,13.21,7.12"/><path class="cls-16" d="M211.66,581c7.22,9,19.74,9.88,29.9,12.87A15.35,15.35,0,0,1,252,603.1"/><path class="cls-16" d="M183.86,589.8c3.13.48,4.59,6.69,6.38,9.13a15.64,15.64,0,0,0,9.09,6.34c3.55,1,7.18,1.12,10.64,2,2.31.59,4,2,6.1,2.74"/><path class="cls-16" d="M143.75,616.59c8-.13,13.77-3,20.93-5.9,4.63-1.88,5.38-1.72,10.52-1.78"/><path class="cls-14" d="M410.94,599.3c-16.89,7-32.15,14.83-49.58,4.86-5-2.86-5-6-11.36-5.46-7.44.69-15.95,6.79-19.89,12.74-2.72,4.09-2.36,8.8-5.59,11.94-2.58,2.51-10.26,4-13.58,4.41-13.35,1.64-21.1-1.21-31.69,10.51-8.47,9.37-11.73,19-25.8,20.79,8.71,1.9,20.18,4.35,28.11,8,7.27,3.34,11.56,8.89,19.48,11.84,12,4.49,19.12-1.5,29.18-6.59,11.06-5.61,20.28-2.7,31.54-5.26,16.47-3.74,17.84-20.9,23-33.6,3.14-7.81,12.77-25.71,26.21-34.16"/><path class="cls-15" d="M256.91,658.94c4.13-1,8.61-.62,12.82-1.63a157.71,157.71,0,0,0,16.37-5.17c8.29-3,14-8.44,23.13-4.26,6.23,2.87,9.34,6.28,16.27,4.28s11.7-5.88,17.22-10.5c5.89-4.92,11.73-9.46,18.94-12.19,4.6-1.75,9.37-3.13,13.79-5.33,3.2-1.58,16.63-11.77,18.69-13.4,3.63-2.87,10.06-6.18,11.87-10"/><path class="cls-16" d="M277.06,639.71c5.72,5,17.05,1,21.17,6.36"/><path class="cls-16" d="M283.16,667.91c8.88,2,15.1-8.31,20.33-13,3.62-3.25,5.75-2.31,9.92-3.92-2.23.73-4.23,1-5.72,3.08s-1.27,6.14-1.87,8.55c-1.17,4.67-4.52,11.58-9.81,12.22"/><path class="cls-16" d="M293.15,630.29c10.74-2.34,20.52,10.66,28,15.2,5.55,3.37,9.5.1,15.19.21"/><path class="cls-16" d="M345.63,638.89c-2.56,4-3.57,9.67-5.27,13.63a33.85,33.85,0,0,1-10.57,14.29c-6.24,4.84-14.9,10.45-22.57,12.48"/><path class="cls-16" d="M350.78,635.1c-6,4.81-1.71,15.55-3.86,22.09-1.34,4.1-6.22,9.75-10,11.28"/><path class="cls-16" d="M356.46,667.27c6.44-2.52,9.6-11.71,9.26-18.5-.38-7.57-5.09-20,6-22.53-7.47,2.71.47,16.4.68,21.91.13,3.39.75,6.84-.23,10.14-.91,3-2.66,4-4.18,6.54"/><path class="cls-16" d="M318.9,625.82c7.74,4.43,14.43,2.42,22.58,2.07,5.68-.24,9.8,1.88,14.72,2.92"/><path class="cls-16" d="M332.36,610.87c9.54,6.45,21.77,3.63,32.37,3.5a15.36,15.36,0,0,1,12.68,5.79"/><path class="cls-16" d="M308.4,627.5c3.13-.46,6.35,5,8.78,6.85a15.59,15.59,0,0,0,10.55,3.38c3.7-.05,7.2-1,10.76-1.21,2.39-.11,4.43.77,6.64.83"/><path class="cls-16" d="M278,664.92c7.58-2.48,12.28-6.9,18.27-11.8,3.87-3.16,4.64-3.23,9.53-4.8"/><path class="cls-14" d="M146.28,442.28c3.2-18,4.83-35.08,22.62-44.4,5.1-2.67,7.81-1,10.72-6.62,3.43-6.65,2.87-17.1,0-23.63-2-4.49-6.15-6.73-7-11.14-.73-3.52,2.15-10.8,3.6-13.82,5.81-12.13,12.39-17.12,8.21-32.36-3.33-12.18-9.68-20.12-3.62-32.93-6.29,6.31-14.53,14.66-21.86,19.38-6.74,4.33-13.72,5-20.47,10-10.27,7.73-9,16.92-10.16,28.13-1.23,12.35-8.65,18.55-12.57,29.41-5.71,15.89,8,26.29,15.95,37.45,4.88,6.85,14.78,24.61,14.65,40.49"/><path class="cls-15" d="M179,280.37c-1.37,4-4.11,7.59-5.53,11.69A156.82,156.82,0,0,0,169,308.63c-2,8.6-.46,16.38-8.88,21.78-5.77,3.71-10.32,4.49-12.37,11.4s-1.34,13-.43,20.17c1,7.61,1.65,15,.08,22.52-1,4.82-2.41,9.59-2.95,14.49-.38,3.55,1,20.35,1.23,23,.46,4.6-.21,11.8,2,15.37"/><path class="cls-16" d="M184.35,307.71c-7.26,2.15-10,13.82-16.76,14.41"/><path class="cls-16" d="M157.31,297.66c-6.43,6.43-1.13,17.2,0,24.14.8,4.8-1.15,6.09-2,10.47.59-2.27,1.44-4.09.48-6.48s-4.49-4.38-6.19-6.18c-3.31-3.5-7.33-10-5-14.85"/><path class="cls-16" d="M183.63,326.34c-3.82,10.31-20,11.55-27.9,15.41-5.83,2.86-5.21,7.95-8.35,12.68"/><path class="cls-16" d="M148.12,365.92c-2-4.33-6.23-8.21-8.66-11.78a33.86,33.86,0,0,1-6.34-16.6c-.72-7.87-.78-18.18,1.64-25.74"/><path class="cls-16" d="M148.53,372.3c-.84-7.61-12.18-9.82-16.53-15.14-2.73-3.35-4.86-10.49-4.1-14.54"/><path class="cls-16" d="M118.37,359.76c-1.35,6.79,4.7,14.4,10.6,17.77,6.58,3.75,19.56,6.47,15.75,17.19,1.74-7.75-14.07-8.44-18.83-11.23-2.92-1.72-6.17-3.05-8.42-5.66-2.07-2.39-2-4.4-3.26-7"/><path class="cls-16" d="M173.52,350.44c-7.9,4.14-9.81,10.86-13.91,17.91-2.85,4.91-6.85,7.25-10.38,10.83"/><path class="cls-16" d="M178.87,369.84c-10.58,4.56-14.79,16.38-20.38,25.38a15.35,15.35,0,0,1-11.72,7.57"/><path class="cls-16" d="M177.76,340.69c-1.29,2.88-7.67,2.63-10.5,3.7a15.63,15.63,0,0,0-8.53,7.08c-1.95,3.14-3,6.62-4.78,9.71-1.19,2.08-3,3.33-4.27,5.15"/><path class="cls-16" d="M162.64,294.88c-2,7.72-.8,14.06.1,21.75.58,5,.22,5.64-1.09,10.61"/><circle class="cls-12" cx="111.43" cy="240.08" r="11.33"/><circle class="cls-13" cx="108.31" cy="258.03" r="11.33"/><circle class="cls-13" cx="114.03" cy="295.84" r="11.33"/><circle class="cls-12" cx="100.1" cy="275.38" r="11.33"/><circle class="cls-11" cx="119.64" cy="271.1" r="11.33"/><path class="cls-17" d="M522.88,177c0,4-10.67,39.11-8.64,71.91,6.91.38,18.34,0,25.28-.2a174.23,174.23,0,0,0-4.35-46.4A59.2,59.2,0,0,0,522.88,177Z"/><path class="cls-18" d="M315.61,369.54c-11.68,19.58-55.43,152.6-56.84,158.69-1.71,7.38-5.06,14.53-5.67,22.13-.46,5.65-.54,10.22,4.41,13.46,7.16,4.68,18.35,6.33,26.62,7.15,5.65.56,6.79.63,10.13-4.63,4.3-6.77,6.66-15.56,9.47-23.07,5.48-14.68,49.49-108.11,55-124.81,4.3-13.09-16.86,3.6-12.2-9.4,1.15-3.21,3.26-6.33,3-9.81-.69-7.81-9.67-17.64-13.55-24.51"/><circle class="cls-13" cx="812.8" cy="246.16" r="11.33"/><path class="cls-18" d="M583.15,349.56c9.6,6.24,92.12,102.18,98.62,97.32C684,445.25,730.3,344.48,747,312.27c3.18-6.14,5.76-14.18,12.69-14.67,4.8-.34,12.84,5.59,15.08,9C784.89,322,702.47,519,682.55,512.48c-16.14-5.32-34.69-20.5-47.92-31.85C617.53,466,600,451.15,582.5,436.82c-11.12-9.09-22.83-18.19-31.89-29.12-2.47-3-6.44-7.28-6.74-10.75-.44-5.13,4.79-19.58,8.44-23.64"/><path class="cls-19" d="M743.51,297c-.41-6-2-12-2.38-18.15-.2-3.39-.18-6.76-.62-10.07-.56-4.26-1.54-9.42,0-13.48a77,77,0,0,1,4.93-10c2-3.61,5.75-5.75,8.3-9,1.87-2.39,2.15-2.11,5.65-2.82,5-1,10.39-2.55,15.46-2.67-.2,1.17-1.2,2.12-2,3-2.83,3.42-5.79,6.66-8.37,10.29-2.34,3.3-4.33,6.82-6.51,10.22-.86,1.33-2.09,2.67-2.45,4.2"/><path class="cls-18" d="M762.65,317.82c30.19,1.8,44.36-37.82,48-63.8.41-3-6.71-2.72-8.64-.44-6.85,8.07-6.61,18.33-15.92,24.42-26.2,13.66-12.61-18.07-.39-24,7.75-3.74,19.79-11.17,31-18.07,3.11-1.91,3-3.9,2.58-7.52-.54-4.52-7.86-1.35-8.17-1.94,0,0,10.11-9.85-.43-9.68-14.67.25-46,14.21-50.68,20.39-5.75,7.59-17,21.91-18.15,30.8-2.2,16.75,5,44.31,6,51.27C750.52,319.41,752.68,320.54,762.65,317.82Z"/><path class="cls-19" d="M808,228c-5.56,4.12-13,7.49-19.32,10.58-4.55,2.24-10,4.54-14,7.72-2.55,2-4.64,5.46-6.4,8.32-2.18,3.53-4.68,6.85-6.94,10.32-.2-5.58,4.12-12.39,6.86-17a14.61,14.61,0,0,1,6.08-6c5.7-3.14,11.92-5.43,17.76-8.35a49.67,49.67,0,0,1,7.4-3.44C801.66,229.45,804.07,228.85,808,228Z"/><path class="cls-20" d="M410.05,315c-4.94-.41-8.89,2.29-13.46,3.63-8.54,2.5-17,4.62-25.55,7.4-6.74,2.19-14.1,4-20.38,6.49-10.94,4.28-15,12.9-24,20.31-5.11,4.24-11.71,9.49-12.91,16.42-1,5.53,5.47,12.62,8,18.12,3.22,7,5.68,14,8.65,21.08,4.21,10,8.26,20.21,12.16,30.38,5.33,13.88,13.89,26.36,19,40.35,7,19,9.56,40,9.52,60.12,0,8.58-3.22,24.42,2.35,31,6.72,7.93,24.9,9.51,35,7.87,10.54-1.71,20.62-3.49,31.23-4.6,13.14-1.38,23.94.54,36.59,4.41,17.69,5.41,39.06,6.63,56.63-.13,20.6-7.93,15.65-29.09,15.11-48.34-1.77-63.5,33.45-120.54,51.88-178.33-12.73-10.62-32.67-16.91-47.47-23.67A82.62,82.62,0,0,0,528.25,320c-9.82-1.48-19.88-3.28-30-4-11.53-.77-24.9-3-36.44-2.22"/><path class="cls-21" d="M371.21,178.18c-17.73-2-39.68,23.08-43.68,39.34-3,12.16-3,26.77,1.14,38.38C340.48,289.37,394,305.68,427,300c34.7-5.92,50.3-30.67,54.76-63.24,1.7-12.38,6-47.53-6.28-55.18-11.3-7-29.81,3.31-41.85-6.56"/><path class="cls-19" d="M430.08,236.64c1.07,14.63,4.76,37.35,1.11,51.61-1.82,7.09-9.91,23.36-23.61,27.43-9.65,2.87.61,14.63,2.47,17.07,15,19.7,73.87,17.93,80.32,13.91,10.5-6.56,23.59-8.47,27.11-28.37-13.32-5.65-28.93-13.33-33.22-28.92-4.72-17.21.37-35-.09-52.73-6.19,1.62-11.32,4.76-18.09,5.54C453.25,243.67,444.11,232.19,430.08,236.64Z"/><path class="cls-18" d="M366.67,112c4.07,44.48,14.17,107.05,53.39,134.4,19.06,13.29,51.1,19.45,70.31,3.44,30.56-25.47,49.41-83.57,49.68-122.15.37-53.42-13.34-86.85-71.17-93.11-17.93-1.93-43.54-5.09-60.82,1.28-9.33,3.44-16.7,10.37-24.09,16.36a36.2,36.2,0,0,0-12.38,19.9C369,83.12,365.27,94.89,366.67,112Z"/><path class="cls-21" d="M428.41,79.67c12.92,11.66,21.5,27.39,39.63,30.22,13,2,26.54,1.85,39.66,3.08,12.29,1.15,25.66,11.26,37.93,9.25,19.53-3.2-9.24-23.07-15.62-26.89-13.1-7.82-25.74-14.33-41.18-15.6-14.4-1.18-29.29-.06-43.74-.06"/><path class="cls-17" d="M375,172c-.05,4-10.67,39.11-8.64,71.92,6.91.37,18.34,0,25.27-.21a174.23,174.23,0,0,0-4.34-46.4A59.26,59.26,0,0,0,375,172Z"/><path class="cls-21" d="M410.05,79.67c-8,20.1-26.85,32.81-29.29,55-.78,7.15.09,14.92.09,22.13,0,8-2.23,14.48-2.61,22a31.4,31.4,0,0,1-3,.94c-9.84-13.1-14.76-38.35-16-54.52-.64-8.06-1.47-18.38,3.26-25.13,5.29-7.55,19.14-16.57,27.57-19.6"/><path class="cls-20" d="M356.65,130.56c-1-16.43,25.5-31.9,38.3-37.29,20.37-8.58,48-7.67,69.71-5.61,18.44,1.74,38,2.59,54.87,10.31,13.37,6.11,23.55,16.4,35.62,23.23-.75-12.28,1.83-25.07.91-37.61-.88-12-8-18.91-12.39-29.15-3.34-7.87-2.47-16.5-6.78-24.65-7.06-13.36-21.37-20.48-35.38-24.36-26.23-7.26-61.39-6.7-88.37-1.5-11,2.12-24.15,5.34-33.54,11.66-12.86,8.65-12.24,18.63-15.44,32.25-2.54,10.8-11,19.82-13.42,31.33C347.05,96.42,348.76,110.57,356.65,130.56Z"/><path class="cls-22" d="M363.33,89.68c7.05-15.5,36.2-24,51.75-26.11,17.45-2.41,35.09-1.18,52.57-2.4-16-15.21-57.51-10.46-75.93-3.4C379.61,62.41,360.33,75.63,363.33,89.68Z"/><path class="cls-22" d="M473.46,78c22.13,0,47.88,3.93,66.59,16.66C540.54,75.6,487.61,66.5,473.46,78Z"/><path class="cls-22" d="M361.88,115.39c2.45,12.64.24,26.88.72,39.88.31,8.44,2.43,16.43,2.63,24.74.28,11.21,1.09,25.21-13.47,17.48-3.7-2-6.77-7.29-10.89-8.22-.49-.11-5.54,1.41-6.38,1.48-5.42.5-8.67,1.57-14.34-.18-27-8.37-6-33.33.24-46.23"/><path class="cls-20" d="M364,97.77c-17-9.33-33-9.73-51.94-5.54a259.79,259.79,0,0,0-64.72,23.59c3.63,8.31,9.08,6.1,6.82,16.5-2.58,11.86-6.29,13.37,6.1,19.83-1.72,4-1,8.13-1.18,12.38,6.21,8.48,13.8,13.64,19,22.35,8.79,14.71,31.88,20.66,42.13,4.76,12.47-19.33,14.62-43.4,29.09-61.89C355.35,122,367.12,113.06,364,97.77Z"/><path class="cls-22" d="M348.23,108.64c-22.13-3.08-41.6,39.83-44.08,56.87,9.62-5.23,18.53-16.55,26.23-24.34,6.37-6.44,15-13.6,19.18-21.67C351.32,116.12,351,112.7,348.23,108.64Z"/><path class="cls-21" d="M553.56,116.8c0,15-1.31,28.62-7.52,42.33-3.47,7.65-8.21,14-13.06,20.66-1.93,2.67-3.43,5.37-6.15,6.94,0-5.88,3.32-12.35,4.64-18a125.64,125.64,0,0,0,3.32-29.12c0-7.68-2.3-16-1.63-23.56,1-.19,1.59-.77,2.46-.87"/><path class="cls-21" d="M404.79,146.3c3,5.37,12,5.59,17.87,5.59,6.65,0,10.36-2.34,15.06-6.16,1.77,8.26-10.38,12.15-16.49,12C414.55,157.47,403.45,155,404.79,146.3Z"/><path class="cls-19" d="M465.54,149.54c0,14.25-.31,37.6-.89,51.84C483.27,190.32,468.54,147.56,465.54,149.54Z"/><path class="cls-23" d="M438.71,218c1.65.72,3.3,3.06,4.34,4.5a35.94,35.94,0,0,0,3.07,4.21,23.25,23.25,0,0,0,3.93,3.42c3.37,2.15,7.09,2.53,11.06,2.54,5,0,10.61.73,15.48-.6,4.36-1.2,6.32-4.33,8.28-8,1.14-2.14,3.38-3.23,4.59-5.3-3.59-.3-7.46.3-11.08.44-2.32.08-4.65,0-7,0a64.18,64.18,0,0,1-9.3-.34c-1.65-.24-3.36-.77-5-.87"/><path class="cls-19" d="M455.78,211.19c-2.86.72-6.3,4.11-9,5.1-2.95,1.07-5.81,1.11-8.85,1.29,8.63,3.71,23.73,4.76,29.55,4.91a85.92,85.92,0,0,0,13.22-.84c3.6-.63,7.57-1.68,9-2.79-1.44-.51-3.1-.22-4.54-.67a32.78,32.78,0,0,1-3.2-1c-2.19-1-3-2.88-4.5-4.33-2.69-2.57-8.3.5-11.18,1C464.51,214.11,458.34,210.55,455.78,211.19Z"/><path class="cls-19" d="M437.86,125.28c-4.64-4.66-15.88-3.07-21.76-2.23-6.2.88-12.42,2.26-18.48,3.36,7.58-6,17.33-8.14,26.73-8.78,4.33-.3,10.74-1.3,14.35,1.64C439.81,120.18,442,124.93,437.86,125.28Z"/><path class="cls-21" d="M517.37,146.3c-3,5.37-12,5.59-17.87,5.59-6.65,0-10.37-2.34-15.06-6.16-1.78,8.26,10.37,12.15,16.49,12C507.61,157.47,518.7,155,517.37,146.3Z"/><path class="cls-19" d="M484.29,125.28c4.65-4.66,15.89-3.07,21.77-2.23,6.19.88,12.41,2.26,18.47,3.36-7.57-6-17.33-8.14-26.72-8.78-4.33-.3-10.75-1.3-14.36,1.64C482.34,120.18,480.19,124.93,484.29,125.28Z"/><path class="cls-24" d="M416.19,311.15c3,16,16.45,43,24.91,53,8.19,9.67,25.13,14.53,37.63,11.23,26.92-7.11,26.51-42.29,26.51-64.28"/><circle class="cls-11" cx="458.28" cy="541.35" r="11.33"/><circle class="cls-11" cx="435.61" cy="560.93" r="11.33"/><circle class="cls-13" cx="473.9" cy="552.69" r="11.33"/><circle class="cls-13" cx="428.41" cy="542.13" r="11.33" transform="translate(-174.85 205.21) rotate(-22.5)"/><circle class="cls-12" cx="444.04" cy="549.6" r="11.33"/><circle class="cls-12" cx="410.93" cy="549.6" r="11.33"/><circle class="cls-13" cx="397.62" cy="556.37" r="11.33"/><circle class="cls-13" cx="439.74" cy="515.6" r="11.33"/><circle class="cls-11" cx="481.89" cy="521" r="11.33"/><circle class="cls-12" cx="497.42" cy="533.2" r="11.33"/><circle class="cls-12" cx="458.28" cy="521" r="11.33"/><circle class="cls-12" cx="378.96" cy="546.94" r="11.33" transform="translate(-221.62 833.39) rotate(-80.78)"/><circle class="cls-12" cx="378.96" cy="546.94" r="11.33" transform="translate(-221.62 833.39) rotate(-80.78)"/><circle class="cls-12" cx="424.28" cy="530.02" r="11.33"/><circle class="cls-12" cx="351.68" cy="545.04" r="11.33"/><circle class="cls-12" cx="522.44" cy="522.37" r="11.33"/><circle class="cls-12" cx="567.6" cy="533.7" r="11.33"/><circle class="cls-12" cx="590.26" cy="543.67" r="11.33"/><circle class="cls-13" cx="505.24" cy="553.46" r="11.33"/><circle class="cls-12" cx="520.08" cy="546.94" r="11.33" transform="translate(-103.1 972.7) rotate(-80.78)"/><circle class="cls-12" cx="539.68" cy="553.46" r="11.33"/><circle class="cls-11" cx="490.37" cy="549.6" r="11.33"/><circle class="cls-13" cx="475.42" cy="535.61" r="11.33"/><circle class="cls-11" cx="515.64" cy="534.54" r="11.33"/><circle class="cls-11" cx="547.46" cy="532.34" r="11.33"/><circle class="cls-11" cx="578.93" cy="546.94" r="11.33" transform="translate(-217.18 569.56) rotate(-45)"/><circle class="cls-11" cx="394.09" cy="538.26" r="11.33"/><circle class="cls-11" cx="378.96" cy="560.93" r="11.33"/><circle class="cls-11" cx="363.02" cy="551.5" r="11.33"/><circle class="cls-11" cx="440.23" cy="533.2" r="11.33"/><circle class="cls-11" cx="458.28" cy="558.27" r="11.33" transform="translate(-178.76 217.87) rotate(-22.5)"/><circle class="cls-13" cx="532.51" cy="538.42" r="11.33" transform="translate(-165.51 244.77) rotate(-22.5)"/><circle class="cls-13" cx="556.26" cy="545.04" r="11.33"/><circle class="cls-13" cx="421.28" cy="564.02" r="11.33"/><path class="cls-17" d="M341.46,552c61.09,8.06,125.24,5.44,186.69,2.3,14.79-.75,29.71-.92,44.29-3.24,7.12-1.14,15-2.89,22.15-2.84,7.93,0,12.15,4.37,13.75,11.36,3,13.26,1.06,28.67,1,42.17-.05,14.36-2.28,30.61-7.09,44.36-7,20.19-18,34.41-40.15,42.65-33,12.26-70.72,8-105.68,8-34.77,0-81.29,1.7-104.77-25.55-18.54-21.51-27.91-46.1-28.24-73.23C323.23,582.51,324.36,561.82,341.46,552Z"/><path class="cls-18" d="M264.3,510.66c9.25.28,7.55,47.08,16.28,50,13.81,4.61,28,8.47,41.56,13.63,20.13,7.61,96.61,32,99.14,36.24,1.44,2.43.11,17.5.09,21.34-.09,13-103.11-11.18-113.67-12.64a167,167,0,0,1-35.38-9.07c-7.29-2.74-18.74-5.56-24.55-11-5.47-5.16-4-16.66-4-23.85C243.77,566.16,259.79,516.42,264.3,510.66Z"/><path class="cls-19" d="M406.44,606.49c12.31-7.41,21.68-19.12,35.72-24.3,3.07-1.13,13.19-3.48,10.72,2.49-.62,1.5-3.26,3.35-4.46,4.49a78.33,78.33,0,0,0-6.84,7.75c-2.39,2.92-4.41,7-7.28,9.58-2.55,2.25-4.82,1.49-8.37,2.2"/><path class="cls-18" d="M398,610.52C409,606,410.11,596.36,422.42,596c11.91-.39,23.08-.29,35,0,8.78.2,14.58,1.65,23.3,2.62,5,.56,17.78,4.25,21.34,7.81,5.73,5.73-10.54,3.91-14.57,3.64-20-1.3-26.29-1.3-38.63.52,7.06,1.79,65.19-1.39,65.89,7,.8,9.63-55.65,8.07-62.79,8.07,10.9-.66,22.32,1,33.35,1,4.09,0,17.11-2.24,20.09.24,5.22,4.36-2.78,8.38-6.28,9-13.4,2.46-28.05,2.78-41.67,2.69a211.59,211.59,0,0,0,26.81,2.62c3.1.1,6.24-.29,9.07.6,1.57,11.76-51.63,7.27-57.75,7.22C421.7,649,411.33,643.54,399,635.7,387.54,628.41,391.71,625.53,398,610.52Z"/></g></g></g></svg>