<svg xmlns="http://www.w3.org/2000/svg" viewBox="0 0 100.8 131.9"><defs><style>.cls-1,.cls-3,.cls-4,.cls-6{fill:none;stroke-linecap:round;stroke-linejoin:round;}.cls-1{stroke:#608e6d;stroke-width:1.33px;}.cls-2{fill:#608e6d;}.cls-3{stroke:#2d4c35;}.cls-3,.cls-4{stroke-width:0.44px;}.cls-4{stroke:#76b285;}.cls-5{fill:#f04d43;}.cls-6{stroke:#f9e3d5;stroke-width:0.3px;}</style></defs><g id="Layer_2" data-name="Layer 2"><g id="OBJECTS"><path class="cls-1" d="M68.71,23.73C68.88,33.82,63,43,58.91,52.39,54.49,62.46,52,73.13,49.52,83.74a144.31,144.31,0,0,0-3.15,16.41,70.88,70.88,0,0,0,1.21,23.14c.13.6-.34,1.17,0,1.68-2.68-4-3.3-8.88-3.22-13.57s.81-9.38.54-14.06c-.48-8.34-4.07-16.63-2.4-24.83,1-4.88,3.81-9.56,3.28-14.5-.43-3.87-2.87-7.29-4.08-11-2.35-7.33.24-15.15,2.81-22.42"/><path class="cls-1" d="M26.13,90.72c1.68,3.46,2.32,7.26,3.55,10.87,3,8.9,9.52,16.42,15.88,23.71"/><path class="cls-1" d="M29,55.18c-1.84,4.89-.28,10.25,1.45,15.17,3.52,10,8.31,20.46,18,26.15"/><path class="cls-1" d="M86.69,16.86c1.84,7.14-.51,14.65-3.89,21.3S75,51,72.25,57.92a37.8,37.8,0,0,1-3.15,7.17,9.47,9.47,0,0,1-6.55,4.47"/><path class="cls-2" d="M47.05,94.59c0-.39-.41-.6-.78-.7a11.82,11.82,0,0,1-2.09-.83,21.68,21.68,0,0,1-3.73-2.61c-2.29-1.89-4.7-4-7.86-4.52a7.55,7.55,0,0,0-4.11.4c0-.32,0-.63-.08-.94a10.3,10.3,0,0,0-1-3.72,7.81,7.81,0,0,0-2.51-2.61c-.59-.42-1.2-.81-1.82-1.19q-.37-.24-.78-.45a9.23,9.23,0,0,0,1.89.17,9.47,9.47,0,0,0,4.43-1.23,24.11,24.11,0,0,0,3.94-2.9.46.46,0,0,0,.42-.08c3.31-2.49,6.28-5.74,6.65-9.79a9.14,9.14,0,0,0,0-1.48,2.68,2.68,0,0,0-.33-1.33.89.89,0,0,0-.56-.36,1.47,1.47,0,0,0-.94.21q-.69.33-1.35.69a12.31,12.31,0,0,0-4.54,3.73,6.24,6.24,0,0,0-1.08,3.61,42.61,42.61,0,0,0-5.25-5.59,18.53,18.53,0,0,0-8-4.14,13.07,13.07,0,0,0-5.1-.14.35.35,0,0,0-.23.52q1.08,1.63,2.19,3.24a19.45,19.45,0,0,0,2,2.61,6.62,6.62,0,0,0,2.76,1.76,17.88,17.88,0,0,0,1.93.41l2.07.37.32.06-.41.09c-1.49.35-2.9.91-4.36,1.36a11,11,0,0,1-5.28.56c-.32-.07-.61.24-.44.51a16.25,16.25,0,0,0,6.51,6.27,10.86,10.86,0,0,0,1.07.43.32.32,0,0,0-.12.37,12.66,12.66,0,0,1,.56,5,16.41,16.41,0,0,0,.31,4.69v0c-.55-.62-1.07-1.26-1.57-1.91A15.07,15.07,0,0,0,17.94,83c-2.87-2.48-7.2-2.54-10.79-1.55A43.23,43.23,0,0,0,.68,84.07.42.42,0,0,0,.19,84a.33.33,0,0,0-.13.48,26.52,26.52,0,0,0,8.07,7.29,16.22,16.22,0,0,0,11.2,1.84c2.13-.48,4.16-1.59,6.41-1.49a.32.32,0,0,0,.36-.25.38.38,0,0,0,.23-.15.37.37,0,0,0,.05-.17,5.08,5.08,0,0,0,1.7-2.3,6.27,6.27,0,0,0,.29-1c.36.49.71,1,1,1.5A21,21,0,0,1,30.67,92a22.43,22.43,0,0,0,2.39,4.41,8.06,8.06,0,0,0,4.33,2.85A8.41,8.41,0,0,0,42.66,99a7.53,7.53,0,0,0,4-3.67.28.28,0,0,0,0-.12A.63.63,0,0,0,47.05,94.59Z"/><path class="cls-2" d="M49.6,10a10.3,10.3,0,0,0-2.48-5.32C45.71,3.16,43.67,2.26,42.26.74a6.26,6.26,0,0,1-.45-.57.42.42,0,0,0-.67,0A42.53,42.53,0,0,0,38,7.27a14.52,14.52,0,0,0-.49,6.83,8,8,0,0,0-2.21-1.58c-2.79-1.31-6.06-1-9.09-1.16a13,13,0,0,1-4.91-1,.39.39,0,0,0-.57.4,18.16,18.16,0,0,0,2,4.81A8.44,8.44,0,0,0,26.88,19l.34.12-.79.19a39.74,39.74,0,0,0-5.13,1.87.35.35,0,0,0-.08.56c2.5,2.82,5.1,5.74,8.71,7.41a12.82,12.82,0,0,0,5.6,1.26,10.46,10.46,0,0,0,4.86-1.33,9.31,9.31,0,0,0,3.79-3.8.35.35,0,0,0,0-.3,10.71,10.71,0,0,0,3.42-3.64,16,16,0,0,0,1.9-5.4A17.54,17.54,0,0,0,49.6,10ZM43.18,23.94A26,26,0,0,0,40,22c-1.37-.72-2.78-1.39-4.2-2l-.38-.16a13.12,13.12,0,0,1,4.29.7A5.42,5.42,0,0,1,43.18,23.94Z"/><path class="cls-2" d="M65.49,32.09a1.12,1.12,0,0,0-.48-.55L63.28,29.1c-.58-.82-1.15-1.65-1.76-2.46a12.38,12.38,0,0,0-1.86-2,7.54,7.54,0,0,0-2.35-1.32,8.31,8.31,0,0,0-5.17-.1,8.1,8.1,0,0,0-2.46,1.27c-.76.56-1.44,1.21-2.15,1.82a13.84,13.84,0,0,1-5.67,3,.35.35,0,0,0-.23.52c1.95,2.73,5.3,4.25,8.69,5a28.54,28.54,0,0,0,5.76.63,21.44,21.44,0,0,0,6.08-.76c.55-.16,1.09-.35,1.62-.56a4.55,4.55,0,0,0,1.34-.72A1.13,1.13,0,0,0,65.49,32.09Z"/><path class="cls-2" d="M93,29.57a11,11,0,0,0,1.88-.65,10.22,10.22,0,0,0,5.13-5,9.14,9.14,0,0,0,.84-3.8c0-.25-.25-.37-.49-.34a25.69,25.69,0,0,0-7.13,1.63,9.65,9.65,0,0,0-4.79,4.39,9.33,9.33,0,0,0-.66,1.73A12.11,12.11,0,0,0,87.17,26a13.16,13.16,0,0,0-2.78-4,12,12,0,0,0-.92-.82,9.25,9.25,0,0,1,1.65-.32.4.4,0,0,0,.37-.26.3.3,0,0,0,0-.1,5.57,5.57,0,0,0,1.63,0,12.78,12.78,0,0,0,5.3-.95,12.22,12.22,0,0,0,3.17-1.91,10.72,10.72,0,0,0,2.44-3c.85-1.51,1.49-3.13,2.19-4.71.11-.26-.22-.48-.48-.43-3.05.63-6.73-.33-9.53,1.07a23.79,23.79,0,0,0,.22-5.13c-.08-1.39-.23-2.77-.38-4.15a.4.4,0,0,0-.72-.18c-.94,1.21-1.91,2.4-2.82,3.63a8.82,8.82,0,0,0-1.83,3.7c0,.22-.06.45-.07.67a23.11,23.11,0,0,1-1.69-2.82A15.37,15.37,0,0,1,82,2.37a.4.4,0,0,0-.66-.25,9.17,9.17,0,0,0-3.19,8.74,16.48,16.48,0,0,0,1.66,5,10,10,0,0,0,2.66,3.39A13.49,13.49,0,0,0,78.61,19a13.33,13.33,0,0,0-6.42,2.1l-.44.31a13,13,0,0,0,1.44-3.34,12.53,12.53,0,0,0-.39-7.77,13.77,13.77,0,0,0-2.35-3.94.4.4,0,0,0-.54,0c-1.7,2-3.45,4.07-4.28,6.52a10.92,10.92,0,0,0,.43,7.34c-.58-.82-1.16-1.63-1.77-2.43A19.33,19.33,0,0,0,61.72,15a20.71,20.71,0,0,0-3.07-2.13c-1.22-.72-2.5-1.35-3.78-2a.39.39,0,0,0-.57.4,21.88,21.88,0,0,0,3.12,8,12.81,12.81,0,0,0,6.72,5,10.37,10.37,0,0,0,4.18.41.47.47,0,0,0,.06.09A7.78,7.78,0,0,0,71.11,27a3.69,3.69,0,0,0,1.83.27,4.65,4.65,0,0,0,1.85-.68,14.78,14.78,0,0,0,1.57-1.16c.5-.4,1-.8,1.51-1.18.27-.21.55-.41.83-.61a10.19,10.19,0,0,0,5.61,5.86,6.52,6.52,0,0,0,2.46.54,6.27,6.27,0,0,0,2.78,3.8,11.2,11.2,0,0,0,6.07,1.66,29.27,29.27,0,0,0,4-.23c.26,0,.52-.29.34-.53A16.57,16.57,0,0,0,93,29.57Z"/><path class="cls-2" d="M82.59,77.88c-.56-3.47-1.6-7-4.28-9.68a11.3,11.3,0,0,0-4.65-2.7A23.76,23.76,0,0,0,70,64.69a9.37,9.37,0,0,0-1.75-5.28,10.13,10.13,0,0,0-2.06-2.13A5.52,5.52,0,0,0,63.1,56c-1.28-.07-2.56.34-3.84.13-.31-2.19-.94-4.43-2.88-5.88a17.77,17.77,0,0,0-3.77-1.9,20.81,20.81,0,0,1-3.75-2,18.25,18.25,0,0,1-3.5-3.17c-.22-.26-.65,0-.66.25-.14,3.22-.21,6.63,1.26,9.63a9,9,0,0,0,2.43,3c-2.58-.65-5.5-.18-8.09.22l-.75.11.56-.33a13.34,13.34,0,0,0,2.17-1.7c.16-.15.32-.31.46-.47a2.65,2.65,0,0,0,.47-.59.69.69,0,0,0,0-.72,1.7,1.7,0,0,0-.55-.44,10.16,10.16,0,0,0-5.72-1.62,7.23,7.23,0,0,0-4,1.42,32,32,0,0,0,.34-5.42A12.16,12.16,0,0,0,33,43.38a13.17,13.17,0,0,0,1.48-.93,11.16,11.16,0,0,0,3.67-4.53l.11,0a.34.34,0,0,0,.14-.48,9.7,9.7,0,0,0-6-3.43,16,16,0,0,0-5.17-4.54,17.72,17.72,0,0,0-8.82-2.27,26.86,26.86,0,0,0-6.31,1.05.34.34,0,0,0-.17.59,21.71,21.71,0,0,0,5.88,4.55,10.3,10.3,0,0,0,3.87.95c.79,0,1.58,0,2.36,0h.06a25.62,25.62,0,0,0-3.53,1.39A33.82,33.82,0,0,1,16,37.5a.35.35,0,0,0,0,.68A8.61,8.61,0,0,1,20,40.45a32.77,32.77,0,0,0,3.62,3.13,7.54,7.54,0,0,0,2.15,1,7.87,7.87,0,0,0,3.38.11c-.81.49-1.61,1-2.39,1.56-1.56,1.11-3.25,2.42-3.76,4.24a1.6,1.6,0,0,0-.05.21c-.41-.6-.84-1.17-1.3-1.73a17.43,17.43,0,0,0-6.14-4.88,13.67,13.67,0,0,0-4.33-1.2.35.35,0,0,0-.37.44l2,5.75a30.34,30.34,0,0,0,1.89,4.84,7.14,7.14,0,0,0,3.46,3.24,18.25,18.25,0,0,0,4.76,1.05,11.86,11.86,0,0,1,5.09,1.5.41.41,0,0,0,.45,0l1.4-.09a.39.39,0,0,0,.36-.21A33.9,33.9,0,0,0,37,57.64a6.9,6.9,0,0,1,3.84,2.17c1.21,1.23,2.08,2.69,3.16,4a11.41,11.41,0,0,0,1.88,1.86l.44.31-5.81,3.12-1.92,1a.35.35,0,0,0-.08.56,10.38,10.38,0,0,0,7.59,2.71A14.52,14.52,0,0,0,53.53,71a9.15,9.15,0,0,0-.3,1.8,8.53,8.53,0,0,0,.27,2.75c.07.26.15.51.24.76C51.27,78,50.21,81,49.4,83.7c-.31,1-.61,2-1,3-.09.23.14.45.37.45a21.84,21.84,0,0,0,9.15-1.89,12,12,0,0,0,5.14-4.11,12.35,12.35,0,0,0,1.6,1.8A10.29,10.29,0,0,0,67,84.63c.91.45,1.89.78,2.84,1.14a10.74,10.74,0,0,1,2.91,1.46.44.44,0,0,0,.47.06.35.35,0,0,0,.18-.4c-1-2.42.13-5,.31-7.47A10.06,10.06,0,0,0,73.4,76a10.33,10.33,0,0,1,6.89,1.06,8.74,8.74,0,0,1,1.65,1.16.45.45,0,0,0,.47,0A.37.37,0,0,0,82.59,77.88Z"/><path class="cls-2" d="M69.41,109.9q-.1-.39-.24-.78a.39.39,0,0,0-.47-.25,20.29,20.29,0,0,0-7.94,4.83,19.68,19.68,0,0,0,.32-2c.21-1.91.29-3.84.32-5.77a.39.39,0,0,0-.59-.3,60.51,60.51,0,0,0-5.13,3.68A22.11,22.11,0,0,0,51.74,113a28.11,28.11,0,0,0-1.8-4.75,27.45,27.45,0,0,0-3.2-5.06l-.48-.58a.41.41,0,0,0-.71.08c-1.39,4.2-2.77,8.49-2.88,12.91A18.1,18.1,0,0,0,44,123.1a9.73,9.73,0,0,0-2.54-1.32,23.42,23.42,0,0,0-5.17-1.21,13.25,13.25,0,0,0,.26-2.6,13.85,13.85,0,0,0-1.07-5.26.38.38,0,0,0-.16-.19,13.81,13.81,0,0,0-5-5.65,13.12,13.12,0,0,0-8-2.05,11.75,11.75,0,0,0-3.53.78,16,16,0,0,0,1.13-1.34,39.91,39.91,0,0,1,2.87-3.87,7.75,7.75,0,0,1,2.28-1.62A14.14,14.14,0,0,1,28,97.85a.43.43,0,0,0,.12,0h0a.39.39,0,0,0,.47-.24.36.36,0,0,0-.27-.44A21.63,21.63,0,0,0,22,95.66a8.1,8.1,0,0,0-5.3,1.56c-2.49,1.94-3.24,5.09-5.49,7.22a15.31,15.31,0,0,1-5.62,2.88c-.29.1-.41.48-.09.64a13.43,13.43,0,0,0,5.43,1.77,7.84,7.84,0,0,0,4.35-1.32c1.15,2.26,2.57,4.79,5.09,6a66.44,66.44,0,0,0-9.19,3.39c-1,.45-1.94.92-2.89,1.42-.36.18-.17.62.19.65,1.61.15,2.82,1.38,3.94,2.36a11.87,11.87,0,0,0,2,1.51,5.51,5.51,0,0,0,2.85.71,9.36,9.36,0,0,0,6-3c.69-.65,1.36-1.32,2-2a8.82,8.82,0,0,0,.14,3.11c.13.76.28,1.52.35,2.3a13.7,13.7,0,0,1,0,2.48,13.13,13.13,0,0,1-.58,2.77c-.09.28.19.48.47.44a13.24,13.24,0,0,0,7.7-4.13,12.53,12.53,0,0,0,1.3-1.72A17.27,17.27,0,0,0,39.67,130a12.15,12.15,0,0,0,5.4,1.9,8,8,0,0,0,5.45-1.33,4,4,0,0,0,1.55-2.65c1.11,0,2.22,0,3.33-.06a16.63,16.63,0,0,0,6.44-1.49,11.91,11.91,0,0,0,4.54-4.19,22.14,22.14,0,0,0,1.48-2.65,23.24,23.24,0,0,0,1.23-3.12A12.07,12.07,0,0,0,69.41,109.9Z"/><path class="cls-2" d="M71.54,93.71c-1.89-1.07-3.77-2.14-5.67-3.19a15.44,15.44,0,0,0-5.52-2.07c-3.84-.47-7.62,1.42-10.18,3.91-.11.11-.22.23-.34.34a11.32,11.32,0,0,0-2.19,2.24A3.26,3.26,0,0,0,47,97l0,.09a.32.32,0,0,0,.15.38,1.73,1.73,0,0,0,.17.33c.62.93,1.94,1.06,3,1.26a45.45,45.45,0,0,0,7.54.94,17.47,17.47,0,0,0,7.31-1.27A25,25,0,0,0,71,94.82l.66-.56A.33.33,0,0,0,71.54,93.71Z"/><path class="cls-3" d="M42.09,2.09A10.56,10.56,0,0,1,43.63,8.2a61,61,0,0,0-.05,6.34c.31,2.86,1.52,5.64,1.42,8.51"/><path class="cls-3" d="M22.11,11.11A10.84,10.84,0,0,0,29.19,16c2.83.6,6,.18,8.48,1.56"/><path class="cls-3" d="M23.54,21.33c1.75-.5,3.56.55,4.89,1.71s2.62,2.53,4.41,2.88a10.09,10.09,0,0,0,4.34-.53,6.43,6.43,0,0,1,4.31,0"/><path class="cls-3" d="M44.39,29.07c1.21-.23,2.39-.59,3.6-.84a18.19,18.19,0,0,1,14.08,3"/><path class="cls-3" d="M55.8,12.61c1.29,1,1.87,2.57,2.66,3.94a14.43,14.43,0,0,0,7.92,6.3"/><path class="cls-3" d="M70.35,9.06a5.16,5.16,0,0,1,1,3.8,29.66,29.66,0,0,1-.85,3.91,44.71,44.71,0,0,0-.9,7.2c2.42,0,5.55-.32,7-2.07"/><path class="cls-3" d="M79.21,21.53a8.17,8.17,0,0,1,3.59,3.58,9.71,9.71,0,0,0,3.38,3.78"/><path class="cls-3" d="M88.73,29a9.52,9.52,0,0,0,4.7-3.66A16.29,16.29,0,0,1,95,22.94a4.87,4.87,0,0,1,3.5-1.45"/><path class="cls-3" d="M89.46,30.71a10.88,10.88,0,0,0,4.17,1.87c1.42.31,3.06.43,4,1.48"/><path class="cls-3" d="M87.38,19.14c-1.38-1.25-3-2.34-4.22-3.7A11.66,11.66,0,0,1,80.28,4.81"/><path class="cls-3" d="M86.74,13.53a8.43,8.43,0,0,1,.45-4.16c.68-1.81,2-3.59,1.59-5.47"/><path class="cls-3" d="M89,18.64a10.06,10.06,0,0,1,3.35-3.74,29.19,29.19,0,0,1,4.57-2.5"/><path class="cls-3" d="M14.22,28.68a16.28,16.28,0,0,0,7,2.26,37,37,0,0,1,7.37,1.38"/><path class="cls-3" d="M19.59,38.19a5.24,5.24,0,0,1,4.15.23,16.32,16.32,0,0,0,4,1.4c3.05.36,5.77-1.85,8.83-2.15"/><path class="cls-3" d="M28.21,58.31A12.27,12.27,0,0,1,31.37,45"/><path class="cls-3" d="M11.58,43.7a20.89,20.89,0,0,1,4.49,3.8c1.33,1.58,2.25,3.42,3.41,5.11a10.26,10.26,0,0,0,4.68,4"/><path class="cls-3" d="M29.73,57.57a13.58,13.58,0,0,0,5.05-2c.93-.61,1.77-1.32,2.71-1.91a6.24,6.24,0,0,1,3.15-1.09"/><path class="cls-3" d="M36.83,57.38a27.24,27.24,0,0,1,7.85-1.57,14.52,14.52,0,0,1,7.7,1.78c2.95,1.73,4.37,4.52,6.11,7.29-.67-3-1.46-6.09-3.39-8.61a41.27,41.27,0,0,0-4.84-4.68,11.05,11.05,0,0,1-3.64-5.41"/><path class="cls-3" d="M41.49,58.26a10.79,10.79,0,0,1,4.62,2.81,14.92,14.92,0,0,0,2.75,2.75c1.7,1,3.91.88,5.94.69"/><path class="cls-3" d="M75.57,72.21c-1.82-2.13-4.11-4.26-7.06-4.58-1.21-.13-2.44.05-3.66-.09a13.23,13.23,0,0,1-3.71-1.21,7.35,7.35,0,0,1,0,6.33,18.17,18.17,0,0,1-2.36,3.56,4.76,4.76,0,0,0-1.06,3.94"/><path class="cls-3" d="M63.37,71.34a6.13,6.13,0,0,1,2.5,2.36c.83,1.47.93,3.19,1.46,4.77a10,10,0,0,0,3.61,4.87"/><path class="cls-3" d="M58.83,66.77c-.45,1.53-1.3,2.93-1.83,4.43a5.4,5.4,0,0,0,.09,4.6"/><path class="cls-3" d="M41.39,70.91A18.53,18.53,0,0,0,52,67.84"/><path class="cls-3" d="M14.8,60.11a11.85,11.85,0,0,1,3.54,1.76c1.19,1,1.9,2.37,3.11,3.32A19.47,19.47,0,0,0,25,67,11.83,11.83,0,0,1,31,73.41"/><path class="cls-3" d="M15.75,71.55A12.63,12.63,0,0,0,22.41,73c.79,0,1.58-.16,2.37-.13a3.61,3.61,0,0,1,2.19.71"/><path class="cls-3" d="M38,62.38c-.66,1.41-2.22,2.25-3.34,3.4a9.27,9.27,0,0,0-2.33,5,14.62,14.62,0,0,0-.2,2.19"/><path class="cls-3" d="M1.57,84.57C4.39,84,7.29,85,9.85,86.16s5,2.69,7.84,3.27c2.56.53,5.43.34,7.56,1.73,0-1.46.31-3,.44-4.47A7.37,7.37,0,0,0,25,82.4c-.53-.92-1.39-1.75-1.44-2.79"/><path class="cls-3" d="M30.22,87.55c2.41,1.41,3.6,4.3,6.25,5.28a33.8,33.8,0,0,0,4.18.74c.94.21,1.83.61,2.77.82a3.78,3.78,0,0,0,2.81-.29"/><path class="cls-3" d="M48.24,97.06a17.17,17.17,0,0,1,16-4c1.68.45,3.33,1.16,5.07,1.09"/><path class="cls-3" d="M7.27,108.11a11.59,11.59,0,0,0,7.45-4.36c.64-.86,1.13-1.8,1.78-2.65a10.75,10.75,0,0,1,8-4"/><path class="cls-3" d="M17.19,108a14.72,14.72,0,0,0,7.69,2.82c1.47.1,3,0,4.43.11a6.93,6.93,0,0,1,4,1.47,11.42,11.42,0,0,1-1.13,7.16,39.74,39.74,0,0,0-2.54,4.35c-.35.92-.5,1.9-.92,2.8a3.14,3.14,0,0,1-2.27,1.88"/><path class="cls-3" d="M9.56,119.48c1.56-1,3.65-.93,5.54-.67s3.87.64,5.69.09c2.43-.74,3.92-2.93,5.95-4.36a10.15,10.15,0,0,1,3.88-1.64"/><path class="cls-3" d="M36.4,123.53a8.71,8.71,0,0,1,4.44,2.41,15.15,15.15,0,0,0,4,3c1.59.67,4.55-.34,5.69-1.56-2.21-3.1-2.5-7-2.49-10.7s.22-7.52-1.18-11"/><path class="cls-3" d="M52.64,126.68A15.78,15.78,0,0,0,59.36,122a47,47,0,0,0,2.87-5.08,8.14,8.14,0,0,1,4.36-3.94"/><path class="cls-3" d="M59.72,108.28c-.14,3.3-3,5.89-4.84,8.72a16.32,16.32,0,0,0-2.6,7.28"/><path class="cls-3" d="M49.42,85.63a7.66,7.66,0,0,0,6.22-1.36,9.87,9.87,0,0,0,3.47-5"/><path class="cls-3" d="M21,21.36A24.31,24.31,0,0,1,29,19a16.66,16.66,0,0,1,8.17,1.68,25.14,25.14,0,0,1,6.57,4.58,11.63,11.63,0,0,0-3-4.93,15.17,15.17,0,0,1-1.89-2,6.89,6.89,0,0,1-1-2.68c-1-5.22.58-10.61,3.15-15.36"/><path class="cls-3" d="M15.61,37.65c3.57-1.84,7.34-3.55,11.42-4s8.55.62,11.17,3.5"/><path class="cls-3" d="M41.36,29.18c2.58-.22,4.7-1.87,6.69-3.38s4.3-3,6.89-2.91a7.55,7.55,0,0,1,4.51,1.95,16.12,16.12,0,0,1,3,3.74"/><path class="cls-3" d="M19.28,39.58c1.4,1.16,2.58,2.52,4,3.66a8.24,8.24,0,0,0,5.07,2c2.77,0,5-2,6.95-3.76a9.59,9.59,0,0,0,3-3.91"/><path class="cls-3" d="M12.76,42.91c3.77,1.39,7.57,3.38,9.39,6.69,1.22,2.24,1.48,5,3.39,6.77,1.06,1,2.68,1.84,2.61,3.22"/><path class="cls-3" d="M11.94,59.19c2.46,1.75,2.65,5.39,5.27,6.94a10.1,10.1,0,0,0,3.24,1,21.15,21.15,0,0,1,6.18,2.13,9.42,9.42,0,0,1,4.23,4.51"/><path class="cls-3" d="M28.1,59.59a11.7,11.7,0,0,1,3.42-6.75,7.7,7.7,0,0,1,3.91-2.21,9.86,9.86,0,0,1,5.06.8A6.54,6.54,0,0,1,43,52.81"/><path class="cls-3" d="M20.44,77c1.28,2,1.27,4.4,1.06,6.68a8.53,8.53,0,0,0,0,2.94,6.46,6.46,0,0,0,1.65,2.7,22.27,22.27,0,0,0,2.72,2.19c-2.19.71-4.4,1.43-6.66,1.93a17.58,17.58,0,0,1-4.51.5,14.91,14.91,0,0,1-8.26-3.27A40,40,0,0,1,.38,84.43"/><path class="cls-3" d="M13,70.06a27.39,27.39,0,0,0,5.45,5.41A10.42,10.42,0,0,0,26,77.37a11.44,11.44,0,0,0,5.94-3.55,12,12,0,0,1-1.11-5.16A5.92,5.92,0,0,1,32.69,64a12.64,12.64,0,0,1,5.74-3.41"/><path class="cls-3" d="M5.47,107.88a11.84,11.84,0,0,0,4.42,1.47,10.27,10.27,0,0,0,6.78-2,19.69,19.69,0,0,0,4.68-5.09,14.88,14.88,0,0,1,3-3.65A7.34,7.34,0,0,1,28,97.16"/><path class="cls-3" d="M8.05,119.5a10.81,10.81,0,0,1,3.52,1.86A14.87,14.87,0,0,0,15,124a6.16,6.16,0,0,0,4.41-.07,12,12,0,0,0,3.69-2.36c1.86-1.61,3.47-3.45,5.34-5.06s3.86-3.31,6.37-3.79a10.36,10.36,0,0,0-5.36,0c-1.8.5-3.43,1.48-5.28,1.8a7.59,7.59,0,0,1-5.34-1.09A6.34,6.34,0,0,1,16,109.14"/><path class="cls-3" d="M25.47,130.57a23.55,23.55,0,0,0,5-2.37,16.76,16.76,0,0,0,3-2.2c3.46-3.33,3.94-8.64,2.08-12.91"/><path class="cls-3" d="M61.16,105.59c-3.21,1.73-6.56,3.59-8.47,6.52-1.66,2.55-2,5.64-2,8.61,0,2.41-.4,4.89,1,7a11.31,11.31,0,0,1-6.85-4.15,12.13,12.13,0,0,1-2.3-6.61,26.46,26.46,0,0,1,.65-7,22.13,22.13,0,0,1,2.55-7.3"/><path class="cls-3" d="M69,108.93c-4,.82-7,3.85-9.57,6.75-3,3.26-5.93,6.68-7.27,10.73"/><path class="cls-3" d="M38.56,70.64a10.86,10.86,0,0,0,15-.12c1.69-1.71,2.79-4.39,4.82-5.76l-3.3,1.43a13.18,13.18,0,0,1-2.23.81,9.17,9.17,0,0,1-4.44-.25,9.31,9.31,0,0,1-2.86-1.26A12.2,12.2,0,0,1,42.06,61"/><path class="cls-3" d="M53.33,72.6a8.67,8.67,0,0,0,1.57,5.91,4.16,4.16,0,0,0,2.66,1.87"/><path class="cls-3" d="M60.79,74a6.34,6.34,0,0,0,.48,4.24A10.6,10.6,0,0,0,63.43,82c2.39,2.47,6.45,3,9.19,5.12l-.23-.53"/><path class="cls-3" d="M62.62,69.1a27.12,27.12,0,0,1,7.46,3.31c2.18,1.57,3.84,4,3.69,6.5"/><path class="cls-3" d="M61.23,66a86,86,0,0,1,9.09-.81,13.61,13.61,0,0,1,3.19.15,9.43,9.43,0,0,1,5.89,4.22,24.58,24.58,0,0,1,2.69,6.57"/><path class="cls-3" d="M58.49,64.9A84.23,84.23,0,0,0,59,56.35a4.6,4.6,0,0,0-.58-2.83"/><path class="cls-3" d="M59.89,65a5.78,5.78,0,0,1,3-2.56A6.22,6.22,0,0,1,67.85,62"/><path class="cls-3" d="M82.43,19.25a20.36,20.36,0,0,0-7.38.38,11.09,11.09,0,0,0-2.35.82,8.75,8.75,0,0,0-3.83,4.68c-.67-1.19-1.49-2.31-2.11-3.53A12.57,12.57,0,0,1,69.6,6.88"/><path class="cls-3" d="M100.47,19.7a28.52,28.52,0,0,0-5.46.78A10.37,10.37,0,0,0,90.32,23a14,14,0,0,0-2.1,3.05,8.6,8.6,0,0,0-1.44,3.84,8.32,8.32,0,0,1-6.38-3.17,18.07,18.07,0,0,1-3-6.25"/><path class="cls-3" d="M87.78,29.6a11.27,11.27,0,0,1,6.81,1.09A15.35,15.35,0,0,1,99.75,35l-.48-.15"/><path class="cls-3" d="M81.37,2.14a9.91,9.91,0,0,0-3,5.94,12.07,12.07,0,0,0,1,6.52,10.64,10.64,0,0,0,2.18,3.27c1.57,1.55,4.23,1.76,6.53,1.86a14.53,14.53,0,0,0-1.44-5.54,16.8,16.8,0,0,1-1.58-3.66c-.41-2,.45-4.09,1.49-5.92A6.7,6.7,0,0,1,89.23,1.7"/><path class="cls-3" d="M100.49,9.42a7,7,0,0,1-3.89.45,13.23,13.23,0,0,0-4-.08,4.75,4.75,0,0,0-3.76,3.88"/><path class="cls-3" d="M40.89,4.44a5,5,0,0,0,1.33,3.05"/><path class="cls-3" d="M39.89,8.45a3.93,3.93,0,0,0,1.8,3.18"/><path class="cls-3" d="M39.2,12.33a5.18,5.18,0,0,0,2.69,3.3"/><path class="cls-3" d="M39.76,16a5.17,5.17,0,0,0,2.7,2.78"/><path class="cls-3" d="M45.15,4a6.37,6.37,0,0,1,0,1.38,2.13,2.13,0,0,1-.6,1.25"/><path class="cls-3" d="M46.73,6.27a3.91,3.91,0,0,1-1.57,3.22"/><path class="cls-3" d="M48,9.22a5.14,5.14,0,0,1-2,3.94"/><path class="cls-3" d="M48.2,13.81a5.86,5.86,0,0,1-2.14,3.64"/><path class="cls-3" d="M47.82,18.12a3,3,0,0,1-1.67,2.32"/><path class="cls-3" d="M24,16.05a7.19,7.19,0,0,0,1.66.33,2.59,2.59,0,0,0,1.62-.4"/><path class="cls-3" d="M26.9,17.64a4,4,0,0,0,3-.88"/><path class="cls-3" d="M31.29,18.39a3.06,3.06,0,0,0,2.27-1.15"/><path class="cls-3" d="M34.65,18.89a2,2,0,0,0,1.67-1.25"/><path class="cls-3" d="M23.82,23.1a2.91,2.91,0,0,0,2.64-.37"/><path class="cls-3" d="M26.4,25.4a1.83,1.83,0,0,0,2.12-.62"/><path class="cls-3" d="M28.9,27.66a6,6,0,0,0,1.39-.33,1.82,1.82,0,0,0,1-.9"/><path class="cls-3" d="M31.82,28.75a2.72,2.72,0,0,0,2-1.91"/><path class="cls-3" d="M35.12,29.35a3.31,3.31,0,0,0,1.7-2.57"/><path class="cls-3" d="M38.14,28.86a5.8,5.8,0,0,0,1.33-1.18,1.81,1.81,0,0,0,.37-1.6"/><path class="cls-3" d="M15.87,31.48a1.45,1.45,0,0,0,1.58-.73"/><path class="cls-3" d="M18.12,32.49a1.48,1.48,0,0,0,1.51-.8"/><path class="cls-3" d="M20.77,33.21a1.51,1.51,0,0,0,1.17-.45,3.61,3.61,0,0,0,.68-1"/><path class="cls-3" d="M24.13,33.08a1.25,1.25,0,0,0,1.18-1"/><path class="cls-3" d="M21.29,40.07a1.34,1.34,0,0,0,1.08-1.38"/><path class="cls-3" d="M23.26,41.94a2.41,2.41,0,0,0,1.55-1.65"/><path class="cls-3" d="M26.13,43.59A2.41,2.41,0,0,0,27.6,41.4"/><path class="cls-3" d="M29.49,44a1.79,1.79,0,0,0,1-1.11,4.71,4.71,0,0,0,.15-1.45"/><path class="cls-3" d="M32.32,42.7a4.92,4.92,0,0,0,.85-3.18"/><path class="cls-3" d="M34.93,40.41a3.39,3.39,0,0,0,.23-1.54"/><path class="cls-3" d="M46.1,29.44a3.67,3.67,0,0,0,1.72,2.89"/><path class="cls-3" d="M48.41,29.79a5.55,5.55,0,0,0,3,3.19"/><path class="cls-3" d="M52.14,29.26A7.28,7.28,0,0,0,56,33.75"/><path class="cls-3" d="M56.58,30.56a7,7,0,0,0,1,1.87,3.31,3.31,0,0,0,1.81,1.22"/><path class="cls-3" d="M60.29,31.5A2.09,2.09,0,0,0,61.77,33"/><path class="cls-3" d="M62.86,32.39a2.59,2.59,0,0,0,.91.64"/><path class="cls-3" d="M12.71,47.13a3.23,3.23,0,0,1,2.19.08"/><path class="cls-3" d="M13.67,49.36a2.41,2.41,0,0,1,2.27.2"/><path class="cls-3" d="M15.06,52.26A6.59,6.59,0,0,1,16.71,52a2.1,2.1,0,0,1,1.5.6"/><path class="cls-3" d="M17.68,55A2.94,2.94,0,0,1,20,55"/><path class="cls-3" d="M20.3,56.75h1.31"/><path class="cls-3" d="M24.92,50.61a4.48,4.48,0,0,0,1.33,3.58"/><path class="cls-3" d="M26,48.3a2,2,0,0,0,.91,2.17"/><path class="cls-3" d="M27.72,46.78a1.78,1.78,0,0,0,.53,1.12"/><path class="cls-3" d="M15.58,62.75a2.71,2.71,0,0,1,1.66-.5"/><path class="cls-3" d="M17.41,64.33a3.28,3.28,0,0,1,1.14-.47"/><path class="cls-3" d="M19.43,65.55a3.15,3.15,0,0,1,.87-.12"/><path class="cls-3" d="M21.87,66.49l.26-.08"/><path class="cls-3" d="M18.2,74.56a2.45,2.45,0,0,0,1.48-1"/><path class="cls-3" d="M21.26,76.38a2.85,2.85,0,0,0,1.76-2"/><path class="cls-3" d="M24.42,76.58A2.36,2.36,0,0,0,25.61,75"/><path class="cls-3" d="M27.21,75.91c.14-.4.29-.8.44-1.19"/><path class="cls-3" d="M33.08,70.76a5.57,5.57,0,0,1,1.32-.7,1.94,1.94,0,0,1,1.48.08"/><path class="cls-3" d="M34.11,68.57a4.9,4.9,0,0,1,2.54-.42"/><path class="cls-3" d="M35.32,66.88a4.54,4.54,0,0,1,1.32-.52,1.7,1.7,0,0,1,1.36.26"/><path class="cls-3" d="M37.54,64.76a1.09,1.09,0,0,1,1.21,0"/><path class="cls-3" d="M42.59,60.68a3.78,3.78,0,0,0,1,.15,1.21,1.21,0,0,0,.9-.38"/><path class="cls-3" d="M43.91,62.49a2.05,2.05,0,0,0,2-.38"/><path class="cls-3" d="M46.17,64.65a2.24,2.24,0,0,0,1.94-.78"/><path class="cls-3" d="M49.85,65.83a1.31,1.31,0,0,0,1.48-.61"/><path class="cls-3" d="M52.81,66.32a1.56,1.56,0,0,0,.8-.78"/><path class="cls-3" d="M44.34,72.49a.94.94,0,0,0,.83-1"/><path class="cls-3" d="M46.59,72.49c.29.19.67-.12.74-.43s0-.65.19-.92"/><path class="cls-3" d="M49.15,72.32a2.85,2.85,0,0,0,.43-1.84"/><path class="cls-3" d="M50.88,71.26a1,1,0,0,0,.71-.76,2.55,2.55,0,0,0-.09-1.06"/><path class="cls-3" d="M53.42,69.36a5.73,5.73,0,0,0,.18-1.75"/><path class="cls-3" d="M46,49.33a1.14,1.14,0,0,0,.9.89,3.87,3.87,0,0,0,1.4.05"/><path class="cls-3" d="M47.59,52.82A3,3,0,0,0,50.3,53"/><path class="cls-3" d="M49.53,54.78a2.77,2.77,0,0,0,2.52-.15"/><path class="cls-3" d="M53,56.76a1.14,1.14,0,0,0,1.11-.19"/><path class="cls-3" d="M55.18,58.59a1.5,1.5,0,0,0,.78-.32"/><path class="cls-3" d="M56,68.63a3.93,3.93,0,0,1,1.16-.52"/><path class="cls-3" d="M54.57,71.13a2.61,2.61,0,0,1,1.65-.73"/><path class="cls-3" d="M54.45,73.83a1.52,1.52,0,0,1,1.43-.93"/><path class="cls-3" d="M55.11,76.55a1.46,1.46,0,0,1,1.11-1.07"/><path class="cls-3" d="M56.74,78.47a1.07,1.07,0,0,1,.1-1"/><path class="cls-3" d="M61.9,77a3.19,3.19,0,0,1,1.75-3"/><path class="cls-3" d="M63.35,80a3.32,3.32,0,0,1,1.85-2.76"/><path class="cls-3" d="M65,82a3.22,3.22,0,0,1,1.42-2.31"/><path class="cls-3" d="M67.52,82.93a1.64,1.64,0,0,1,.39-1.21"/><path class="cls-3" d="M69.17,84.06a1,1,0,0,0,.34-.65"/><path class="cls-3" d="M50.1,86.29a2.32,2.32,0,0,0,1.06.37"/><path class="cls-3" d="M52.56,86.27l.78.17"/><path class="cls-3" d="M55.18,85.8l.35.08"/><path class="cls-3" d="M56.57,84.38a1.94,1.94,0,0,0,1.23.23"/><path class="cls-3" d="M58,82.76a2.58,2.58,0,0,0,2.46.4"/><path class="cls-3" d="M59.5,81.14a2.22,2.22,0,0,0,2.09.34"/><path class="cls-3" d="M60.16,79.66a.74.74,0,0,0,.71.19"/><path class="cls-3" d="M64.35,69a3,3,0,0,0,2.11-.88"/><path class="cls-3" d="M67.07,69.35a1.55,1.55,0,0,0,1.63-.64"/><path class="cls-3" d="M69.07,71a2.93,2.93,0,0,0,1.58-1.19"/><path class="cls-3" d="M71.25,72.21a2.46,2.46,0,0,0,1.52-1.4"/><path class="cls-3" d="M72.66,73.6a2.66,2.66,0,0,0,2.09-1.21"/><path class="cls-3" d="M74.23,75.16a2.07,2.07,0,0,0,1.63-1.06"/><path class="cls-3" d="M61,64.58a2.7,2.7,0,0,1,.93-.11.79.79,0,0,1,.69.51"/><path class="cls-3" d="M62.78,63.61a2.15,2.15,0,0,1,2.36,1"/><path class="cls-3" d="M65.15,62.93a2.69,2.69,0,0,1,2.41,1.89"/><path class="cls-3" d="M67.93,62.84a1.58,1.58,0,0,1,1,1"/><path class="cls-3" d="M3.86,86.89A11.93,11.93,0,0,0,6.09,87a3.64,3.64,0,0,0,2-.74"/><path class="cls-3" d="M6.83,89.05a2.63,2.63,0,0,0,3-1.33"/><path class="cls-3" d="M9.23,91.12a11.19,11.19,0,0,0,4.21-1.7"/><path class="cls-3" d="M12.74,92.21a4.52,4.52,0,0,0,3-2.28"/><path class="cls-3" d="M16.4,92.63a5.5,5.5,0,0,0,2.13-2"/><path class="cls-3" d="M19.66,92.13c.67-.12,1.07-.74,1.39-1.29"/><path class="cls-3" d="M22.54,86.55a2,2,0,0,1,1.77,1.81"/><path class="cls-3" d="M22.86,84.51a2,2,0,0,1,1.24.94"/><path class="cls-3" d="M22.55,82.61a3.86,3.86,0,0,1,1.66,1"/><path class="cls-3" d="M22.63,81.18a1.59,1.59,0,0,1,.7.43"/><path class="cls-3" d="M22.23,79.42l.36.15-.35-.16"/><path class="cls-3" d="M11.26,108.69a3.41,3.41,0,0,0,1.44-2.34"/><path class="cls-3" d="M13.67,108a2.47,2.47,0,0,0,.4-2"/><path class="cls-3" d="M15.72,106.1a1.6,1.6,0,0,0,.52-1.21,4.25,4.25,0,0,0-.22-1.32"/><path class="cls-3" d="M17.66,104.57a3.93,3.93,0,0,0-.24-3.28"/><path class="cls-3" d="M19.05,102.37a2.69,2.69,0,0,0-.17-2.2"/><path class="cls-3" d="M20.53,100.52a1.49,1.49,0,0,0,0-1.35"/><path class="cls-3" d="M21.85,98.89a.49.49,0,0,0,.21-.64"/><path class="cls-3" d="M30.26,90a1.42,1.42,0,0,1,1.09-.08"/><path class="cls-3" d="M31.42,92.06a3.65,3.65,0,0,1,1.79-.28"/><path class="cls-3" d="M33.39,94.56a2.41,2.41,0,0,1,2.24-1.08"/><path class="cls-3" d="M35.78,96.82a3.59,3.59,0,0,1,2.88-2.4"/><path class="cls-3" d="M38.6,98a3.31,3.31,0,0,1,2.61-3"/><path class="cls-3" d="M41.64,98A4.79,4.79,0,0,1,43,95.3"/><path class="cls-3" d="M44.15,96.61a1,1,0,0,1,.29-.77"/><path class="cls-3" d="M50.54,96.14l1.37,1.15a3.24,3.24,0,0,0,1,.64A1.28,1.28,0,0,0,54,97.88"/><path class="cls-3" d="M54.23,95.19a5.72,5.72,0,0,0,4.2,2.94"/><path class="cls-3" d="M57.19,94.33a5.71,5.71,0,0,0,4.44,3.38"/><path class="cls-3" d="M60.57,94.11a4.44,4.44,0,0,0,3.54,2.8"/><path class="cls-3" d="M64,94.11a2.83,2.83,0,0,0,2.16,1.55"/><path class="cls-3" d="M67.15,94.9l.7.36"/><path class="cls-3" d="M20,106.13a3.13,3.13,0,0,0,1,2.7"/><path class="cls-3" d="M21.83,106.06a3,3,0,0,0,.37,2.41,1.23,1.23,0,0,0,1.05.65"/><path class="cls-3" d="M24,105.85a7.79,7.79,0,0,0,.81,2.57,1.85,1.85,0,0,0,1.12.93"/><path class="cls-3" d="M27.63,106.42A3.86,3.86,0,0,0,28.9,110"/><path class="cls-3" d="M30.43,108.05a4,4,0,0,0,1.12,2.29"/><path class="cls-3" d="M32.9,109.9a6.18,6.18,0,0,0,.47,1.21"/><path class="cls-3" d="M12.68,120.85A1.74,1.74,0,0,1,14,119.43"/><path class="cls-3" d="M14.68,122.62a3,3,0,0,1,1.4-2.5"/><path class="cls-3" d="M17.69,123.05a4.93,4.93,0,0,1,.25-1.47,1.94,1.94,0,0,1,1-1.12"/><path class="cls-3" d="M21.3,121.63a4,4,0,0,1,.7-2.35"/><path class="cls-3" d="M24,119.28a2.09,2.09,0,0,1,.18-1.43"/><path class="cls-3" d="M25.74,117.93a4.72,4.72,0,0,1,.16-1.63"/><path class="cls-3" d="M27.22,116.37v-.86"/><path class="cls-3" d="M28.78,114.87a.93.93,0,0,1,.06-.57"/><path class="cls-3" d="M30.25,114v-.35"/><path class="cls-3" d="M29.62,127.17c0,.22.05.43.07.64"/><path class="cls-3" d="M30.54,124.47a5.06,5.06,0,0,0,.7,2.32"/><path class="cls-3" d="M31.67,122.55A4.37,4.37,0,0,0,32.8,125"/><path class="cls-3" d="M33.27,120.49a4.18,4.18,0,0,0,1.23,2.59"/><path class="cls-3" d="M34,118.57a4.81,4.81,0,0,0,1,1.63"/><path class="cls-3" d="M34.31,116.29a5.07,5.07,0,0,0,.9,1.17"/><path class="cls-3" d="M34.39,114.23a3.56,3.56,0,0,0,.6.8"/><path class="cls-3" d="M36.41,125.65a1.81,1.81,0,0,0,1.34-.52"/><path class="cls-3" d="M38,127.26a2.35,2.35,0,0,0,1.48-.66"/><path class="cls-3" d="M39.6,128.68a1.51,1.51,0,0,0,1.46-1"/><path class="cls-3" d="M42.17,130.1a1.16,1.16,0,0,0,.85-1"/><path class="cls-3" d="M45.28,130.65a1.24,1.24,0,0,0,.54-1"/><path class="cls-3" d="M47.68,131a.93.93,0,0,0,.26-1"/><path class="cls-3" d="M50.09,130.37a3.48,3.48,0,0,1,.19-1.06"/><path class="cls-3" d="M46.86,124.37a1.22,1.22,0,0,0,1.1,0"/><path class="cls-3" d="M44.42,120.92a6.9,6.9,0,0,0,1.54,1,2.5,2.5,0,0,0,1.84.1"/><path class="cls-3" d="M43.81,118.35a5,5,0,0,0,3.57,1.57"/><path class="cls-3" d="M43.82,115.29A4.44,4.44,0,0,0,47,117"/><path class="cls-3" d="M43.81,112.73a6.79,6.79,0,0,0,3,1.62"/><path class="cls-3" d="M44.85,110.77a2.47,2.47,0,0,0,2,1"/><path class="cls-3" d="M45.28,108.76a4.87,4.87,0,0,0,1.24.85"/><path class="cls-3" d="M45.59,107.19a1.08,1.08,0,0,0,.62.37"/><path class="cls-3" d="M45.51,105.71A.8.8,0,0,1,46,106l-.45-.24"/><path class="cls-3" d="M51.2,121.77a.54.54,0,0,0,.38.5"/><path class="cls-3" d="M51.35,119.92a2,2,0,0,1,.55.92"/><path class="cls-3" d="M51.65,117.22a4.72,4.72,0,0,0,1,2.06"/><path class="cls-3" d="M52.55,114.59a3.8,3.8,0,0,0,1.14,2.2"/><path class="cls-3" d="M53.83,112.32a4.08,4.08,0,0,0,1.49,2.83"/><path class="cls-3" d="M55.21,110.33a6.36,6.36,0,0,0,1.4,2.79"/><path class="cls-3" d="M56.75,109.12a3.61,3.61,0,0,0,.94,1.95"/><path class="cls-3" d="M58.36,108.33l.39.79"/><path class="cls-3" d="M55.4,126a4.74,4.74,0,0,0,2.56.34,13.49,13.49,0,0,0,2.52-.64"/><path class="cls-3" d="M58.27,124.22a8.58,8.58,0,0,0,4.74-.14"/><path class="cls-3" d="M60.53,122.48c1.32.6,2.9.06,4.37.19"/><path class="cls-3" d="M61.86,120.64a11.29,11.29,0,0,0,3.89.07"/><path class="cls-3" d="M63.41,118a4.84,4.84,0,0,0,3.59.07"/><path class="cls-3" d="M64.81,116.24a21.73,21.73,0,0,0,2.42.2"/><path class="cls-3" d="M66.69,114.3l1.47.22"/><path class="cls-3" d="M68,113.18a1,1,0,0,1,.78.12"/><path class="cls-3" d="M68.71,111.88l.47.07"/><path class="cls-3" d="M58,13.2A3,3,0,0,1,58.11,15"/><path class="cls-3" d="M59.29,14.2a3.42,3.42,0,0,1,.07,2.59"/><path class="cls-3" d="M61.17,15.66a18.91,18.91,0,0,1,.12,2.71"/><path class="cls-3" d="M62.6,17.25a3.34,3.34,0,0,1,0,2.27"/><path class="cls-3" d="M64.1,18.92a2.69,2.69,0,0,1,0,1.54"/><path class="cls-3" d="M65.11,20.63a1.51,1.51,0,0,1,0,.79"/><path class="cls-3" d="M70.73,20.5a2.67,2.67,0,0,0,1.29-1"/><path class="cls-3" d="M71.43,18.36a2.24,2.24,0,0,0,1.13-1"/><path class="cls-3" d="M71.79,15.91a2.06,2.06,0,0,0,1.09-1"/><path class="cls-3" d="M72.2,13.74a.68.68,0,0,0,.68-.5"/><path class="cls-3" d="M72.38,11.69a.34.34,0,0,0,.23-.33"/><path class="cls-3" d="M72,10.15l.18-.08"/><path class="cls-3" d="M71.1,24.51A3.42,3.42,0,0,0,72.54,26a1,1,0,0,0,.62.15"/><path class="cls-3" d="M73.22,24.42a2.68,2.68,0,0,0,1.49,1"/><path class="cls-3" d="M75.22,23.59a3.55,3.55,0,0,0,1,.67"/><path class="cls-3" d="M76.72,22.85l.73.37"/><path class="cls-3" d="M78.19,19.89a11.11,11.11,0,0,1,5.24,1.64,13.41,13.41,0,0,1,3.93,5"/><path class="cls-3" d="M81.81,5a4.87,4.87,0,0,0-1,2.62"/><path class="cls-3" d="M82.67,7.15A9.25,9.25,0,0,0,82,9,3.15,3.15,0,0,0,82,10.9"/><path class="cls-3" d="M83.54,9.78a20.81,20.81,0,0,0-.67,2.3A2.06,2.06,0,0,0,83,13.57"/><path class="cls-3" d="M84.51,12.62A6.68,6.68,0,0,0,84,15.7"/><path class="cls-3" d="M85.56,14.62a5.51,5.51,0,0,0-.11,1.67"/><path class="cls-3" d="M80.93,21.05a2.47,2.47,0,0,1,.46,1.37"/><path class="cls-3" d="M82.62,22.17a3.39,3.39,0,0,1,.43,2"/><path class="cls-3" d="M84.3,23.67a2.64,2.64,0,0,1,.12,2.06"/><path class="cls-3" d="M85.55,25.1a10.21,10.21,0,0,0,.1,1.83"/><path class="cls-3" d="M88.54,31a3,3,0,0,0,.31,2"/><path class="cls-3" d="M90.08,32.53a2.51,2.51,0,0,0,.49,1.21"/><path class="cls-3" d="M92.1,33.36a10,10,0,0,0,.56,1.14"/><path class="cls-3" d="M94.38,33.61A2.15,2.15,0,0,0,95,34.75"/><path class="cls-3" d="M96.16,34.36l.5.67"/><path class="cls-3" d="M91.4,28.13A7.86,7.86,0,0,0,95,27.9"/><path class="cls-3" d="M93.59,26.36a8,8,0,0,0,3.89-.18"/><path class="cls-3" d="M95.93,24.39a8.48,8.48,0,0,0,1.51.05,2.79,2.79,0,0,0,1.4-.48"/><path class="cls-3" d="M97.44,22.57a4.1,4.1,0,0,0,2-.07"/><path class="cls-3" d="M99.18,21.71h.91"/><path class="cls-3" d="M90.13,18.19A4.71,4.71,0,0,0,93,17.76"/><path class="cls-3" d="M92.27,16.28A4.91,4.91,0,0,0,95.56,16"/><path class="cls-3" d="M93.92,14.82a9.36,9.36,0,0,0,2.93-.32"/><path class="cls-3" d="M96.25,13.36a2.6,2.6,0,0,0,1.61,0"/><path class="cls-3" d="M97.8,12.57l.69,0"/><path class="cls-3" d="M87.61,14.78a.93.93,0,0,0,.46-.12"/><path class="cls-3" d="M87.56,12.93a1.77,1.77,0,0,0,.79-.35"/><path class="cls-3" d="M87.83,10.62a3.64,3.64,0,0,0,1.43-.41"/><path class="cls-3" d="M88.38,8.72a3.3,3.3,0,0,0,1.52-.43"/><path class="cls-3" d="M89.25,6.93a1.11,1.11,0,0,0,.83-.37"/><path class="cls-3" d="M89.53,5.55a.67.67,0,0,0,.37,0"/><path class="cls-3" d="M89.53,3.72l.14,0"/><path class="cls-3" d="M89.48,2.47a.16.16,0,0,0,.14-.09"/><path class="cls-4" d="M25.14,12.18a1.77,1.77,0,0,1,.66,1.05"/><path class="cls-4" d="M27,12.15a4.43,4.43,0,0,1,1.29,2.21"/><path class="cls-4" d="M29.71,12.79a3.51,3.51,0,0,1,1.31,2"/><path class="cls-4" d="M33.11,13.48A3.87,3.87,0,0,1,34,15.17"/><path class="cls-4" d="M35.46,13.9a2.75,2.75,0,0,1,.77,1.8"/><path class="cls-4" d="M28.32,20.18a3.43,3.43,0,0,1,1,2"/><path class="cls-4" d="M31,20.66A5.3,5.3,0,0,1,32.59,24"/><path class="cls-4" d="M34,21.38a6.39,6.39,0,0,1,1.27,2.38"/><path class="cls-4" d="M36.6,22.14a2.33,2.33,0,0,1,.77,1.66"/><path class="cls-4" d="M49.05,26.64a9.16,9.16,0,0,1,3.39-2.44"/><path class="cls-4" d="M52.49,26.7A8.68,8.68,0,0,1,55.18,25"/><path class="cls-4" d="M55.52,27.53a14.89,14.89,0,0,1,1.88-1.24"/><path class="cls-4" d="M58.15,28.31a1.7,1.7,0,0,1,1.45-.62"/><path class="cls-4" d="M60.33,29.21A.78.78,0,0,1,61,29"/><path class="cls-4" d="M61.78,29.87l.26-.1"/><path class="cls-4" d="M17.19,28.06a1.68,1.68,0,0,1,1.32,1.39"/><path class="cls-4" d="M20,28.06a3.18,3.18,0,0,1,1.55,1.43"/><path class="cls-4" d="M23.48,28.86a5.32,5.32,0,0,1,1.33,1.39"/><path class="cls-4" d="M26.12,29.67a2.51,2.51,0,0,1,.92,1.1"/><path class="cls-4" d="M22.47,36.2a3.64,3.64,0,0,1,2,.61,5.89,5.89,0,0,1,1.45,1.41"/><path class="cls-4" d="M25.9,35.6A3.55,3.55,0,0,1,28,36.69a9.28,9.28,0,0,1,1.34,1.85"/><path class="cls-4" d="M29.54,35.73a3.29,3.29,0,0,1,2.25,2.11"/><path class="cls-4" d="M32.56,35.83a2.49,2.49,0,0,1,1.33,1.3"/><path class="cls-4" d="M15.06,44.46a.89.89,0,0,1,.25.81"/><path class="cls-4" d="M17.13,45.7a2.34,2.34,0,0,1,.15,1.52"/><path class="cls-4" d="M18.84,47.12a3.2,3.2,0,0,1-.05,2.18"/><path class="cls-4" d="M20.53,49.3a4,4,0,0,1,.06,2.46"/><path class="cls-4" d="M22.06,51.86a3.49,3.49,0,0,1,.16,1.81"/><path class="cls-4" d="M23.31,54.19a2.28,2.28,0,0,1,0,1"/><path class="cls-4" d="M28.66,53.27a2.72,2.72,0,0,0,1.93-.59"/><path class="cls-4" d="M29.07,50.9a3,3,0,0,0,2.05-.67"/><path class="cls-4" d="M29.91,48.49A1.6,1.6,0,0,0,31.58,48"/><path class="cls-4" d="M31.2,46.42a2.93,2.93,0,0,0,.93-.16"/><path class="cls-4" d="M31,56.27a4.88,4.88,0,0,1,1.14-2.74"/><path class="cls-4" d="M32.58,55.71a10.89,10.89,0,0,1,1-2.53"/><path class="cls-4" d="M34.32,54.62a6.47,6.47,0,0,1,1.18-2.15"/><path class="cls-4" d="M36.29,53a10.69,10.69,0,0,0,.93-1.2"/><path class="cls-4" d="M38,52.43l.57-.57"/><path class="cls-4" d="M43.85,56.25a3.21,3.21,0,0,1,1.57,3.1"/><path class="cls-4" d="M47.08,57.19a2.71,2.71,0,0,1,1.33,1.65,3.24,3.24,0,0,1,0,2.79"/><path class="cls-4" d="M50,58.11a1.22,1.22,0,0,1,.75.72,5.09,5.09,0,0,1,.52,2.81,1.66,1.66,0,0,1-.44,1.08"/><path class="cls-4" d="M52.72,60.14a3.43,3.43,0,0,1,.18,3.1"/><path class="cls-4" d="M55,62.2a4.1,4.1,0,0,1,.26,1.51"/><path class="cls-4" d="M49.05,47.18a1.4,1.4,0,0,1,.12,1.51"/><path class="cls-4" d="M51.54,49a1.75,1.75,0,0,1,0,1.66"/><path class="cls-4" d="M53.62,49.92a2.53,2.53,0,0,1-.15,2.51"/><path class="cls-4" d="M55.72,51.82a5.85,5.85,0,0,1-.86,2.83"/><path class="cls-4" d="M56.88,54.09a3,3,0,0,1-.49,2.19"/><path class="cls-4" d="M57.6,56.14a1.88,1.88,0,0,1-.18,1.41"/><path class="cls-4" d="M41.68,69.68a2.3,2.3,0,0,1,1-.25,1.16,1.16,0,0,1,.91.44"/><path class="cls-4" d="M43.56,68.55a2.67,2.67,0,0,1,2,.62"/><path class="cls-4" d="M45.53,67.56a5.91,5.91,0,0,1,1.19.19,1.74,1.74,0,0,1,1,.65"/><path class="cls-4" d="M48.23,67.23a2.62,2.62,0,0,1,1.19.65"/><path class="cls-4" d="M18.6,60l.49,1.43"/><path class="cls-4" d="M20.51,60.76a1.21,1.21,0,0,1,.64.85,3.43,3.43,0,0,1,0,1.06"/><path class="cls-4" d="M22.57,62.63a2.44,2.44,0,0,1,.26,2.22"/><path class="cls-4" d="M24.65,63.91a2.25,2.25,0,0,1,.48,1.7"/><path class="cls-4" d="M26.77,65.48a2.72,2.72,0,0,1,.67.92"/><path class="cls-4" d="M28.65,67a1.9,1.9,0,0,1,0,1.33"/><path class="cls-4" d="M31.61,69.64a5.79,5.79,0,0,1-.31-1"/><path class="cls-4" d="M32.24,68.17,32.13,67"/><path class="cls-4" d="M33.11,66.7l-.21-1.14"/><path class="cls-4" d="M34.11,65.56a4.86,4.86,0,0,1,.09-1.42"/><path class="cls-4" d="M35.41,64.05c.06-.42.13-.83.23-1.24"/><path class="cls-4" d="M36.65,63A5,5,0,0,1,37,62"/><path class="cls-4" d="M16.81,70.46A2.27,2.27,0,0,1,18.22,72"/><path class="cls-4" d="M19.26,70a2.76,2.76,0,0,1,1.87,2"/><path class="cls-4" d="M22,69.22a3.61,3.61,0,0,1,2,2.36"/><path class="cls-4" d="M24.61,69.54A3.14,3.14,0,0,1,26.26,72"/><path class="cls-4" d="M27.83,71a5,5,0,0,1,.87,2"/><path class="cls-4" d="M7.1,82.49a3.43,3.43,0,0,1,1.79,2.18"/><path class="cls-4" d="M9.9,82.36a4,4,0,0,1,2.23,3.2"/><path class="cls-4" d="M13.41,83.24a4.89,4.89,0,0,1,3.12,4.24"/><path class="cls-4" d="M18.73,85.94a5.83,5.83,0,0,1,1.81,2.82"/><path class="cls-4" d="M32.72,87.12a2.68,2.68,0,0,1,1,2.15"/><path class="cls-4" d="M35.8,88.52a4.13,4.13,0,0,1,1.3,3.06"/><path class="cls-4" d="M38.91,90.81a2.85,2.85,0,0,1,1,1.28"/><path class="cls-4" d="M25.87,82.1a.37.37,0,0,0,.27-.5"/><path class="cls-4" d="M27.13,84.14a.58.58,0,0,0,.47-.42l-.46.43"/><path class="cls-4" d="M27.42,87.35l.42-.38"/><path class="cls-4" d="M51,83.79a7.24,7.24,0,0,1,2.82.18"/><path class="cls-4" d="M51.65,81.83a4,4,0,0,1,3.08.55"/><path class="cls-4" d="M53.05,79.59a5.09,5.09,0,0,1,2.44,1.19"/><path class="cls-4" d="M66.42,72.72a3.93,3.93,0,0,1,2.6.17"/><path class="cls-4" d="M67.54,74.84a3.58,3.58,0,0,1,3.59,1.06"/><path class="cls-4" d="M68.82,77.66a2.55,2.55,0,0,1,2.69.94"/><path class="cls-4" d="M69.75,80.38a2.46,2.46,0,0,1,2,.92"/><path class="cls-4" d="M65.7,67a4,4,0,0,0,.67-1"/><path class="cls-4" d="M67.62,66.75a2.18,2.18,0,0,0,.82-.86"/><path class="cls-4" d="M70.82,67.05a3.35,3.35,0,0,1,1.9-1"/><path class="cls-4" d="M73.27,68.44a3.78,3.78,0,0,1,2-1.12"/><path class="cls-4" d="M75.36,69.85a5.09,5.09,0,0,1,2.46-.63"/><path class="cls-4" d="M77,71.85a2.26,2.26,0,0,1,2,0"/><path class="cls-4" d="M77.73,73.6a4.42,4.42,0,0,1,2.5.6"/><path class="cls-4" d="M78.65,75.34a4.32,4.32,0,0,1,2.46,1.11"/><path class="cls-4" d="M59.83,62.52a1.35,1.35,0,0,1,1,.14"/><path class="cls-4" d="M60.19,60.47a2.45,2.45,0,0,1,2.44.83"/><path class="cls-4" d="M60.84,58.22a4.77,4.77,0,0,1,3.91,1.57"/><path class="cls-4" d="M64.09,57.44a3.34,3.34,0,0,1,2.62,2.1"/><path class="cls-4" d="M48.32,96.05v-.84"/><path class="cls-4" d="M49.6,95c.06-.42.13-.85.19-1.27"/><path class="cls-4" d="M51.58,93.59a2.85,2.85,0,0,1,.8-2.47"/><path class="cls-4" d="M54.37,92.49a3,3,0,0,1,1-2.71"/><path class="cls-4" d="M57.2,91.73a4.63,4.63,0,0,1,.94-2.37"/><path class="cls-4" d="M59.92,91.73A2.23,2.23,0,0,1,60.65,90"/><path class="cls-4" d="M62.61,91.9a1.64,1.64,0,0,1,.64-1.27"/><path class="cls-4" d="M65.17,92.15c.11-.28.21-.56.31-.84"/><path class="cls-4" d="M67.26,93c-.1-.14.08-.37.26-.33"/><path class="cls-4" d="M14.27,117.07a1.73,1.73,0,0,1,1.31.92"/><path class="cls-4" d="M16.78,116.18a2.47,2.47,0,0,1,2,1.81"/><path class="cls-4" d="M19.93,115.54a2.44,2.44,0,0,1,1.6,1"/><path class="cls-4" d="M22.8,115.55a.75.75,0,0,1,.74.41"/><path class="cls-4" d="M17.7,110.69a1.74,1.74,0,0,0,1.43-.73"/><path class="cls-4" d="M19.56,112.26a2.44,2.44,0,0,0,1.93-1.47"/><path class="cls-4" d="M23.11,112.7a2,2,0,0,0,1.05-1.32"/><path class="cls-4" d="M25.4,113.08a2.21,2.21,0,0,0,.83-1.44"/><path class="cls-4" d="M27.82,112.32a1.45,1.45,0,0,0,.56-.76"/><path class="cls-4" d="M7.12,107.31a1,1,0,0,1,1,.19"/><path class="cls-4" d="M9.1,106.5a.7.7,0,0,1,1,.21"/><path class="cls-4" d="M11.51,104.83a1.31,1.31,0,0,1,1.32.16"/><path class="cls-4" d="M13.25,102.84a1.23,1.23,0,0,1,1.12.06"/><path class="cls-4" d="M14.84,100.47a.68.68,0,0,1,.93.15"/><path class="cls-4" d="M16.42,98.37a1.25,1.25,0,0,1,1.21.2"/><path class="cls-4" d="M18.91,97.08a.92.92,0,0,1,1.1.5"/><path class="cls-4" d="M21.6,96.49a.53.53,0,0,1,.64.41"/><path class="cls-4" d="M26.71,126.89a1.17,1.17,0,0,1,.92-.44"/><path class="cls-4" d="M26.87,124.59a2.28,2.28,0,0,1,1.32-.66"/><path class="cls-4" d="M26.82,122.33a3.85,3.85,0,0,1,2.85-1"/><path class="cls-4" d="M27.53,119.94a3.72,3.72,0,0,1,3.07-.68"/><path class="cls-4" d="M29.57,117.73a2.64,2.64,0,0,1,2.32-.56"/><path class="cls-4" d="M31.16,115.54a3.52,3.52,0,0,1,1.48-.11"/><path class="cls-4" d="M37.55,121.64a3,3,0,0,1,1.12,1.94"/><path class="cls-4" d="M40.71,122.57a3.53,3.53,0,0,1,.83,2.37"/><path class="cls-4" d="M42.85,123.4a1.3,1.3,0,0,1,.72.68,6.37,6.37,0,0,1,.82,3.23"/><path class="cls-4" d="M46.34,126.49a1.75,1.75,0,0,1,.55,1.42"/><path class="cls-4" d="M48.31,127a1.13,1.13,0,0,1,.28.85"/><path class="cls-4" d="M48.61,109.8a1.22,1.22,0,0,0,.61-1.12"/><path class="cls-4" d="M49.33,112.65a3.88,3.88,0,0,0,.93-1.6"/><path class="cls-4" d="M49.44,115.55a3.83,3.83,0,0,0,1.3-2.13"/><path class="cls-4" d="M49.15,118.42a1.48,1.48,0,0,0,.64-1.36"/><path class="cls-4" d="M49.24,121.12l.48-.67"/><path class="cls-4" d="M49.62,123a1.63,1.63,0,0,0,.46-.52"/><path class="cls-4" d="M54.52,125a4.84,4.84,0,0,1,0-2"/><path class="cls-4" d="M56,124a6.69,6.69,0,0,1,0-2.71"/><path class="cls-4" d="M57.5,122.31a10.9,10.9,0,0,1,.19-2.79"/><path class="cls-4" d="M59.36,120.45a22,22,0,0,1,.08-3.14"/><path class="cls-4" d="M60.77,117.57a10.72,10.72,0,0,0,.06-2.12"/><path class="cls-4" d="M62.33,114.69l.27-.93"/><path class="cls-4" d="M64.46,112.83v-.94"/><path class="cls-4" d="M65.78,112.4c0-.31.1-.62.16-.93"/><path class="cls-4" d="M67.15,111.64a3.91,3.91,0,0,0,.19-1.27"/><path class="cls-4" d="M54.07,120.2a2.57,2.57,0,0,0,1.19-.28"/><path class="cls-4" d="M55.44,118.46a7.56,7.56,0,0,0,1-.6"/><path class="cls-4" d="M56.29,116.39a6.14,6.14,0,0,0,1.49-.18"/><path class="cls-4" d="M57.69,114.6a3.25,3.25,0,0,0,1.3-.33"/><path class="cls-4" d="M58.89,113a1.06,1.06,0,0,0,.84-.25"/><path class="cls-4" d="M60,111.21l.44-.09-.43.1"/><path class="cls-4" d="M60.47,109.94l.28-.09"/><path class="cls-4" d="M67.48,21.31l1,.75a.17.17,0,0,0,.15.06s.06-.1,0-.1"/><path class="cls-4" d="M66.56,18.1A7.32,7.32,0,0,0,68.83,20"/><path class="cls-4" d="M66.87,15.17a4.86,4.86,0,0,0,2.07,2.07"/><path class="cls-4" d="M67.28,12.14a7.49,7.49,0,0,0,2.3,2.59"/><path class="cls-4" d="M68.36,10.16a3.66,3.66,0,0,0,1.83,2.1"/><path class="cls-4" d="M69,8.53l1,1.06"/><path class="cls-4" d="M72,22.67a2.91,2.91,0,0,1,.11-.83,1,1,0,0,1,.56-.63"/><path class="cls-4" d="M73.77,22.21A2.39,2.39,0,0,1,74,21.09"/><path class="cls-4" d="M75.39,21.31l.27-1"/><path class="cls-4" d="M76.73,20.69l.06-.34"/><path class="cls-4" d="M79.09,23.21a2.32,2.32,0,0,0,1.17,0"/><path class="cls-4" d="M80,24.62a2.35,2.35,0,0,0,1.73,0"/><path class="cls-4" d="M81.18,26.56a2.93,2.93,0,0,0,1.47-.14"/><path class="cls-4" d="M82.66,28A3.78,3.78,0,0,0,84,28"/><path class="cls-4" d="M84.63,29h.31"/><path class="cls-4" d="M88.77,27.9a4.58,4.58,0,0,1,.06-1.69"/><path class="cls-4" d="M90.74,27a9.23,9.23,0,0,0-.12-1.28A1.42,1.42,0,0,1,91,24.49"/><path class="cls-4" d="M92.12,25.59a10,10,0,0,1-.1-2.25"/><path class="cls-4" d="M93.39,23.34a6.1,6.1,0,0,1,.19-1.75"/><path class="cls-4" d="M94.56,21.93a1.54,1.54,0,0,0,.13-.79"/><path class="cls-4" d="M95.93,21.2l.13-.33"/><path class="cls-4" d="M90.55,30.38a1.32,1.32,0,0,0,1.17-.4"/><path class="cls-4" d="M92,31.23a2.08,2.08,0,0,1,1-.45"/><path class="cls-4" d="M93.77,31.64a4,4,0,0,0,.78-.37"/><path class="cls-4" d="M95.43,32.19a.49.49,0,0,1,.37-.12"/><path class="cls-4" d="M85.56,9.15c.12.28.24.56.37.84"/><path class="cls-4" d="M86.18,7.29a2.81,2.81,0,0,1,.3.84"/><path class="cls-4" d="M86.61,5.37a6.47,6.47,0,0,1,.48,1.08"/><path class="cls-4" d="M87.78,4a1.62,1.62,0,0,1,.12.57"/><path class="cls-4" d="M89.22,16.59c-.07-.53-.14-1.06-.2-1.59"/><path class="cls-4" d="M90.68,15a10.93,10.93,0,0,1-.25-2.48"/><path class="cls-4" d="M92.32,14.1A11.39,11.39,0,0,1,92,11.51"/><path class="cls-4" d="M94,12.53v-1.9c0-.08,0-.19.12-.19"/><path class="cls-4" d="M95.56,11.62a3,3,0,0,1,0-.95"/><path class="cls-4" d="M96.78,11.4a1.19,1.19,0,0,0,.07-.56"/><path class="cls-4" d="M78.65,8.75a1.48,1.48,0,0,0,.61.52"/><path class="cls-4" d="M79,10.89a1.08,1.08,0,0,0,.86.58"/><path class="cls-4" d="M80,13.53a1.76,1.76,0,0,0,1.35.43"/><path class="cls-4" d="M81.12,15.62A1.72,1.72,0,0,0,83,16"/><path class="cls-4" d="M82.6,17.36a3.82,3.82,0,0,0,2,.14"/><path class="cls-5" d="M41.19,36.39a1.34,1.34,0,0,0-.07-.39,2,2,0,0,0-.14-.3l0,0a2.2,2.2,0,0,0-.2-.23l0,0-.14-.09a.83.83,0,0,0-.15-.11h0a2.68,2.68,0,0,0-.3-.12L40,35l-.18,0-.18,0h-.08l-.33,0h0l-.06,0-.31.12h0l-.06,0a1.59,1.59,0,0,0-.33.25c-.07.08-.14.15-.2.23l0,0v0a2.55,2.55,0,0,0-.13.29.14.14,0,0,0,0,.06,1.86,1.86,0,0,0,0,.34v0c0,.1,0,.21,0,.31a.14.14,0,0,0,0,.06,1,1,0,0,0,.18.36c.07.08.13.17.2.24l0,0,0,0,.26.19.07,0,.18.06.17.07.08,0a3.18,3.18,0,0,0,.38,0h0l.34,0,.25-.08.06,0,0,0h0l0,0,.25-.18,0,0,.2-.24v0a2.2,2.2,0,0,0,.15-.31,1,1,0,0,0,.05-.25A.84.84,0,0,0,41.19,36.39Z"/><path class="cls-5" d="M45,34.88a1.88,1.88,0,0,0,0-.33.19.19,0,0,0,0-.07l-.12-.27,0,0,0-.06a2,2,0,0,0-.28-.3,1.41,1.41,0,0,0-.35-.23l-.3-.12h0a2.52,2.52,0,0,0-.37-.05h-.07l-.33,0H43a2,2,0,0,0-.31.12l0,0a1.6,1.6,0,0,0-.25.18h0a1.32,1.32,0,0,0-.22.26,1.14,1.14,0,0,0-.17.35,1.59,1.59,0,0,0-.06.38v.08c0,.11,0,.21,0,.31a1.61,1.61,0,0,0,.16.38,1.61,1.61,0,0,0,.57.55l0,0,.15.06.15.06h.07a1.44,1.44,0,0,0,.89-.1l.14-.08h0c.09,0,.36-.16.28-.11l.12-.08a.86.86,0,0,0,.3-.3v0a2.06,2.06,0,0,0,.12-.26v0l0-.06A1.51,1.51,0,0,0,45,34.88Z"/><path class="cls-5" d="M45.27,43.48a.88.88,0,0,0-.24-.34l-.09-.07a1.73,1.73,0,0,0-.23-.29,1.55,1.55,0,0,0-.79-.44,2.65,2.65,0,0,0-.38-.05h-.1a2.05,2.05,0,0,0-.49.06,1.79,1.79,0,0,0-.44.16l-.08.05a2.73,2.73,0,0,0-.3.21L42,43l0-.14a2.13,2.13,0,0,0-1-1.13,1,1,0,0,0,.11-.23l0-.05v0a1.5,1.5,0,0,0,.17-.65.29.29,0,0,0,0-.13h0a1.77,1.77,0,0,0-.05-.45.93.93,0,0,0,0-.13,1.85,1.85,0,0,0-.19-.37,1.83,1.83,0,0,0-.62-.55,1.85,1.85,0,0,0-.39-.15l-.37,0H39.5a1.79,1.79,0,0,0-1.09.43l-.1.09a2.33,2.33,0,0,0-.25.32,2.83,2.83,0,0,0-.16.36,1.46,1.46,0,0,0-.07.4.66.66,0,0,0,0,.14c0,.11,0,.22,0,.33s0,.05,0,.07.09.2.14.3,0,0,0,.06l0,.05a2.85,2.85,0,0,0,.23.26,1.65,1.65,0,0,0,.71.39l.12,0,.08,0h0a2,2,0,0,0-.25.18,1.68,1.68,0,0,0-.25.29l-.08.12a1.78,1.78,0,0,0-.23.74v.12c0,.11,0,.22,0,.33a.64.64,0,0,1,0,.07,1.43,1.43,0,0,0,.43.64,2.69,2.69,0,0,0,.27.2l.07,0,.33.13.07,0a2.06,2.06,0,0,0,.89,0h0a1.07,1.07,0,0,0,.38-.13l.05,0,0,0,.06,0a2.11,2.11,0,0,0,.57-.49,1.88,1.88,0,0,0,.18.38,1.06,1.06,0,0,0,.16.21,1.54,1.54,0,0,0,.17.19,1.94,1.94,0,0,0,.29.21,1,1,0,0,0,.17.19,1.21,1.21,0,0,0,.82.31,1.23,1.23,0,0,0,.82-.31l.09-.1,0,0a.72.72,0,0,0,.3-.3l.06-.09.15-.12a1.78,1.78,0,0,0,.22-.26l0-.06a1.8,1.8,0,0,0,.14-.31,1.41,1.41,0,0,0,0-.35A.86.86,0,0,0,45.27,43.48Z"/><path class="cls-5" d="M38.31,45.77c0-.1,0-.21,0-.31v0l0-.07a1.75,1.75,0,0,0-.15-.31,2,2,0,0,0-.22-.27.85.85,0,0,0-.14-.1l-.14-.1a1.14,1.14,0,0,0-.48-.14,1.12,1.12,0,0,0-.51,0,2.2,2.2,0,0,0-.32.12l-.05,0a1.42,1.42,0,0,0-.49.45,1.09,1.09,0,0,0-.19.63h0l0,.28v0a1.19,1.19,0,0,0,.32.51.61.61,0,0,0,.16.12.94.94,0,0,0,.09.12.89.89,0,0,0,.33.27l.27.11a1.3,1.3,0,0,0,.62,0l.28-.11a1.15,1.15,0,0,0,.41-.38.16.16,0,0,0,0-.07c0-.09.09-.18.13-.27l0-.05s0,0,0-.07a2.87,2.87,0,0,0,0-.31v0A.17.17,0,0,0,38.31,45.77Z"/><path class="cls-5" d="M34.88,47.55c0-.11,0-.21-.05-.32a.58.58,0,0,0-.12-.27l-.09-.11a.94.94,0,0,0-.32-.27l0,0a2.49,2.49,0,0,0-.29-.11h0l-.32,0h0a1.67,1.67,0,0,0-.39.06,1.48,1.48,0,0,0-.35.13,1.46,1.46,0,0,0-.46.43.92.92,0,0,0-.16.31,1.16,1.16,0,0,0,0,.64,0,0,0,0,0,0,0,.62.62,0,0,0,0,.33.71.71,0,0,0,.14.39l.18.22a1.14,1.14,0,0,0,.51.27l.31,0a1.17,1.17,0,0,0,.58-.15,2,2,0,0,0,.32-.21l.08-.07,0,0a2.32,2.32,0,0,0,.21-.25l.06-.08a2.07,2.07,0,0,0,.15-.34.3.3,0,0,0,0-.1c0-.12,0-.24.05-.36Z"/><path class="cls-5" d="M38,49.12s0,0,0,0a1.11,1.11,0,0,0-.15-.31,1.32,1.32,0,0,0-.53-.49h0l-.2-.14,0,0h0l-.3-.12a1.81,1.81,0,0,0-.38,0,1.1,1.1,0,0,0-.25,0l-.19,0h0l-.29.11a1.44,1.44,0,0,0-.31.22,1.66,1.66,0,0,0-.13.14,1,1,0,0,0-.12.16l0,0a2.55,2.55,0,0,0-.13.29,1.59,1.59,0,0,0-.06.36.33.33,0,0,0,0,.1,1,1,0,0,0,0,.17l0,.18,0,.09a3.31,3.31,0,0,0,.15.33c.07.1.16.19.24.29a1.5,1.5,0,0,0,.37.28l.08,0a2.12,2.12,0,0,0,.36.13,1.86,1.86,0,0,0,.78,0,1.2,1.2,0,0,0,.42-.17l.25-.18,0,0a1.49,1.49,0,0,0,.23-.27.25.25,0,0,0,0-.07,2.59,2.59,0,0,0,.14-.29s0,0,0,0,0,0,0,0,0-.21.05-.31v-.08A3.06,3.06,0,0,0,38,49.12Z"/><path class="cls-5" d="M43.88,47.36a2.38,2.38,0,0,0-.06-.37l0-.13a1.84,1.84,0,0,0-.32-.54,1.86,1.86,0,0,0-.5-.42,2,2,0,0,0-.38-.15l-.15,0a1.75,1.75,0,0,0-.56-.05,2.13,2.13,0,0,0-.56.1,2.31,2.31,0,0,0-.51.22,2.43,2.43,0,0,0-.32.24,1.8,1.8,0,0,0-.26.29,1.57,1.57,0,0,0-.19.33,1.23,1.23,0,0,0-1.58.63.88.88,0,0,0-.15.52,1.13,1.13,0,0,0,1.16,1.06,1.26,1.26,0,0,0,.89-.39,1.8,1.8,0,0,0,.19.2,2,2,0,0,0,.35.25l.15.09.16.06-.09,0,0,0-.32.13s0,0,0,0a1.65,1.65,0,0,0-.27.19l-.09.07a2.43,2.43,0,0,0-.24.3,1.49,1.49,0,0,0-.19.45,2.38,2.38,0,0,0-.06.37V51c0,.12,0,.25.06.37a1.87,1.87,0,0,0,.16.35.44.44,0,0,0,.08.11,1.67,1.67,0,0,0,.28.31,1.64,1.64,0,0,0,.29.2,2.44,2.44,0,0,0,.34.14l.09,0,.17,0,.19,0h0l.34,0H42a2.47,2.47,0,0,0,.34-.14l0,0a2.4,2.4,0,0,0,.26-.18,1.5,1.5,0,0,0,.21-.24,1.94,1.94,0,0,0,.3-.33.35.35,0,0,0,0-.08,1.56,1.56,0,0,0,.14-.33c0-.11,0-.22,0-.32v-.06c0-.1,0-.22,0-.32s0,0,0-.06a1.64,1.64,0,0,0-.41-.63.6.6,0,0,0-.08-.08,4,4,0,0,0-.34-.22l-.14-.07a1.16,1.16,0,0,0,.48-.25l.1-.12.1,0,.32-.23a1.68,1.68,0,0,0,.25-.29.36.36,0,0,0,.07-.1,1.52,1.52,0,0,0,.2-.47A2.07,2.07,0,0,0,43.88,47.36Z"/><path class="cls-5" d="M46.67,47.75h0l-.12-.26h0a1.45,1.45,0,0,0-.19-.23l0,0a1.39,1.39,0,0,0-.55-.29,1.34,1.34,0,0,0-.66,0,1,1,0,0,0-.3.11,1.46,1.46,0,0,0-.24.17h0l-.19.23h0a1.23,1.23,0,0,0-.12.26v0a1.15,1.15,0,0,0,0,.61v0h0l.12.25h0v0a1.5,1.5,0,0,0,.2.24l0,0a.78.78,0,0,0,.37.22.87.87,0,0,0,.45.09.83.83,0,0,0,.44-.09.81.81,0,0,0,.38-.22l.18-.21v0l.09-.11a1,1,0,0,0,.17-.55A1,1,0,0,0,46.67,47.75Z"/><path class="cls-5" d="M47.51,41.47a1.19,1.19,0,0,0-.08-.16.93.93,0,0,1,0-.1h0v0h0L47.16,41v0a1.73,1.73,0,0,0-.28-.19,1.39,1.39,0,0,0-.69-.18,1.42,1.42,0,0,0-.36,0l-.06,0a1.59,1.59,0,0,0-.33.13,1.79,1.79,0,0,0-.28.2.08.08,0,0,0,0,0,1.88,1.88,0,0,0-.22.26,2,2,0,0,0-.14.3.13.13,0,0,0,0,.06,1.21,1.21,0,0,0-.05.33c0,.1,0,.2.05.3a0,0,0,0,0,0,0,1.16,1.16,0,0,0,.35.55,1.52,1.52,0,0,0,.6.32l0,0h.09a1.65,1.65,0,0,0,.31,0,2.08,2.08,0,0,0,.36-.05h0l.28-.1h0l.15-.1.17-.12,0,0a1.78,1.78,0,0,0,.22-.26,1.32,1.32,0,0,0,.19-.64A.83.83,0,0,0,47.51,41.47Z"/><path class="cls-5" d="M51.05,37.66a.5.5,0,0,0,0-.13,1.31,1.31,0,0,0-.17-.36,2.42,2.42,0,0,0-.25-.31l-.1-.09a3,3,0,0,0-.35-.23,2.16,2.16,0,0,0-.84-.2,2.84,2.84,0,0,0-.42,0l-.15,0a2.66,2.66,0,0,0-.39.16,1.94,1.94,0,0,0-.33.23,1.57,1.57,0,0,0-.18.19,1.12,1.12,0,0,0-.16.22,1.64,1.64,0,0,0-.14.3.14.14,0,0,0,0,.06,1.25,1.25,0,0,0,0,.19.77.77,0,0,0,0,.15l0,0,0,0,0,0-.09-.11a.9.9,0,0,0-.1-.11l0,0-.25-.18,0,0a1.74,1.74,0,0,0-.38-.14l-.32,0h0a3.29,3.29,0,0,0-.36,0,1.18,1.18,0,0,0-.37.14l-.05,0-.25.18,0,0,0,0,0,0-.17.2,0-.2a.19.19,0,0,0,0-.08.68.68,0,0,1,0-.14s0,0,0-.05v0c0-.09-.08-.18-.12-.27l0,0-.2-.22v0l0,0-.25-.18h0l-.06,0-.32-.13h-.06a2.23,2.23,0,0,0-.36-.05H43.2l-.18,0-.18,0-.05,0h0l-.3.12-.05,0h0l-.26.18s0,0,0,0l0,0c-.07.08-.14.15-.2.23l0,0,0,0s0,.11-.08.17a.91.91,0,0,0-.1.33,1.64,1.64,0,0,0,0,.23v.06c0,.11,0,.22.05.33s0,0,0,.06,0,0,0,.06.09.2.15.3l0,0,.19.23,0,0a.78.78,0,0,0,.37.22.9.9,0,0,0,.23.08h-.07l-.32.13,0,0a1.68,1.68,0,0,0-.4.3,3.45,3.45,0,0,0-.23.28l0,.05-.14.3a1,1,0,0,0,0,.24.66.66,0,0,0,0,.24,1.28,1.28,0,0,0,.21.65l0,0a1.43,1.43,0,0,0,.2.23.15.15,0,0,0,.06.05,1.67,1.67,0,0,0,.29.21l.35.13.08,0,.34,0h0a2.21,2.21,0,0,0,.37,0l.22-.08a1.89,1.89,0,0,0,.21-.09,1.57,1.57,0,0,0,.28-.21c.07-.07.14-.16.2-.23l0,0,0,0,.13-.28s0-.05,0-.08,0-.16,0-.25h0a2.93,2.93,0,0,0,0-.29v-.05a2.5,2.5,0,0,0,0-.29s0,0,0,0a1.32,1.32,0,0,0-.37-.59,1.52,1.52,0,0,0-.62-.35h-.07l-.13,0h0l.33,0h0a1.55,1.55,0,0,0,.31,0l.28-.11a1.23,1.23,0,0,0,.33-.26c0,.08,0,.17,0,.24s0,0,0,.06h0l.12.26,0,0a1.33,1.33,0,0,0,.21.26l0,0,.25.18.28.11h.06a1.46,1.46,0,0,0,.47.1h0l.32,0,.06,0a.67.67,0,0,0,.15-.06.52.52,0,0,0,.16-.06l0,0,.24-.18h0l0,0a1.83,1.83,0,0,0,.23-.29c0-.09.09-.19.13-.29s0,0,0,0a2.7,2.7,0,0,0,0-.28.86.86,0,0,0,.1.16,1.64,1.64,0,0,0,.21.25l.06,0a1.55,1.55,0,0,0,.71.36,2,2,0,0,0,.84,0,1.67,1.67,0,0,0,.7-.36h0l.24-.11a1.22,1.22,0,0,0,.44-.4L51,38.5a.65.65,0,0,0,.1-.41v0A1.6,1.6,0,0,0,51.05,37.66Z"/><path class="cls-5" d="M46.14,34.65A1.12,1.12,0,0,0,45,35.71a1.16,1.16,0,1,0,1.16-1.06Z"/><path class="cls-5" d="M49.53,44.4v0a2.89,2.89,0,0,0,0-.29.14.14,0,0,0,0-.06,1.49,1.49,0,0,0-.36-.57l-.05,0a2,2,0,0,0-.3-.21l-.06,0a2.37,2.37,0,0,0-.34-.13A2.32,2.32,0,0,0,47.9,43h-.08a2.35,2.35,0,0,0-.37,0,2.23,2.23,0,0,0-.34.12l-.06,0a2,2,0,0,0-.28.2l0,0a.55.55,0,0,1-.1.11l-.1.13,0,0a2.39,2.39,0,0,0-.13.28.19.19,0,0,0,0,.07,1.65,1.65,0,0,0,0,.31v0a1.48,1.48,0,0,0,.05.35,1,1,0,0,0,.08.18,1.24,1.24,0,0,0,.1.2l0,0a2.31,2.31,0,0,0,.2.24l.07.06c.08.07.18.13.26.19l0,0,.05,0,.31.12.08,0,.35,0h0a1.64,1.64,0,0,0,.75-.19.94.94,0,0,0,.32-.27l0-.06a1.16,1.16,0,0,0,.22-.26A1.28,1.28,0,0,0,49.53,44.4Z"/><path class="cls-5" d="M51,45.67a1.06,1.06,0,1,0,0,2.12,1.06,1.06,0,1,0,0-2.12Z"/><path class="cls-5" d="M52.72,40.51v0l0-.08a1.64,1.64,0,0,0-.14-.3l0,0a2.2,2.2,0,0,0-.2-.23l0,0a2.28,2.28,0,0,0-.3-.21,2,2,0,0,0-.34-.13h0l-.31,0c-.31,0-.21,0-.32,0l-.27.11h0a1.28,1.28,0,0,0-.45.41,1,1,0,0,0-.15.31,1,1,0,0,0,0,.35,1.16,1.16,0,0,0-.8-.3,1.06,1.06,0,1,0,0,2.12,1.2,1.2,0,0,0,1.14-.82.41.41,0,0,0,0,.09l.18.21a1.07,1.07,0,0,0,.28.19h-.12a2.52,2.52,0,0,0-.33.13s0,0,0,0a2.2,2.2,0,0,0-.25.17l0,0,0,0a2.52,2.52,0,0,0-.21.25,1.51,1.51,0,0,0-.09.18c0,.05-.05.11-.07.17v0c0,.1,0,.2,0,.3a.13.13,0,0,0,0,.06v0s0,.12,0,.15a.88.88,0,0,0,0,.16s0,0,0,.05a.52.52,0,0,0,.06.13l.06.14,0,0a1.64,1.64,0,0,0,.21.25l0,0a2.7,2.7,0,0,0,.33.22l.29.11h.09l.33,0h.09a1.59,1.59,0,0,0,.68-.17h0l.24-.17.19-.23.05-.06,0,0a2.36,2.36,0,0,0,.12-.28l0-.07v0c0-.1,0-.21,0-.31V43.4a2.21,2.21,0,0,0,0-.35l0-.08a.81.81,0,0,0-.2-.36,1,1,0,0,0-.33-.27.89.89,0,0,0-.39-.12h0a1.29,1.29,0,0,0,.38-.12,1.94,1.94,0,0,0,.29-.21l0,0,.1-.12.11-.12,0-.06a1.92,1.92,0,0,0,.14-.32s0,0,0,0,0-.2,0-.3v-.08C52.75,40.72,52.73,40.62,52.72,40.51Z"/><path class="cls-5" d="M52.74,35.42l-.09-.25a4,4,0,0,0-.17-.36l-.07-.11-.22-.26,0,0a2,2,0,0,0-.33-.24A1.62,1.62,0,0,0,51,34H51l-.36,0h0a3,3,0,0,0-.32.12,1.74,1.74,0,0,0-.2.13,1.4,1.4,0,0,0-.37.36,1.17,1.17,0,0,0-.21.69,2.93,2.93,0,0,0,0,.29v0a1.51,1.51,0,0,0,.13.29,1.42,1.42,0,0,0,.25.3,1.58,1.58,0,0,0,.72.36,2.14,2.14,0,0,0,.5.06l.2.07a1.3,1.3,0,0,0,.62,0,1.2,1.2,0,0,0,.51-.27A1,1,0,0,0,52.74,35.42Z"/><path class="cls-5" d="M56.53,41.7a1.4,1.4,0,0,0-.21-.68,1.4,1.4,0,0,0-.27-.33,1.26,1.26,0,0,0-.37-.27,1.42,1.42,0,0,0-.42-.17,1.48,1.48,0,0,0-.47,0,1.78,1.78,0,0,0-.72.18,1,1,0,0,0-.34.24,1.3,1.3,0,0,0-.26.31,1.53,1.53,0,0,0-.16.37,1.5,1.5,0,0,0,0,.84,1.67,1.67,0,0,0,.11.23,1,1,0,0,0,.15.46l.18.21a1.23,1.23,0,0,0,.52.27,1.83,1.83,0,0,0,.47,0,2.06,2.06,0,0,0,.48-.07,1.9,1.9,0,0,0,.79-.43,1.54,1.54,0,0,0,.28-.34,2.23,2.23,0,0,0,.15-.31.29.29,0,0,0,0-.09A1.18,1.18,0,0,0,56.53,41.7Z"/><path class="cls-5" d="M53.84,43.89A1.12,1.12,0,0,0,52.68,45,1.14,1.14,0,0,0,53.84,46a1.06,1.06,0,1,0,0-2.12Z"/><path class="cls-5" d="M55.7,48.25c0-.1,0-.21,0-.31l0-.07c0-.1-.08-.19-.12-.29l0,0a1.44,1.44,0,0,0-.22-.27l-.06-.07-.29-.2-.08,0-.17-.07-.17-.06-.09,0a2.11,2.11,0,0,0-.38,0h0l-.32,0h0l-.07,0a2.75,2.75,0,0,0-.34.14,1.42,1.42,0,0,0-.34.25c-.07.07-.14.16-.2.23l0,0,0,.06a2.37,2.37,0,0,0-.15.32,1.66,1.66,0,0,0,0,.22.71.71,0,0,0,0,.21,2,2,0,0,0,0,.35,1.11,1.11,0,0,0,.16.39,1.09,1.09,0,0,0,.13.17.77.77,0,0,0,.15.16.82.82,0,0,0,.22.16l.07,0,.34.13a1.36,1.36,0,0,0,.45.06.09.09,0,0,0,.07,0l.38,0,.07,0h0l.3-.12.07,0,0,0,.26-.18,0,0a2.31,2.31,0,0,0,.2-.24l0,0v0c0-.09.09-.19.13-.28l0-.07c0-.1,0-.21,0-.31v-.08Z"/><path class="cls-5" d="M57.52,46.51a1.06,1.06,0,1,0,1.16,1.06A1.14,1.14,0,0,0,57.52,46.51Z"/><path class="cls-5" d="M59.64,50.73a.14.14,0,0,0,0-.06l-.12-.28,0,0,0,0a2.2,2.2,0,0,0-.2-.23.12.12,0,0,0,0-.05l0,0c-.09-.06-.17-.13-.26-.18l-.06,0-.33-.13-.08,0a1.66,1.66,0,0,0-.22,0l-.22,0a1.61,1.61,0,0,0-.44,0h0l-.3.11-.06,0a1.87,1.87,0,0,0-.29.2.93.93,0,0,0-.13.15,1,1,0,0,0-.13.16l0,0c0,.09-.09.19-.13.29a1.78,1.78,0,0,0-.07.39v.08c0,.12,0,.23.05.35a1.49,1.49,0,0,0,.17.39.21.21,0,0,0,0,.06l.2.24,0,0,0,0,.26.18.08,0a.72.72,0,0,0,.32.11l.08,0a2.33,2.33,0,0,0,.37,0h0l.34,0,.08,0a2,2,0,0,0,.34-.14,1.91,1.91,0,0,0,.36-.25c.08-.08.15-.18.23-.27a.43.43,0,0,0,0-.07l0,0a2.39,2.39,0,0,0,.13-.28.19.19,0,0,0,0-.07c0-.1,0-.21,0-.31v0A2.08,2.08,0,0,0,59.64,50.73Z"/><path class="cls-5" d="M60.17,53.13A1.12,1.12,0,0,0,59,54.19a1.16,1.16,0,1,0,1.16-1.06Z"/><path class="cls-5" d="M63.82,51.41a1.39,1.39,0,0,0-.42-.67,1.67,1.67,0,0,0-.35-.24l-.19-.08-.21-.07a1.58,1.58,0,0,0-.43-.05,1.36,1.36,0,0,0-.45.06,1.66,1.66,0,0,0-.6.32,1.25,1.25,0,0,0-.26.3,1.34,1.34,0,0,0-.21.72,1.4,1.4,0,0,0,.06.41,1.14,1.14,0,0,0,.17.35,1.94,1.94,0,0,0,.26.29l.05.11a1.15,1.15,0,0,0,.41.38l.28.1a1.3,1.3,0,0,0,.62,0,1.76,1.76,0,0,0,.78-.4,2.15,2.15,0,0,0,.29-.32,1.88,1.88,0,0,0,.18-.38,1.49,1.49,0,0,0,.08-.4A1.21,1.21,0,0,0,63.82,51.41Z"/><path class="cls-5" d="M63,54A1.12,1.12,0,0,0,61.88,55,1.14,1.14,0,0,0,63,56.09,1.06,1.06,0,1,0,63,54Z"/><path class="cls-5" d="M68.8,56.43a3.11,3.11,0,0,0,0-.32s0,0,0,0a1.26,1.26,0,0,0-.07-.16.8.8,0,0,0-.08-.16.85.85,0,0,0-.14-.19c0-.05-.09-.11-.15-.16a2.18,2.18,0,0,0-.31-.22l0,0a1.57,1.57,0,0,0-.3-.12l-.1,0-.35,0H67.1l-.35.05-.06,0L66.8,55l.09-.08a1.63,1.63,0,0,0,.23-.29c0-.09.1-.2.14-.29a.08.08,0,0,1,0,0,.43.43,0,0,1,0-.05,1.87,1.87,0,0,0,0-.32.13.13,0,0,0,0-.06c0-.06,0-.11,0-.17a.31.31,0,0,1,0-.1v-.1c0-.11,0-.21,0-.32a1.68,1.68,0,0,0-.15-.34,1.32,1.32,0,0,0-.3-.37,3.3,3.3,0,0,0-.3-.22l-.11-.06a2,2,0,0,0-.77-.19h-.11a1.93,1.93,0,0,0-.41.06,1.81,1.81,0,0,0-.67.36l-.08.07a3.22,3.22,0,0,0-.24.28.41.41,0,0,0,0,.09,2.11,2.11,0,0,0-.16.34.36.36,0,0,0,0,.1,2.38,2.38,0,0,0-.06.37.41.41,0,0,0,0,.11,1.59,1.59,0,0,0,.06.37,1.47,1.47,0,0,0,.15.34.21.21,0,0,0,.06.1,1.81,1.81,0,0,0,.25.3l.09.08a2.37,2.37,0,0,0,.33.22,1.92,1.92,0,0,0,.37.15,1.41,1.41,0,0,0,.54.07,1.77,1.77,0,0,0,.41-.05,1.06,1.06,0,0,0-.2.17,2.41,2.41,0,0,0-.21.24l0,0a2,2,0,0,0-.16.33l0,.08a1.24,1.24,0,0,0,0,.18,1.25,1.25,0,0,0,0,.19v0c0,.1,0,.21,0,.31a.32.32,0,0,0,0,.09,2.55,2.55,0,0,0,.13.29l0,0a.81.81,0,0,0,.12.14l.12.14c.06.06.13.1.19.15a1.48,1.48,0,0,0,.21.13l.05,0,.31.12.11,0a1.89,1.89,0,0,0,.82,0,.88.88,0,0,0,.39-.18.86.86,0,0,0,.3-.3l0,0,0,0,0,0,0,0,.2-.24s0,0,0,0l.13-.28a1.43,1.43,0,0,0,.06-.36A.22.22,0,0,0,68.8,56.43Z"/><path class="cls-5" d="M73.19,51.76c0-.11,0-.21,0-.32a.42.42,0,0,0,0-.1,1.75,1.75,0,0,0-.22-.43,1.65,1.65,0,0,0-.34-.36,2,2,0,0,0-.42-.27,2.16,2.16,0,0,0-.49-.16,2.19,2.19,0,0,0-.52,0c-.11,0-.28,0-.4.06l0,0-.32.12a1.74,1.74,0,0,0-.2.13l-.19.14a1.47,1.47,0,0,0-.44.76,1.83,1.83,0,0,0,0,.4,1.27,1.27,0,0,0-.34,0,1.06,1.06,0,1,0,0,2.11,1,1,0,0,0-.46.84,1.14,1.14,0,0,0,1.16,1.06,1.06,1.06,0,1,0,0-2.12,1.06,1.06,0,0,0,.39-.48l.08,0a1.84,1.84,0,0,0,.36.15l.09,0a1.64,1.64,0,0,0,1.55,0l0,0,.27-.19a.6.6,0,0,0,.08-.08,1.74,1.74,0,0,0,.41-.65l0-.11a2.32,2.32,0,0,0,0-.38A.13.13,0,0,0,73.19,51.76Z"/><path class="cls-5" d="M69.8,49.46a1.75,1.75,0,0,0-.15-.34,1.43,1.43,0,0,0-.24-.31l-.08-.07a1.9,1.9,0,0,0-.33-.22,2.12,2.12,0,0,0-.38-.13,2.27,2.27,0,0,0-.36,0h0a1.75,1.75,0,0,0-.33,0,1.35,1.35,0,0,0-.37.13l0,0-.24.17,0,0A1.23,1.23,0,0,0,67,49l0,0c0,.1-.1.2-.13.3a.58.58,0,0,0,0,.19c0-.09-.08-.18-.13-.27a.61.61,0,0,0-.07-.1,1.8,1.8,0,0,0-.26-.29l-.28-.2,0,0-.34-.13H65.6a.89.89,0,0,0-.46,0,.59.59,0,0,0-.23,0,1.55,1.55,0,0,0-.72.21,2.71,2.71,0,0,0-.25.17l0,0-.06.05a2.65,2.65,0,0,0-.21.26,1.59,1.59,0,0,0-.16.32.56.56,0,0,0,0,.12,1.7,1.7,0,0,0,0,.4,1.46,1.46,0,0,0,.07.39l.08.17a.76.76,0,0,0,.09.18,1.89,1.89,0,0,0,.25.31.43.43,0,0,0,.1.09,2,2,0,0,0,.33.24c.12.06.27.11.39.16l.13,0a2.2,2.2,0,0,0,.36,0h.07a1.33,1.33,0,0,0,.28,0,1.25,1.25,0,0,0,.74-.32l.07-.05.05,0,0,0a2.75,2.75,0,0,0,.22-.26,1.66,1.66,0,0,0,.16-.33.36.36,0,0,0,0-.11,2.74,2.74,0,0,0,.05-.28h0s0,.11.08.16a1.26,1.26,0,0,0,.29.31.41.41,0,0,0,0,.09l.19.21a1.07,1.07,0,0,0,.51.28l.31,0a1.18,1.18,0,0,0,.58-.14l.11-.06a2,2,0,0,0,.33-.24,2.21,2.21,0,0,0,.25-.3l0-.05c.05-.1.1-.2.14-.3a1.34,1.34,0,0,0,.07-.39A1.72,1.72,0,0,0,69.8,49.46Z"/><path class="cls-5" d="M72.35,54.18a1.06,1.06,0,1,0,1.16,1.06A1.13,1.13,0,0,0,72.35,54.18Z"/><path class="cls-5" d="M71.56,57.87a3,3,0,0,0,0-.33,2.59,2.59,0,0,0-.14-.29l0,0v0L71.14,57l0,0-.24-.17,0,0a1.34,1.34,0,0,0-.18-.07,1.46,1.46,0,0,0-.19-.07,1.39,1.39,0,0,0-.35,0H70l-.31,0h0l-.32.13,0,0-.24.17h0v0h0l-.19.23,0,0v0l-.13.27a.43.43,0,0,1,0,0,1.22,1.22,0,0,0,0,.17s0,.11,0,.16v0a1.88,1.88,0,0,0,0,.33v0h0l.12.26,0,.05a1.63,1.63,0,0,0,.17.2h0l0,0h0l.24.17h0c.09,0,.27.11.31.13h.05a1.38,1.38,0,0,0,.2,0l.2,0,.2,0a1.38,1.38,0,0,0,.2,0,1.42,1.42,0,0,0,.36-.14l.16-.1a1.43,1.43,0,0,0,.15-.11,2.43,2.43,0,0,0,.2-.25l0,0c0-.05.09-.2.12-.25v0a1.88,1.88,0,0,0,0-.33Z"/><path class="cls-5" d="M70.37,60.73a1.12,1.12,0,0,0-.3-.47l-.24-.16a1.17,1.17,0,0,0-.58-.15h-.12a1.08,1.08,0,0,0-.44.09,1,1,0,0,0-.38.22.88.88,0,0,0-.24.34A.86.86,0,0,0,68,61l0,.28a1,1,0,0,0,.29.47l.24.17a1.3,1.3,0,0,0,.58.14h.12A1,1,0,0,0,69.7,62a.94.94,0,0,0,.37-.22.88.88,0,0,0,.24-.34.83.83,0,0,0,.1-.41Z"/><path class="cls-5" d="M77.08,49.48a1.24,1.24,0,0,0,0-.18s0,0,0,0a1.75,1.75,0,0,0-.13-.28s0,0,0,0a2.31,2.31,0,0,0-.2-.24l-.08-.07a1.77,1.77,0,0,0-.32-.21L76,48.3h0a2,2,0,0,0-.41-.06h-.11l-.35,0H75a1.92,1.92,0,0,0-.36.14l-.11,0A1.85,1.85,0,0,0,74,49l-.06.1a2.21,2.21,0,0,0-.16.35,2.09,2.09,0,0,0-.08.5s0,.08,0,.11a2.63,2.63,0,0,0,.06.39.36.36,0,0,0,0,.11,2.55,2.55,0,0,0,.13.29l0,.06c.06.08.14.16.21.24l0,.05.27.19.06,0,.14.06a.7.7,0,0,0-.2.18.72.72,0,0,0-.2.36c-.05.21-.09.43-.14.64a.86.86,0,0,0,0,.42,1,1,0,0,0,.39.66,1.1,1.1,0,0,0,.38.33l.28.11a1.3,1.3,0,0,0,.62,0,2.09,2.09,0,0,0,.35-.13l.08,0a1.88,1.88,0,0,0,.53-.48,1.23,1.23,0,0,0,.19-.4s0,0,0,0,0-.21,0-.31v-.09a1.45,1.45,0,0,0-.2-.67l0-.07a3,3,0,0,0-.23-.27,1.42,1.42,0,0,0-.38-.26l-.11,0a1.53,1.53,0,0,0,.23-.17l.09-.07a3.47,3.47,0,0,0,.25-.29,1,1,0,0,0,.08-.14,1.31,1.31,0,0,0,.24-.28s0,0,0,0a2.28,2.28,0,0,0,.13-.28,1,1,0,0,0,0-.23,1.66,1.66,0,0,0,0-.22A1.13,1.13,0,0,0,77.08,49.48Z"/><path class="cls-5" d="M59.9,35.74a.82.82,0,0,0-.21-.36.73.73,0,0,0-.33-.27L59.09,35a1.38,1.38,0,0,0-.4,0,.87.87,0,0,0-.28,0,.9.9,0,0,0-.43.13l-.24.16a1.12,1.12,0,0,0-.3.47l0,.28a1,1,0,0,0,.08.37h-.11a1.9,1.9,0,0,0-.85.2l-.06,0s0-.08,0-.12v-.07a2.14,2.14,0,0,0-.06-.35,0,0,0,0,0,0,0,1.43,1.43,0,0,0-.13-.28.25.25,0,0,0,0-.07,2.2,2.2,0,0,0-.2-.23l0,0a2.64,2.64,0,0,0-.29-.21,1.76,1.76,0,0,0-.4-.16l-.07,0a2.35,2.35,0,0,0-.37,0h-.11l-.34,0-.07,0a2.09,2.09,0,0,0-.35.13l-.06,0-.25.19,0,0a1.86,1.86,0,0,0-.23.26l0,.07a1.43,1.43,0,0,0-.13.28s0,0,0,0a0,0,0,0,1,0,0c0,.11,0,.21,0,.32a.19.19,0,0,0,0,.08,2.33,2.33,0,0,0,.06.35.19.19,0,0,0,0,.07,1.73,1.73,0,0,0,.14.31,1.18,1.18,0,0,0-.62-.18,1.06,1.06,0,1,0,0,2.12A1.14,1.14,0,0,0,54,38.12a1.17,1.17,0,0,0-.13-.45.91.91,0,0,0,.26.13.87.87,0,0,0,.45.09.86.86,0,0,0,.23,0l.17,0c.12,0,.31,0,.37,0l.07,0,.15-.06.12,0a1.29,1.29,0,0,0,0,.39,3.06,3.06,0,0,0,.07.4,2.32,2.32,0,0,0,.16.36.41.41,0,0,0,.07.11,1.94,1.94,0,0,0,.26.31l.06.05a2.31,2.31,0,0,0,.28.19,2.09,2.09,0,0,0,.41.17,1.8,1.8,0,0,0,1,0,1.66,1.66,0,0,0,.43-.19l0,0,.18-.09a3.39,3.39,0,0,0,.29-.21,1.34,1.34,0,0,0,.11-.14.61.61,0,0,0,.12-.15,1.49,1.49,0,0,0,.25-.81,1.68,1.68,0,0,0-.23-.78,1.46,1.46,0,0,0-.16-.21H59l.29-.11h0l.23-.17h0a2.11,2.11,0,0,0,.19-.23.71.71,0,0,0,.14-.39A.75.75,0,0,0,59.9,35.74Z"/><path class="cls-5" d="M54.34,33v0a2.72,2.72,0,0,0,0-.3s0,0,0-.06v0c0-.09-.08-.18-.13-.27l0,0-.19-.23,0,0,0,0h0l-.24-.17,0,0,0,0-.3-.11h-.07l-.34,0H52.8l-.36,0-.24.08-.18.08-.17.11-.15.11,0,0a2.11,2.11,0,0,0-.19.23l0,0v0c0,.06-.1.2-.12.26v0a.07.07,0,0,0,0,0,2.74,2.74,0,0,0-.05.28v.08a2.93,2.93,0,0,0,.05.29.13.13,0,0,0,0,.06v0a2.24,2.24,0,0,0,.13.27l0,.06.11.13.11.12s0,0,0,.05l.25.18h0l0,0,.3.11.07,0h0a1.65,1.65,0,0,0,.32,0h0a.85.85,0,0,0,.39-.08,1.42,1.42,0,0,0,.4-.12l0,0,.25-.17,0,0,.19-.23,0,0,0,0,.12-.27v0s0,0,0-.05,0-.2.05-.3V33Z"/><path class="cls-5" d="M56.26,33.07a1.06,1.06,0,1,0,0,2.12,1.06,1.06,0,1,0,0-2.12Z"/><path class="cls-5" d="M72,28.14a2,2,0,0,0-.7-.67,2.3,2.3,0,0,0-1-.28,2,2,0,0,0-1,.24,1.87,1.87,0,0,0-.73.66,1.3,1.3,0,0,0-.18.42,1.44,1.44,0,0,0,0,.77,1.2,1.2,0,0,0,.21.46,2.26,2.26,0,0,0,.25.29,1.28,1.28,0,0,0,.26.2l-.25,0a1.23,1.23,0,0,0-.52.27,2.11,2.11,0,0,0-.19.23v0h0L68,31h0v0h0s0,.25,0,.28h0v0h0s0,.25,0,.28h0v0h0l.12.25v0h0l.19.21,0,0h0l.24.17h0l0,0,.14.06.15.06h0l.16,0,.15,0h0l.16,0,.17,0h0l.3-.11h0l.12-.09.12-.08h0a1.37,1.37,0,0,0,.19-.23h0a.38.38,0,0,0,.06-.13l.06-.13s0,0,0,0h0l0-.28h0v0a1.67,1.67,0,0,0-.05-.31.69.69,0,0,0-.07-.15.71.71,0,0,0-.07-.16h0l-.07-.08.17,0a1.3,1.3,0,0,0,.58-.14,1.88,1.88,0,0,0,.75-.64,1.69,1.69,0,0,0,.31-.91A1.62,1.62,0,0,0,72,28.14Z"/><path class="cls-5" d="M73.27,27.3a1.06,1.06,0,1,0,0,2.12,1.06,1.06,0,1,0,0-2.12Z"/><path class="cls-5" d="M80.86,31.22a.88.88,0,0,0,0-.16.05.05,0,0,0,0,0,2,2,0,0,0-.11-.26h0v0a2.08,2.08,0,0,0-.21-.25l0,0a2.22,2.22,0,0,0-.27-.19l0,0h0L80,30.18l-.15-.05h0a1.3,1.3,0,0,0-.62,0,.79.79,0,0,0-.39.19l-.08.05a1.12,1.12,0,0,1,.05-.13,1.35,1.35,0,0,0,.07-.44,1.76,1.76,0,0,0-.23-.8,2.1,2.1,0,0,0-.26-.33l-.12-.11a1.77,1.77,0,0,0-.35-.23,2.19,2.19,0,0,0-.43-.15,3.5,3.5,0,0,0-.37,0,2.8,2.8,0,0,0-.36,0,2,2,0,0,0-.41.15,1.65,1.65,0,0,0-.59.52,1.46,1.46,0,0,0-.18.38,1.4,1.4,0,0,0-.07.4,1.09,1.09,0,0,0,0,.18l-.1-.07-.05,0h0L75,29.59l0,0a1.87,1.87,0,0,0-.37,0h-.06l-.16,0-.16,0h0l-.28.1h0l-.24.17h0l0,0-.1.11-.09.12h0a.74.74,0,0,0-.14.4.67.67,0,0,0,0,.42.85.85,0,0,0,.15.3h0l0,0h0l.18.22h0a0,0,0,0,1,0,0h0l.24.17.07,0,.29.11h.07l.16,0,.16,0h.08l.31,0h0l.17-.07.15-.06.24-.16a.88.88,0,0,0,.24-.34,1.12,1.12,0,0,0,0-.13v0h0s0-.25.05-.29h0v0s0,0,0-.09a.74.74,0,0,0,.24.11l.18.07.23.15a1.51,1.51,0,0,0,.69.18,1.24,1.24,0,0,0,.43-.06,1.41,1.41,0,0,0,.6-.33.88.88,0,0,0-.06.33h0a1.19,1.19,0,0,0-.08.2l0,.28a1,1,0,0,0,.15.54l.19.21a1.14,1.14,0,0,0,.51.27h0a1.32,1.32,0,0,0,.36,0h0l.16,0,.16,0h0c.1,0,.21-.07.31-.12l0,0,.24-.17h0v0h0l.18-.22,0,0a1.51,1.51,0,0,0,.13-.29v0h0a2.54,2.54,0,0,0,0-.29.06.06,0,0,0,0,0C80.88,31.32,80.87,31.26,80.86,31.22Z"/><path class="cls-5" d="M81.17,35.67v0a2.72,2.72,0,0,0,0-.3s0,0,0,0,0,0,0,0A2.24,2.24,0,0,0,81,35v0l0,0a1.64,1.64,0,0,0-.21-.25s0,0,0,0l-.13-.09-.12-.09h0a2.45,2.45,0,0,0-.31-.12h0a2.21,2.21,0,0,0-.35,0h0l-.31,0h-.07l-.28.11h0a.05.05,0,0,1,0,0h0l-.23.17h0l0,0-.19.23,0,0,0,0c0,.1-.09.19-.13.29l0,.09a2,2,0,0,0,0,.37,1.59,1.59,0,0,0,.06.36l.12.26h0v0a1.64,1.64,0,0,0,.21.25h0l.24.17,0,0a.86.86,0,0,0,.44.12.55.55,0,0,0,.18,0,1.25,1.25,0,0,0,.51,0h0l.15,0,.14-.06,0,0a1.65,1.65,0,0,0,.27-.19h0a1.92,1.92,0,0,0,.18-.22l0,0v0h0a2.06,2.06,0,0,0,.12-.26.19.19,0,0,0,0-.08,2.5,2.5,0,0,0,0-.29v-.06Z"/><path class="cls-5" d="M76.49,31.39a1.06,1.06,0,1,0,0,2.12,1.12,1.12,0,0,0,1.16-1.06A1.14,1.14,0,0,0,76.49,31.39Z"/><path class="cls-5" d="M84.66,35.91a1.28,1.28,0,0,0-.86.35s0,0,0,0v-.07a1.12,1.12,0,0,0,.16-.22,1.76,1.76,0,0,0,.17-.37s0,0,0-.06,0-.23,0-.35a.92.92,0,0,0-.16-.53,1,1,0,0,0-.42-.38,1.88,1.88,0,0,0-.34-.14l-.08,0-.34,0h-.12a3,3,0,0,0-.39.05h0l-.3.12-.08,0,0,0-.27.18-.05.06a1.6,1.6,0,0,0-.22.27,2.39,2.39,0,0,0-.13.28l0,0s0,0,0,0,0,.22,0,.32a.09.09,0,0,0,0,.07,2.23,2.23,0,0,0,0,.36l0,.07a2.22,2.22,0,0,0,.15.32,2.09,2.09,0,0,0,.24.28s.12.09.18.14a1,1,0,0,0,.2.12,1.43,1.43,0,0,0,.31.12l0,0a1,1,0,0,0,.46,0,.9.9,0,0,0,.43-.13.83.83,0,0,0,.26-.19.8.8,0,0,0,0,.31,1.16,1.16,0,1,0,1.16-1.06Z"/><path class="cls-5" d="M85.48,32.81a1.34,1.34,0,0,0-.2-.66,1.57,1.57,0,0,0-.52-.47,1.92,1.92,0,0,0-.33-.14h0a2,2,0,0,0-.35-.05,1.6,1.6,0,0,0-.74.19h0l-.25.17,0,0a2.41,2.41,0,0,0-.21.24l0,0a2.59,2.59,0,0,0-.14.29.06.06,0,0,1,0,0c0,.09,0,.21,0,.29v0a1.65,1.65,0,0,0,0,.32,1.26,1.26,0,0,0,.54.64.85.85,0,0,0,.35.11l0,0a1.42,1.42,0,0,0,.22.07,1.86,1.86,0,0,0,.34,0h0a2,2,0,0,0,.34,0h0a2.68,2.68,0,0,0,.31-.11h0a1.15,1.15,0,0,0,.43-.39l.13-.27a.06.06,0,0,1,0,0c0-.1,0-.2,0-.3Z"/><path class="cls-5" d="M82.59,29.4a1.12,1.12,0,0,0-1.16,1.06,1.16,1.16,0,1,0,1.16-1.06Z"/><path class="cls-5" d="M86.84,34.44A1.06,1.06,0,1,0,88,35.5,1.13,1.13,0,0,0,86.84,34.44Z"/><path class="cls-5" d="M88.23,32.27h0a2.89,2.89,0,0,0,0-.29v0h0l-.12-.25v0h0a.65.65,0,0,0-.09-.11l-.09-.12h0a1.51,1.51,0,0,0-.26-.18h0l-.28-.11h0l-.15,0-.16,0h0l-.16,0-.17,0h0l-.29.11h0l-.12.08-.12.09,0,0a2.05,2.05,0,0,0-.2.23s0,0,0,0h0l-.12.25a0,0,0,0,1,0,0h0l0,.28h0v0a.72.72,0,0,0,.1.41.81.81,0,0,0,.24.34.69.69,0,0,0,.13.11l.06.06.24.17a1.16,1.16,0,0,0,.58.14h0l.33,0h0l.28-.11h0l.24-.17h0l0,0L88,33h0v0h0c0-.08.08-.18.12-.26v0a.89.89,0,0,0,0-.15l0-.15v0Z"/><path class="cls-5" d="M83.16,38.74a1.06,1.06,0,1,0,1.16,1.06A1.13,1.13,0,0,0,83.16,38.74Z"/><path class="cls-5" d="M87.63,39.19v0l-.12-.25a1,1,0,0,0-.24-.29,1.46,1.46,0,0,0-.59-.31,1.1,1.1,0,0,0-.4,0h0l-.3,0h0a1.17,1.17,0,0,0-.31.12,1.4,1.4,0,0,0-.39.31l-.11.06a.73.73,0,0,0-.33.27.82.82,0,0,0-.21.36l0,.28a1,1,0,0,0,.16.53l.18.22a1.26,1.26,0,0,0,.51.27l.77.13a1.07,1.07,0,0,0,.47,0,1,1,0,0,0,.43-.13l.23-.16a1.12,1.12,0,0,0,.3-.47l0-.15c0-.11,0-.22.05-.34v-.07A1.33,1.33,0,0,0,87.63,39.19Z"/><path class="cls-5" d="M30.58,60.11c0-.09,0-.2,0-.29v-.09l-.12-.27,0,0h0l-.19-.23,0,0L30,59.05l-.13-.1-.05,0-.29-.11h-.07l-.33,0H29l-.33,0-.11,0-.31.13-.05,0-.28.19,0,0a.08.08,0,0,0,0,0,2.2,2.2,0,0,0-.2.23v0a1.4,1.4,0,0,0-.09.17l-.07.18v0s0,0,0,.07l-.16-.1a.94.94,0,0,0-.28-.1l0,0a1.73,1.73,0,0,0-.71-.18,3,3,0,0,0-.37,0l-.08,0a1.53,1.53,0,0,0-.61.34,1.1,1.1,0,0,0-.26.31,2.08,2.08,0,0,0-.13.3,1.42,1.42,0,0,0,0,.2,1.06,1.06,0,0,0,0,.41,1.77,1.77,0,0,0,0,.2,2.88,2.88,0,0,0,.13.31,1.3,1.3,0,0,0,.26.31l0,0a1.65,1.65,0,0,0,.6.32h.08l.31,0h0a2.33,2.33,0,0,0,.38,0l.09,0a1.51,1.51,0,0,0,.35-.14A3.37,3.37,0,0,0,27.4,62a2,2,0,0,0,.24-.28l.05-.07a2.55,2.55,0,0,0,.13-.29l0,0a1.42,1.42,0,0,0,.05-.22.64.64,0,0,0,.18.1.8.8,0,0,0,.15.17l.23.17a1.35,1.35,0,0,0,.59.14h0l.33,0h.07l.29-.11.05,0h0l.25-.17,0,0,0,0a2.43,2.43,0,0,0,.2-.25l0,0a2.55,2.55,0,0,0,.13-.29l0-.08c0-.11,0-.22,0-.33v-.09Z"/><path class="cls-5" d="M29.39,63a.93.93,0,0,0-.3-.46L29,62.43a.94.94,0,0,0-.37-.22,1.26,1.26,0,0,0-1.27.22l-.18.21a1,1,0,0,0-.16.54l0,.28a1.18,1.18,0,0,0,.3.47l.1.08a.74.74,0,0,0,.37.22.85.85,0,0,0,.44.09.87.87,0,0,0,.45-.09.74.74,0,0,0,.37-.22l.19-.21a1,1,0,0,0,.15-.54Z"/><path class="cls-5" d="M32.78,62.39a1.35,1.35,0,0,0,0-.18h0l-.11-.26,0,0v0l-.19-.22h0l-.16-.11a1.11,1.11,0,0,0-.16-.11h0l-.15-.06-.15-.06h-.05l-.18,0-.18,0h-.05l-.33,0h-.06l-.29.12-.05,0a1.56,1.56,0,0,0-.25.17l0,0,0,0-.19.23v0a1.4,1.4,0,0,0-.09.17.87.87,0,0,0-.07.17v0c0,.1,0,.2-.05.3v.08a2.74,2.74,0,0,0,.05.28v0s0,0,0,0,.08.18.13.27v0l0,0h0a2,2,0,0,0,.19.22l0,0a2,2,0,0,0,.25.18l0,0,.06,0,.3.11H31l.17,0,.16,0h.08l.32,0h0a.79.79,0,0,0,.39-.19.91.91,0,0,0,.42-.57v0l0,0v0h0l.12-.26a.43.43,0,0,0,0,0,2.36,2.36,0,0,0,0-.28h0A.88.88,0,0,0,32.78,62.39Z"/><path class="cls-5" d="M30.88,77.05a.56.56,0,0,0-.08-.27.88.88,0,0,0-.24-.34h0l-.12-.09-.12-.08,0,0h0L30,76.14h0l-.31,0h-.06l-.31,0h-.06l-.08,0a1.21,1.21,0,0,0-.38.12l-.24.17a1,1,0,0,0-.29.47l0,.28a2.51,2.51,0,0,0,0,.27l0,.18a.82.82,0,0,0,.21.36.76.76,0,0,0,.32.27,1,1,0,0,0,.44.13,1,1,0,0,0,.46,0l.24-.09a1.51,1.51,0,0,0,.33-.13,1.38,1.38,0,0,0,.28-.19l.11-.13.11-.13.12-.26A.86.86,0,0,0,30.88,77.05Z"/><path class="cls-5" d="M35.83,77.53a2.27,2.27,0,0,0,0-.35l0-.07c0-.1-.09-.21-.14-.31a.43.43,0,0,0,0-.07l0,0-.2-.24s0,0-.05,0L35,76.23l0,0,0,0a2.52,2.52,0,0,0-.29-.12l-.07,0h0a1.75,1.75,0,0,0-.33,0h-.07L34,76l-.19,0-.07,0-.29.11,0,0h0l-.11.07,0-.12h0l0-.28h0a.34.34,0,0,0,0-.1l-.07-.16h0l-.18-.21h0a2,2,0,0,0-.23-.17h0l-.28-.11h0L32,75h0l-.15,0-.16,0h0l-.27.11h0l-.12.09a.5.5,0,0,0-.12.08h0l-.09.11-.1.12h0l-.12.26h0a2.7,2.7,0,0,0,0,.28h0l0,.09a1.06,1.06,0,0,0,.16.54l.18.21a1.26,1.26,0,0,0,.51.27h0l.31,0h.2l.16,0h0l.14-.06.14,0h0l0,0v.07a.61.61,0,0,0,0,.15s0,0,0,0a.49.49,0,0,0,0,.15,1,1,0,0,0,0,.16.77.77,0,0,0,.08.19.69.69,0,0,0,.1.19,2.31,2.31,0,0,0,.2.24l0,0a.31.31,0,0,0,.09.07s0,0,0,0l0,0,.19.22h0l.15.11-.13,0a1,1,0,0,0-.45.09.87.87,0,0,0-.37.22.71.71,0,0,0-.23.32l0,0a1,1,0,0,0-.16.54l0,.28a1.08,1.08,0,0,0,.3.46h0l.24.17h0a1.45,1.45,0,0,0,.29.11h0l.15,0,.16,0h0l.15,0,.16,0h0l.28-.11h0l.12-.09.12-.08h0l.1-.12.09-.11h0s.09-.21.12-.26h0s0-.27,0-.28h0s0-.27,0-.28h0s-.11-.24-.12-.25h0l-.18-.21h0L34.17,79l.17,0h0l.18,0,.19,0a2,2,0,0,0,.34-.13l0,0,.23-.17h0l0,0,.2-.24,0-.06c0-.1.09-.19.13-.29s0,0,0,0a2,2,0,0,0,0-.34.33.33,0,0,0,0-.16Z"/><path class="cls-5" d="M35.47,74c0-.09,0-.32,0-.29s0,0,0,0a1.75,1.75,0,0,0-.13-.28s-.09-.11-.12-.15-.09-.11-.14-.15l0,0h0a.81.81,0,0,0-.38-.22l-.13-.06-.31,0h0l-.32,0h0a1.88,1.88,0,0,0-.3.12h0l-.23.17h0a2.31,2.31,0,0,0-.2.24v0h0l-.06.12-.06.13h0v0h0l0,.28h0c0,.1,0,.34,0,.31v0a2.39,2.39,0,0,0,.13.28.86.86,0,0,0,.3.3.83.83,0,0,0,.31.16l.21.09h0l.32,0h0l.32,0h0l.28-.11h0a2.2,2.2,0,0,0,.25-.17h0l.18-.22h0s.11-.23.12-.25h0s0-.15,0-.15,0-.1,0-.15Z"/><path class="cls-5" d="M38,75.6a2.7,2.7,0,0,0,0-.28h0v0h0L37.82,75h0v0h0c0-.06-.13-.16-.18-.22l0,0-.23-.17h0l-.27-.1h0l-.32,0h0l-.31,0h0l-.15.06-.15.06h0l-.23.17h0l0,0h0l-.19.22h0a.08.08,0,0,0,0,0l-.06.13-.06.13h0v0h0a.68.68,0,0,0,0,.14l0,.15v0s0,.24,0,.28h0l.11.25v0c.06.08.13.15.2.23h0a.78.78,0,0,0,.37.22.87.87,0,0,0,.45.09h.2a1.16,1.16,0,0,0,.58-.14l.12-.08.12-.09h0a.48.48,0,0,0,.1-.12.42.42,0,0,0,.1-.12h0l.12-.25h0a1.22,1.22,0,0,0,0-.17.5.5,0,0,0,0-.18Z"/><path class="cls-5" d="M37,72A1.06,1.06,0,1,0,38.12,73,1.13,1.13,0,0,0,37,72Z"/><path class="cls-5" d="M39.35,68.92A1.12,1.12,0,0,0,38.19,70a.25.25,0,0,0,0,.08,1.24,1.24,0,0,0-.47-.1A1.06,1.06,0,1,0,38.88,71v-.08a1.2,1.2,0,0,0,.47.1,1.06,1.06,0,1,0,0-2.12Z"/><path class="cls-5" d="M42.88,77.2a1.23,1.23,0,0,0-1.06.62,2.7,2.7,0,0,0,0-.28,1.36,1.36,0,0,0,0-.4.73.73,0,0,0-.07-.19h.18a1.06,1.06,0,1,0,0-2.12,1.24,1.24,0,0,0-1,.47,1.36,1.36,0,0,0,0-.2l0-.28a1.23,1.23,0,0,0-.17-.32h0l.24-.17,0,0s.07-.09.1-.11l.1-.12a1.64,1.64,0,0,0,.14-.3v0a1,1,0,0,0,0-.15.61.61,0,0,0,0-.15h0v0h0a2.7,2.7,0,0,0,0-.28v0l0,0-.11-.25h0s0,0,0,0a2.2,2.2,0,0,0-.2-.23l0,0a1.56,1.56,0,0,0-.25-.17h0l-.28-.11h0l-.31,0h0l-.31,0h0a1.45,1.45,0,0,0-.56.3h0l-.18.22h0a1.38,1.38,0,0,0-.14.3v0c0,.05,0,.23,0,.28h0v0l0,.29h0a0,0,0,0,0,0,0h0L39,74h0l.08.1-.15.12-.18.22a1,1,0,0,0-.16.53l0,.28a1.12,1.12,0,0,0,.3.47l.1.08a.83.83,0,0,0,.37.22l.2.07-.08,0a1.11,1.11,0,0,0-.3.22,1.16,1.16,0,0,0-.34.53.79.79,0,0,0,0,.22,1,1,0,0,0,0,.24,1.77,1.77,0,0,0,.05.32.89.89,0,0,0,.08.17,1,1,0,0,0,.29.42.86.86,0,0,0,.18.14.83.83,0,0,0,.21.28l.23.16a1.23,1.23,0,0,0,.59.15l.31,0a1.26,1.26,0,0,0,.51-.27l.11-.1a2.69,2.69,0,0,0,.27-.32,1.63,1.63,0,0,0,.11-.23,1.09,1.09,0,0,0,0,.18,1.14,1.14,0,0,0,1.16,1.06,1.06,1.06,0,1,0,0-2.12Zm-2.27-1.15-.19,0a.73.73,0,0,0,.23-.16l.13-.15a.61.61,0,0,0,0,.19,1.36,1.36,0,0,0,0,.2A.41.41,0,0,0,40.61,76.05Z"/><path class="cls-5" d="M44.91,80.39s0,0,0-.06a2.89,2.89,0,0,0-.15-.31,2.53,2.53,0,0,0-.23-.26,1.64,1.64,0,0,0-.29-.2,1.31,1.31,0,0,0-.59-.14l-.32,0h0a2.08,2.08,0,0,0-.32.12l0,0a1.56,1.56,0,0,0-.53.49,1.3,1.3,0,0,0-.17.33l0,.09a1.9,1.9,0,0,0,0,.37c0,.09,0,.2,0,.29v0a.17.17,0,0,0,0,.05.81.81,0,0,0,.2.36,1,1,0,0,0,.33.27A.94.94,0,0,0,43,82l.22.09a1.3,1.3,0,0,0,.62,0A2.23,2.23,0,0,0,44.2,82l0,0h0l.24-.17,0-.05a1.56,1.56,0,0,0,.21-.26,1.77,1.77,0,0,0,.15-.31A2.54,2.54,0,0,0,45,80.8a.2.2,0,0,0,0-.07C45,80.62,44.93,80.5,44.91,80.39Z"/><path class="cls-5" d="M41.88,81.27a1.65,1.65,0,0,0-.11-.36,3,3,0,0,0-.29-.56.86.86,0,0,0-.3-.3.93.93,0,0,0-.4-.19l-.3,0a1.2,1.2,0,0,0-.59.15,1.73,1.73,0,0,0-.28.19l0,0a1.81,1.81,0,0,0-.25.3,1.54,1.54,0,0,0-.17.34.56.56,0,0,0,0,.12,1.58,1.58,0,0,0-.05.38v.06c0,.11,0,.22,0,.33l0,.11a1.94,1.94,0,0,0,.18.35.86.86,0,0,0,.3.3.72.72,0,0,0,.3.16l0,0a1.27,1.27,0,0,0,.58.14l.31,0a1.14,1.14,0,0,0,.51-.27l.27-.2a1,1,0,0,0,.29-.47A.89.89,0,0,0,41.88,81.27Z"/><path class="cls-5" d="M38.29,79.33a1.72,1.72,0,0,0-1.45-.76,1.59,1.59,0,0,0-.83.2,1.12,1.12,0,0,0-.32.24,1.54,1.54,0,0,0-.36.56,1.46,1.46,0,0,0-.07.4s0,0,0,.07a2,2,0,0,0,.05.34,1.81,1.81,0,0,0,.13.31h0l0,.11a1.12,1.12,0,0,0,.3.47l.23.17a1.35,1.35,0,0,0,.59.14H37a2.84,2.84,0,0,0,.51,0l.27-.11a1.08,1.08,0,0,0,.42-.37l0,0,0-.07a1.8,1.8,0,0,0,.23-.81A1.52,1.52,0,0,0,38.29,79.33Z"/><path class="cls-5" d="M32.05,80.72a1.06,1.06,0,0,0-.16-.38,1.6,1.6,0,0,0-.52-.48l-.07,0L31,79.71l0,0-.19,0-.2,0h-.08a2.65,2.65,0,0,0-.38,0h0l-.32.12-.07,0-.15.1-.15.11a2.56,2.56,0,0,0-.23.27l-.05.07c0,.09-.09.19-.12.28s0,0,0,0l0,.18c0,.06,0,.12,0,.18v.08a2.46,2.46,0,0,0,.06.36,3.31,3.31,0,0,0,.15.33l.05.08a1.55,1.55,0,0,0,.3.33c.09.06.17.13.26.18l0,0h0l.29.12h0a1.48,1.48,0,0,0,.19,0l.2,0a1.81,1.81,0,0,0,.4,0H31l.31-.12.08,0a1.42,1.42,0,0,0,.29-.21,1.72,1.72,0,0,0,.21-.25h0l.12-.25h0A.87.87,0,0,0,32,81.5h0l0-.07c0-.1,0-.21,0-.31v0A2.94,2.94,0,0,0,32.05,80.72Z"/><path class="cls-5" d="M32.76,82.08a1.12,1.12,0,0,0-1.16,1.06,1.37,1.37,0,0,0,.08.35h0a.72.72,0,0,0-.3-.3A.89.89,0,0,0,31,83l-.31,0a1.17,1.17,0,0,0-.58.15l-.24.16a1.09,1.09,0,0,0-.21.27.9.9,0,0,0-.27.28.71.71,0,0,0-.14.39.79.79,0,0,0,0,.43l.12.25a1.15,1.15,0,0,0,.41.38l.28.11a1.3,1.3,0,0,0,.62,0l.28-.11H31a.1.1,0,0,0,0,0,1.42,1.42,0,0,0,.28-.2l.05,0h0l.18-.22,0,0a.09.09,0,0,0,0,0,2,2,0,0,0,.14-.3.14.14,0,0,0,0-.06.67.67,0,0,0,0-.42.78.78,0,0,0,0-.21,1.16,1.16,0,0,0,1,.54,1.06,1.06,0,1,0,0-2.12Z"/><path class="cls-5" d="M38.68,82.86a1.23,1.23,0,0,0-1.07.64,1,1,0,0,0,0-.25,1.54,1.54,0,0,0-.15-.35l-.07-.11a2.34,2.34,0,0,0-.37-.4,2.39,2.39,0,0,0-.46-.29c-.13,0-.26-.11-.4-.15a1.66,1.66,0,0,0-.22,0l-.23,0a1.72,1.72,0,0,0-.36,0l-.29.11,0,0a1.62,1.62,0,0,0-.49.45,1.57,1.57,0,0,0-.14.25,1.89,1.89,0,0,0-.29.93.76.76,0,0,0,0,.15,1.59,1.59,0,0,0,.06.38,1.69,1.69,0,0,0,.17.36,1.66,1.66,0,0,0,.24.3,1.91,1.91,0,0,0,.32.24,1.33,1.33,0,0,0,.24.11l.19.07.35,0a1.6,1.6,0,0,0,.44,0h0a1.35,1.35,0,0,0,.59-.14l.1-.06a1.86,1.86,0,0,0,.32-.23,2.26,2.26,0,0,0,.25-.29,1.67,1.67,0,0,0,.12-.23c0-.08.06-.14.08-.21a1.14,1.14,0,0,0,1.12.82,1.12,1.12,0,0,0,1.16-1.06A1.14,1.14,0,0,0,38.68,82.86Z"/><path class="cls-5" d="M37.66,86.42a.64.64,0,0,0,0-.07c0-.09-.08-.19-.13-.28l0,0a1.38,1.38,0,0,0-.22-.26s0,0-.05-.05a2.2,2.2,0,0,0-.25-.17l0,0,0,0-.3-.11-.07,0a1.67,1.67,0,0,0-.44-.06H36l-.34,0h0l-.07,0-.3.12,0,0-.06,0-.25.18,0,0,0,0a2.31,2.31,0,0,0-.2.24,1.24,1.24,0,0,0-.1.2.7.7,0,0,0-.08.2,2.25,2.25,0,0,0-.06.36v0l0,.16a.88.88,0,0,0,0,.16l0,0v0a1.51,1.51,0,0,0,.12.26,1.63,1.63,0,0,0,.23.29l0,0a2.4,2.4,0,0,0,.26.18l0,0,.31.12a1.56,1.56,0,0,0,.4,0h.23a3.5,3.5,0,0,0,.37,0,1.42,1.42,0,0,0,.4-.17,1.36,1.36,0,0,0,.34-.25l.2-.24v0a1.47,1.47,0,0,0,.15-.31.14.14,0,0,0,0-.06,1.22,1.22,0,0,0,0-.17,1,1,0,0,0,0-.18A1.19,1.19,0,0,0,37.66,86.42Z"/><path class="cls-5" d="M47.65,89.18a1.34,1.34,0,0,0-.2-.66l0,0a2.2,2.2,0,0,0-.2-.23l0,0h0a2.15,2.15,0,0,0-.24-.18l-.07,0a2.86,2.86,0,0,0-.35-.12h0l-.33,0H46l-.34,0-.08,0-.18.06-.08,0a.81.81,0,0,0,.13-.48,1.17,1.17,0,1,0-1.16,1,1.32,1.32,0,0,0,.39-.06l0,.05,0,.06a1.42,1.42,0,0,0-.14.33,2,2,0,0,0,0,.35v0a3.06,3.06,0,0,0,0,.32s0,0,0,.08a1.59,1.59,0,0,0,.16.32,1.53,1.53,0,0,0,.53.48,1.26,1.26,0,0,0,.37.13,1.33,1.33,0,0,0,.43,0,1.3,1.3,0,0,0,.51,0,2.37,2.37,0,0,0,.34-.13l0,0a2.4,2.4,0,0,0,.26-.18.17.17,0,0,0,.06-.06,2.2,2.2,0,0,0,.2-.23l0,0,0-.07a2.37,2.37,0,0,0,.14-.32,2.27,2.27,0,0,0,0-.35A.11.11,0,0,0,47.65,89.18Z"/><path class="cls-5" d="M44.39,90.81a.65.65,0,0,0,0-.19v0c0-.1-.08-.19-.13-.29l0-.06A2.75,2.75,0,0,0,44,90l-.05,0a2,2,0,0,0-.3-.21l-.07,0c-.1,0-.2-.09-.3-.12h0l-.19,0-.19,0h0l-.17,0-.18,0h-.05l-.28.11h0l0,0a1.51,1.51,0,0,0-.26.18l0,0h0l-.18.22s0,0,0,0v0a2.24,2.24,0,0,0-.13.27s0,0,0,0v0a2.68,2.68,0,0,0-.05.3v.08c0,.1,0,.2.05.3v0s0,0,0,0a2.24,2.24,0,0,0,.13.27v0l.1.12a.82.82,0,0,0,.1.11l0,0,.24.17h0l.15.1h0l.28.11h0l.17,0,.16,0h0a1.65,1.65,0,0,0,.32,0h.06l.29-.11h0l0,0L44,92l.05,0,.18-.21v0h0a2.06,2.06,0,0,0,.12-.26s0,0,0,0a0,0,0,0,0,0,0c0-.09,0-.21,0-.29v0A.75.75,0,0,0,44.39,90.81Z"/><path class="cls-5" d="M71.9,47.32a1.12,1.12,0,0,0-1.16,1.06,1.16,1.16,0,1,0,1.16-1.06Z"/><path class="cls-5" d="M78.26,52.45a1.06,1.06,0,1,0,0,2.11,1.06,1.06,0,1,0,0-2.11Z"/><path class="cls-5" d="M61,36.49a1.12,1.12,0,0,0-1.16,1.06A1.16,1.16,0,1,0,61,36.49Z"/><path class="cls-5" d="M62.89,34.68a1.37,1.37,0,0,0-.2-.64,1.44,1.44,0,0,0-.51-.47l-.06,0L62,33.47l-.18-.07h-.06a2.33,2.33,0,0,0-.38,0h-.07l-.33,0h0a1.74,1.74,0,0,0-.4.15l-.07,0-.25.18,0,0a2.53,2.53,0,0,0-.23.26l0,.06a2.39,2.39,0,0,0-.13.28v0s0,0,0,0,0,.21,0,.31v.08c0,.1,0,.21,0,.31s0,0,0,.05l0,0a2.55,2.55,0,0,0,.13.29.22.22,0,0,0,0,.08,1.61,1.61,0,0,0,.24.28,2.06,2.06,0,0,0,.31.23l.09,0,.18.07.18.07.1,0a1.84,1.84,0,0,0,.41,0,1.32,1.32,0,0,0,.82-.31.63.63,0,0,0,.18-.22.44.44,0,0,0,.12-.15l0,0,.06-.14.07-.15h0a1.59,1.59,0,0,0,.09-.2l0-.07v0c0-.1,0-.21,0-.31Z"/><path class="cls-5" d="M65.28,35.83h0a1.45,1.45,0,0,0-.12-.25h0l-.09-.11-.09-.1h0l-.12-.08-.12-.08h0a1.45,1.45,0,0,0-.29-.11h0l-.32,0h0l-.31,0h0l-.28.11h0l-.24.16h0l-.18.21h0s-.06.15-.06.13L63,35.8a.86.86,0,0,0,0,.42.8.8,0,0,0,.14.39.83.83,0,0,0,.21.24,1.21,1.21,0,0,0,.28.21l.28.11a1.26,1.26,0,0,0,.61,0h0l.14,0,.13,0h0l.24-.17h0a1.18,1.18,0,0,0,.18-.21h0l.06-.13a.61.61,0,0,0,0-.12h0l0-.28h0A1.35,1.35,0,0,0,65.28,35.83Z"/><path class="cls-5" d="M65.16,35.57h0S65.16,35.55,65.16,35.57Z"/><path class="cls-6" d="M38.43,40.79a1.38,1.38,0,0,1,.39-1.19"/><path class="cls-6" d="M38.71,36.55l.52-.66"/><path class="cls-6" d="M39.27,43.46l.31-.49"/><path class="cls-6" d="M42.35,44a1,1,0,0,1,.7-.7"/><path class="cls-6" d="M48.29,38.12a.72.72,0,0,1,.39-.64"/><path class="cls-6" d="M42.82,38.05l-.17-.56"/><path class="cls-6" d="M42.5,34.74a1.33,1.33,0,0,1,.32-.7"/><path class="cls-6" d="M52,33a.75.75,0,0,1,.23-.56"/><path class="cls-6" d="M50.45,35.3v-.56"/><path class="cls-6" d="M54.22,37.06a1.82,1.82,0,0,1,.08-.7"/><path class="cls-6" d="M57.15,38.83a1,1,0,0,1-.52-1.13"/><path class="cls-6" d="M61.15,35.54a.7.7,0,0,1-.58-.8"/><path class="cls-6" d="M54.53,42.62a.58.58,0,0,1-.44-.77"/><path class="cls-6" d="M47.57,44.82a1,1,0,0,1-.26-.79"/><path class="cls-6" d="M46,42.2a.61.61,0,0,1-.3-.56"/><path class="cls-6" d="M41,48.06A.79.79,0,0,1,40.75,47"/><path class="cls-6" d="M41,51.63a.92.92,0,0,1-.29-.92"/><path class="cls-6" d="M35.81,50.08a1,1,0,0,1-.16-1"/><path class="cls-6" d="M33.49,48.47a.68.68,0,0,1-.31-.86"/><path class="cls-6" d="M36.57,46.22a.54.54,0,0,1-.22-.5"/><path class="cls-6" d="M61.47,51.91a.59.59,0,0,1,.07-.71"/><path class="cls-6" d="M57.31,51.7a1.17,1.17,0,0,1-.31-.78"/><path class="cls-6" d="M53.61,49.1a.61.61,0,0,1-.38-.71"/><path class="cls-6" d="M51,44.31a.57.57,0,0,1-.45-.77"/><path class="cls-6" d="M51,41a.65.65,0,0,1-.14-.64"/><path class="cls-6" d="M69.26,29.46a1.23,1.23,0,0,1-.24-.84"/><path class="cls-6" d="M69.1,31.65a.5.5,0,0,1-.45-.5"/><path class="cls-6" d="M73.11,28.33a.31.31,0,0,1-.16-.28"/><path class="cls-6" d="M74.71,31.2a.39.39,0,0,1-.54-.26"/><path class="cls-6" d="M77.42,30c-.42.13-.89-.31-.75-.68"/><path class="cls-6" d="M76.58,32.76a.62.62,0,0,1-.32-.34"/><path class="cls-6" d="M79.42,31.62c-.19.05-.39-.17-.29-.33"/><path class="cls-6" d="M82.35,30.73v-.28"/><path class="cls-6" d="M84.43,33A.5.5,0,0,1,84,32.7"/><path class="cls-6" d="M82.58,35.86a.49.49,0,0,1-.6-.42"/><path class="cls-6" d="M79.05,36.05a.49.49,0,0,1-.32-.68"/><path class="cls-6" d="M85.43,40.15a.62.62,0,0,1-.25-.72"/><path class="cls-6" d="M86.6,32.51l-.13-.61"/><path class="cls-6" d="M74.7,49.85c-.2-.35.22-.82.63-.72"/><path class="cls-6" d="M70.39,51.68a1.34,1.34,0,0,1,1.09-1.08"/><path class="cls-6" d="M75,53.13a.78.78,0,0,1,1-.71"/><path class="cls-6" d="M64.47,49.63a.78.78,0,0,1,1.19-.29"/><path class="cls-6" d="M64.3,53.62A1.1,1.1,0,0,1,65.62,53"/><path class="cls-6" d="M67.63,49.26a1.68,1.68,0,0,1,.79-.26"/><path class="cls-6" d="M65.77,56.05a1.19,1.19,0,0,1,.92-.24"/><path class="cls-6" d="M69.36,57.75a.66.66,0,0,1,.78-.36"/><path class="cls-6" d="M68.55,60.9l.35-.24-.35.24"/><path class="cls-6" d="M33.43,76.88a1.59,1.59,0,0,1,1.36-.18"/><path class="cls-6" d="M25.49,60.78a.53.53,0,0,1,.54-.47"/><path class="cls-6" d="M28.35,59.74a.86.86,0,0,1,1.27.07"/><path class="cls-6" d="M31.34,62.22a1.42,1.42,0,0,1,.83.47,2.08,2.08,0,0,1-.82-.46"/><path class="cls-6" d="M29.59,81.16a1.1,1.1,0,0,1,1.08-.8"/><path class="cls-6" d="M36.13,80.08a1.2,1.2,0,0,1,.79-.73"/><path class="cls-6" d="M34.79,83.6a.64.64,0,0,1,.67-.71"/><path class="cls-6" d="M35.49,87.1a.87.87,0,0,1,.21-1"/><path class="cls-6" d="M42,91.35A1.15,1.15,0,0,1,42.34,90"/><path class="cls-6" d="M45.7,88.94a.86.86,0,0,1,1.06-.13"/><path class="cls-6" d="M43.57,87.25l.66-.27"/><path class="cls-6" d="M42.9,80.8l.4-.53-.4.53"/><path class="cls-6" d="M39.85,81.41a.93.93,0,0,1,.4-1"/><path class="cls-6" d="M39.32,77.65a1.12,1.12,0,0,1,.26-1"/><path class="cls-6" d="M39.29,73.37l.55-.35"/><path class="cls-6" d="M33.49,73.89a.54.54,0,0,1,.51-.5"/><path class="cls-6" d="M36.15,75.7a.39.39,0,0,1,.37-.49"/><path class="cls-6" d="M29.07,77.4a1.25,1.25,0,0,1,1.46-.58"/><path class="cls-6" d="M36.91,71.1a.49.49,0,0,1,.43-.43l-.42.43"/><path class="cls-6" d="M38.91,69.5l.53-.12"/><path class="cls-6" d="M36.39,72.67a2.26,2.26,0,0,1,1.06-.24"/><path class="cls-6" d="M42.37,78.62a.64.64,0,0,1,.53-.36"/><path class="cls-6" d="M41.44,76.56a1.06,1.06,0,0,1-.14-.67c.05.22.09.44.14.67"/><path class="cls-6" d="M39.17,75.34l0-.7,0,.7"/></g></g></svg>