<svg xmlns="http://www.w3.org/2000/svg" viewBox="0 0 1027.77 1027.77"><defs><style>.cls-1{fill:#5a160b;}.cls-2{fill:#eba700;}.cls-3{fill:#bdab21;}.cls-4{fill:#80a534;}</style></defs><g id="Layer_2" data-name="Layer 2"><g id="Layer_1-2" data-name="Layer 1"><path class="cls-1" d="M513.89,1027.77a514,514,0,0,1-200-987.37,514,514,0,0,1,400.08,947A510.82,510.82,0,0,1,513.89,1027.77Zm0-1011.57A497.82,497.82,0,0,0,320.16,972.46,497.81,497.81,0,0,0,707.61,55.32,494.46,494.46,0,0,0,513.89,16.2Z"/><path class="cls-1" d="M867.65,788.55c-16.57,0-25.15-6.65-32.73-12.53-7-5.44-13.09-10.15-25.77-10.15S790.4,770.58,783.37,776c-7.57,5.88-16.16,12.53-32.72,12.53S725.5,781.9,717.92,776c-7-5.44-13.09-10.15-25.77-10.15S673.4,770.58,666.37,776c-7.57,5.88-16.16,12.53-32.72,12.53S608.5,781.9,600.92,776c-7-5.44-13.09-10.15-25.77-10.15S556.4,770.58,549.37,776c-7.57,5.88-16.16,12.53-32.72,12.53S491.5,781.9,483.92,776c-7-5.44-13.09-10.15-25.77-10.15S439.4,770.58,432.37,776c-7.57,5.88-16.16,12.53-32.72,12.53S374.5,781.9,366.93,776c-7-5.44-13.09-10.15-25.78-10.15S322.4,770.58,315.38,776c-7.57,5.88-16.16,12.53-32.72,12.53S257.51,781.9,249.93,776c-7-5.44-13.09-10.15-25.77-10.15s-18.75,4.71-25.78,10.15c-7.57,5.88-16.15,12.53-32.72,12.53S140.51,781.9,132.94,776c-7-5.44-13.09-10.15-25.78-10.15-1.19,0-2.37,0-3.49.13a5.67,5.67,0,0,1-.86-11.3c1.41-.11,2.87-.17,4.35-.17,16.57,0,25.15,6.66,32.73,12.53,7,5.45,13.09,10.15,25.77,10.15s18.75-4.7,25.78-10.15c7.57-5.87,16.15-12.53,32.72-12.53s25.15,6.66,32.72,12.53c7,5.45,13.09,10.15,25.78,10.15s18.75-4.7,25.77-10.15c7.57-5.87,16.16-12.53,32.72-12.53s25.15,6.66,32.73,12.53c7,5.45,13.09,10.15,25.77,10.15s18.75-4.7,25.77-10.15c7.58-5.87,16.16-12.53,32.73-12.53s25.15,6.66,32.72,12.53c7,5.45,13.09,10.15,25.78,10.15s18.75-4.7,25.77-10.15c7.58-5.87,16.16-12.53,32.73-12.53s25.15,6.66,32.72,12.53c7,5.45,13.09,10.15,25.78,10.15s18.75-4.7,25.77-10.15c7.58-5.87,16.16-12.53,32.73-12.53s25.15,6.66,32.72,12.53c7,5.45,13.09,10.15,25.78,10.15s18.75-4.7,25.77-10.15c7.58-5.87,16.16-12.53,32.73-12.53s25.15,6.66,32.72,12.53c7,5.45,13.1,10.15,25.78,10.15s18.75-4.7,25.78-10.15c7.57-5.87,16.16-12.53,32.72-12.53a5.67,5.67,0,0,1,0,11.34c-12.68,0-18.75,4.71-25.77,10.15C892.8,781.9,884.22,788.55,867.65,788.55Z"/><path class="cls-1" d="M749.26,865.12c-16.57,0-25.15-6.66-32.72-12.53-7-5.45-13.1-10.15-25.78-10.15S672,847.14,665,852.59c-7.57,5.87-16.16,12.53-32.72,12.53s-25.15-6.66-32.73-12.53c-7-5.45-13.09-10.15-25.77-10.15S555,847.14,548,852.59c-7.57,5.87-16.16,12.53-32.72,12.53s-25.15-6.66-32.73-12.53c-7-5.45-13.09-10.15-25.77-10.15S438,847.14,431,852.59c-7.57,5.87-16.15,12.53-32.72,12.53s-25.15-6.66-32.72-12.53c-7-5.45-13.09-10.15-25.78-10.15S321,847.14,314,852.59c-7.57,5.87-16.16,12.53-32.72,12.53s-25.15-6.66-32.72-12.53c-7-5.45-13.1-10.15-25.78-10.15S204,847.14,197,852.59c-4.22,3.27-8.58,6.65-14.45,9.11a5.67,5.67,0,1,1-4.38-10.46c4.49-1.88,8.08-4.66,11.88-7.61,7.57-5.87,16.16-12.53,32.72-12.53s25.15,6.66,32.72,12.53c7,5.44,13.1,10.15,25.78,10.15S300,849.07,307,843.63c7.58-5.87,16.16-12.53,32.72-12.53s25.15,6.66,32.73,12.53c7,5.44,13.09,10.15,25.77,10.15S417,849.07,424,843.63c7.58-5.87,16.16-12.53,32.73-12.53s25.15,6.66,32.72,12.53c7,5.44,13.09,10.15,25.78,10.15S534,849.07,541,843.63c7.58-5.87,16.16-12.53,32.73-12.53s25.15,6.66,32.72,12.53c7,5.44,13.09,10.15,25.78,10.15S651,849.07,658,843.63c7.58-5.87,16.16-12.53,32.73-12.53s25.15,6.66,32.72,12.53c7,5.44,13.1,10.15,25.78,10.15S768,849.07,775,843.63c7.57-5.87,16.15-12.53,32.72-12.53s25.15,6.66,32.72,12.53a57,57,0,0,0,10.8,7.13,5.67,5.67,0,0,1-4.78,10.29,66.57,66.57,0,0,1-13-8.46c-7-5.45-13.1-10.15-25.78-10.15S789,847.14,782,852.59C774.41,858.46,765.83,865.12,749.26,865.12Z"/><path class="cls-1" d="M630.87,941.68c-16.57,0-25.15-6.65-32.72-12.53-7-5.44-13.1-10.15-25.78-10.15s-18.75,4.71-25.78,10.15c-7.57,5.88-16.16,12.53-32.72,12.53s-25.15-6.65-32.73-12.53c-7-5.44-13.09-10.15-25.77-10.15s-18.75,4.71-25.77,10.15c-7.58,5.88-16.16,12.53-32.73,12.53s-25.15-6.65-32.72-12.53c-7-5.44-13.09-10.15-25.77-10.15s-18.75,4.71-25.78,10.15c-6.65,5.17-14.2,11-27.31,12.28a5.67,5.67,0,1,1-1.09-11.29c9.85-.95,15.23-5.12,21.45-9.95,7.58-5.87,16.16-12.53,32.73-12.53s25.15,6.66,32.72,12.53c7,5.45,13.09,10.15,25.77,10.15s18.75-4.7,25.78-10.15c7.57-5.87,16.15-12.53,32.72-12.53s25.15,6.66,32.72,12.53c7,5.45,13.09,10.15,25.78,10.15s18.75-4.7,25.78-10.15c7.57-5.87,16.15-12.53,32.72-12.53s25.15,6.66,32.72,12.53c7,5.45,13.1,10.15,25.78,10.15s18.75-4.7,25.78-10.15c7.57-5.87,16.15-12.53,32.72-12.53s25.15,6.66,32.73,12.53c6.23,4.84,11.62,9,21.48,10a5.67,5.67,0,1,1-1.08,11.28c-13.13-1.25-20.69-7.11-27.35-12.28-7-5.44-13.09-10.15-25.78-10.15s-18.75,4.71-25.78,10.15C656,935,647.44,941.68,630.87,941.68Z"/><path class="cls-2" d="M410.08,246.55a31,31,0,0,1-8-6.9c-8.35-9.69-13-22.54-10.25-35,1.4-6.39,4.93-15.41,5-23.06C396.81,181.56,435.94,212.47,410.08,246.55Z"/><path class="cls-3" d="M366.84,143.78a31.16,31.16,0,0,1-1-10.5c.64-12.78,6.12-25.3,16.73-32.45C388,97.17,396.73,93.07,402,87.54,402,87.54,409.07,136.92,366.84,143.78Z"/><path class="cls-2" d="M524.69,190.24a30.94,30.94,0,0,1-1-10.51c.63-12.78,6.12-25.29,16.72-32.45,5.43-3.65,14.2-7.76,19.49-13.28C559.87,134,566.92,183.37,524.69,190.24Z"/><path class="cls-4" d="M545.83,218.12a31.11,31.11,0,0,1,7.38-7.54c10.19-7.74,23.3-11.59,35.6-8.07,6.29,1.8,15.07,5.87,22.71,6.37C611.52,208.88,578.25,246,545.83,218.12Z"/><path class="cls-2" d="M655.13,241.19a31.17,31.17,0,0,1,9.06-5.42c11.82-4.88,25.48-5.27,36.48,1.27,5.62,3.34,13.08,9.51,20.34,11.94C721,249,679.37,276.44,655.13,241.19Z"/><path class="cls-4" d="M808.55,222.81a31.13,31.13,0,0,1,10.5-1.08c12.78.58,25.31,6,32.52,16.58,3.68,5.41,7.82,14.16,13.37,19.43C864.94,257.74,815.6,265,808.55,222.81Z"/><path class="cls-4" d="M733.73,183.82a30.75,30.75,0,0,1,9-5.42c11.83-4.89,25.48-5.27,36.49,1.26,5.62,3.34,13.08,9.52,20.33,12C799.6,191.61,758,219.07,733.73,183.82Z"/><path class="cls-4" d="M679.64,423.17a31.19,31.19,0,0,1,.51-10.54c2.48-12.56,9.72-24.14,21.26-29.68,5.89-2.83,15.17-5.62,21.21-10.31C722.62,372.64,722.42,422.51,679.64,423.17Z"/><path class="cls-4" d="M848.85,487.26a31.1,31.1,0,0,1,9.57-4.45c12.27-3.63,25.89-2.61,36.16,5,5.24,3.9,12,10.82,19,14C913.57,501.83,869.31,524.83,848.85,487.26Z"/><path class="cls-4" d="M771.24,514a30.87,30.87,0,0,1,8.62,6.09c9.26,8.84,15.13,21.17,13.61,33.87-.78,6.49-3.42,15.82-2.7,23.43C790.77,577.4,748.82,550.44,771.24,514Z"/><path class="cls-3" d="M826.73,582.09a29,29,0,0,1,.65,9.81c-1,11.88-6.43,23.37-16.52,29.72-5.15,3.24-13.44,6.81-18.53,11.8C792.33,633.42,787.22,587.24,826.73,582.09Z"/><path class="cls-4" d="M835.52,629.1a28.76,28.76,0,0,1,.66,9.8c-1,11.88-6.44,23.37-16.53,29.72-5.15,3.25-13.44,6.81-18.53,11.8C801.12,680.42,796,634.25,835.52,629.1Z"/><path class="cls-4" d="M914.4,603.05a28.93,28.93,0,0,1,8.45,5c9.23,7.54,15.59,18.56,15.1,30.47-.25,6.08-2,14.93-.8,22C937.15,660.49,896.23,638.51,914.4,603.05Z"/><path class="cls-4" d="M728,346.87a31.1,31.1,0,0,1,8-6.94c10.78-6.91,24.14-9.71,36.13-5.23,6.13,2.29,14.56,7.05,22.14,8.15C794.22,342.85,758.11,377.26,728,346.87Z"/><path class="cls-4" d="M864,315.41a24.84,24.84,0,0,1-.66-8.41c.71-10.22,5.29-20.14,13.89-25.7,4.39-2.84,11.47-6,15.79-10.32C893.06,271,897.93,310.58,864,315.41Z"/><path class="cls-4" d="M908.42,439.93a25,25,0,0,1,6.79-5c9-4.81,19.88-6.19,29.15-1.85,4.73,2.22,11.16,6.56,17.12,7.92C961.48,441,930.48,466.1,908.42,439.93Z"/><path class="cls-2" d="M860.39,374.66a31.07,31.07,0,0,1,5.07-9.26c7.72-10.2,19.3-17.45,32.09-17.39,6.54,0,16.1,1.58,23.59,0C921.14,348,899.15,392.77,860.39,374.66Z"/><path class="cls-4" d="M589.24,179a31.11,31.11,0,0,1,7.38-7.54c10.2-7.74,23.3-11.59,35.61-8.07,6.28,1.8,15.07,5.87,22.71,6.37C654.94,169.8,621.66,207,589.24,179Z"/><path class="cls-4" d="M524.69,107.13a30.85,30.85,0,0,1-1-10.5c.63-12.78,6.12-25.29,16.72-32.45,5.43-3.66,14.2-7.76,19.49-13.29C559.87,50.89,566.92,100.27,524.69,107.13Z"/><path class="cls-4" d="M270.59,177.9a31.09,31.09,0,0,1-10,3.27c-12.61,2.13-26-.52-35.29-9.34-4.74-4.5-10.64-12.19-17.17-16.16C208.09,155.67,254.78,138.14,270.59,177.9Z"/><path class="cls-4" d="M451.71,274.26a31.06,31.06,0,0,1-8-6.85c-8.4-9.65-13.13-22.47-10.45-35,1.37-6.4,4.85-15.44,4.83-23.09C438.06,209.34,477.37,240,451.71,274.26Z"/><path class="cls-2" d="M192.4,415.77a31,31,0,0,1,.07-10.55c2-12.65,8.71-24.52,20-30.54,5.77-3.07,14.93-6.25,20.76-11.19C233.23,363.49,235.12,413.33,192.4,415.77Z"/><path class="cls-4" d="M231.45,486a31,31,0,0,1-9.28-5c-10.22-7.69-17.51-19.24-17.49-32,0-6.54,1.53-16.11-.08-23.59C204.6,425.32,249.44,447.17,231.45,486Z"/><path class="cls-4" d="M111.59,539.26a31,31,0,0,1-9.82-3.88c-11.08-6.4-19.7-17-21.23-29.7-.78-6.49-.42-16.17-2.92-23.4C77.62,482.28,124.76,498.56,111.59,539.26Z"/><path class="cls-2" d="M183.68,595.7a31.19,31.19,0,0,1-5.41,9.06c-8.11,9.9-20,16.7-32.74,16.15-6.53-.28-16-2.19-23.57-.89C122,620,145.64,576.12,183.68,595.7Z"/><path class="cls-4" d="M287.15,340.37a24.8,24.8,0,0,1-6-5.91c-6.17-8.17-9.24-18.66-6.41-28.5,1.45-5,4.72-12,5.13-18.16C279.84,287.8,309.52,314.47,287.15,340.37Z"/><path class="cls-4" d="M192.81,310.74a24.76,24.76,0,0,1-2.89-7.93c-2.06-10-.31-20.81,6.48-28.48,3.47-3.91,9.45-8.84,12.45-14.18C208.85,260.15,224.16,297,192.81,310.74Z"/><path class="cls-4" d="M109.41,398.38a24.73,24.73,0,0,1-6.9-4.86c-7.41-7.07-12.12-16.93-10.91-27.09.62-5.2,2.71-12.66,2.13-18.75C93.73,347.68,127.32,369.22,109.41,398.38Z"/><path class="cls-4" d="M173.66,631.25a24.86,24.86,0,0,1-3.06,7.86c-5.08,8.89-13.52,15.84-23.68,17.11-5.19.64-12.94.4-18.71,2.43C128.21,658.65,141.05,620.87,173.66,631.25Z"/><path class="cls-4" d="M361.44,356.86a24.93,24.93,0,0,1-1.46-8.31c-.28-10.24,3.32-20.55,11.34-26.91,4.1-3.25,10.85-7.07,14.73-11.8C386.05,309.84,394.7,348.79,361.44,356.86Z"/><path class="cls-4" d="M359.7,399.33a24.83,24.83,0,0,1,3.21-7.81c5.24-8.79,13.81-15.58,24-16.66,5.2-.55,12.94-.16,18.75-2.08C405.65,372.78,392.12,410.31,359.7,399.33Z"/><path class="cls-4" d="M401.31,261.78a31.09,31.09,0,0,0-9.27-5c-12-4.39-25.68-4.22-36.4,2.76-5.48,3.57-12.68,10.05-19.83,12.77C335.81,272.26,378.53,298,401.31,261.78Z"/><path class="cls-4" d="M504.3,236.59a31.26,31.26,0,0,0-.53-10.54c-2.52-12.55-9.79-24.11-21.34-29.62-5.9-2.81-15.19-5.58-21.24-10.26C461.19,186.17,461.52,236,504.3,236.59Z"/><path class="cls-4" d="M503.51,153.54A30.93,30.93,0,0,0,503,143c-2.52-12.54-9.79-24.11-21.34-29.62-5.9-2.81-15.18-5.58-21.24-10.26C460.4,103.12,460.73,153,503.51,153.54Z"/><path class="cls-4" d="M584.94,153.14a31,31,0,0,0,8.7-6c9.37-8.72,15.41-21,14.06-33.69C607,107,604.5,97.62,605.32,90,605.32,90,563,116.41,584.94,153.14Z"/><path class="cls-4" d="M619.31,137.88a31.31,31.31,0,0,0,10.55.34c12.71-1.48,24.83-7.77,31.28-18.82,3.29-5.65,6.81-14.68,12-20.32C673.12,99.08,623.39,95.29,619.31,137.88Z"/><path class="cls-4" d="M676.16,200.13a31.07,31.07,0,0,0,6.5-8.31c6.31-11.13,8.4-24.63,3.28-36.36-2.62-6-7.82-14.16-9.33-21.66C676.61,133.8,644.19,171.7,676.16,200.13Z"/><path class="cls-4" d="M728.11,162.92a30.87,30.87,0,0,0,7.79-7.12c8.08-9.92,12.38-22.88,9.29-35.3-1.58-6.35-5.35-15.27-5.59-22.92C739.6,97.58,701.32,129.56,728.11,162.92Z"/><path class="cls-2" d="M332.38,211.44a31.2,31.2,0,0,0-9.28-5c-12-4.39-25.67-4.22-36.4,2.76-5.48,3.57-12.68,10.05-19.83,12.77C266.87,221.93,309.6,247.66,332.38,211.44Z"/><path class="cls-3" d="M220.77,203.13a30.86,30.86,0,0,0-10.46-1.35c-12.8.24-25.47,5.34-32.95,15.72-3.82,5.31-8.19,13.95-13.87,19.08C163.49,236.58,212.63,245.13,220.77,203.13Z"/><path class="cls-4" d="M349,160.53a31,31,0,0,0-2.88-10.15c-5.26-11.67-14.94-21.31-27.43-24.09-6.38-1.42-16.05-2-23-5.25C295.74,121,307.23,169.58,349,160.53Z"/><path class="cls-4" d="M438.58,289.79a30.91,30.91,0,0,0-9.27-5.05c-12-4.39-25.68-4.22-36.4,2.76-5.48,3.57-12.68,10.05-19.83,12.77C373.08,300.27,415.81,326,438.58,289.79Z"/><path class="cls-4" d="M214.59,499.84a31,31,0,0,0-9.27-5c-12-4.4-25.68-4.22-36.4,2.76-5.48,3.57-12.68,10.05-19.83,12.77C149.09,510.33,191.82,536.06,214.59,499.84Z"/><path class="cls-2" d="M277.12,498.64a31.2,31.2,0,0,0-8.32,6.5c-8.82,9.26-14.11,21.86-12,34.48,1.09,6.44,4.16,15.63,3.8,23.27C260.61,562.89,301.25,534,277.12,498.64Z"/><path class="cls-4" d="M243,523.59a31,31,0,0,0-9.23,5.12c-10.16,7.78-17.35,19.4-17.21,32.19.07,6.54,1.67,16.1.13,23.59C216.69,584.49,261.33,562.24,243,523.59Z"/><path class="cls-4" d="M202.11,597.91a31,31,0,0,0-1.17,10.49c.45,12.79,5.76,25.37,16.27,32.67,5.37,3.74,14.08,8,19.3,13.56C236.51,654.63,244.24,605.36,202.11,597.91Z"/><path class="cls-3" d="M178.38,472.49a31,31,0,0,0-9.27-5c-12-4.4-25.68-4.22-36.4,2.76-5.48,3.57-12.68,10.05-19.83,12.77C112.88,483,155.6,508.71,178.38,472.49Z"/><path class="cls-4" d="M175.44,416.52a31.24,31.24,0,0,0-2.12-10.34c-4.39-12-13.33-22.35-25.58-26.05-6.26-1.89-15.85-3.22-22.54-6.93C125.2,373.2,133.07,422.45,175.44,416.52Z"/><path class="cls-3" d="M110.62,555.4a31.18,31.18,0,0,0-10.3-2.3c-12.76-.92-25.85,3-34.24,12.65-4.29,4.94-9.44,13.14-15.56,17.73C50.52,583.48,98.67,596.48,110.62,555.4Z"/><path class="cls-4" d="M103.82,607.13a30.87,30.87,0,0,0-9.63,4.33c-10.76,6.92-18.89,17.9-19.81,30.66-.47,6.52.33,16.18-1.82,23.52C72.56,665.64,118.89,647.16,103.82,607.13Z"/><path class="cls-3" d="M662.3,389.74a31.22,31.22,0,0,0-1.16-10.49c-3.25-12.37-11.19-23.49-23-28.3-6.06-2.47-15.49-4.68-21.81-9C616.28,342,619.56,391.73,662.3,389.74Z"/><path class="cls-3" d="M813.68,490a30.9,30.9,0,0,0,8.07-6.8c8.47-9.6,13.27-22.38,10.67-34.91-1.33-6.4-4.75-15.47-4.68-23.12C827.74,425.19,788.23,455.63,813.68,490Z"/><path class="cls-2" d="M867.72,548.14A29.2,29.2,0,0,0,875.6,554c10.49,5.65,23.1,7.31,33.92,2.31,5.53-2.56,13-7.57,20-9.13C929.5,547.2,893.54,517.79,867.72,548.14Z"/><path class="cls-4" d="M917.24,577.69a29.08,29.08,0,0,0,7.7,6.11c10.32,6,22.88,8,33.84,3.31,5.6-2.39,13.25-7.18,20.24-8.53C979,578.58,944,548.12,917.24,577.69Z"/><path class="cls-4" d="M844.54,413.66a31.22,31.22,0,0,0-1.16-10.49c-3.26-12.37-11.2-23.49-23-28.3-6.06-2.47-15.49-4.68-21.81-9C798.52,365.88,801.8,415.65,844.54,413.66Z"/><path class="cls-4" d="M659.31,316.82a24.81,24.81,0,0,0,0-8.44c-1.46-10.13-6.76-19.69-15.74-24.6-4.59-2.51-11.89-5.12-16.52-9.13C627.09,274.65,625.16,314.51,659.31,316.82Z"/><path class="cls-4" d="M343.19,370.51a24.81,24.81,0,0,0,0-8.44c-1.46-10.14-6.76-19.69-15.75-24.6-4.59-2.51-11.88-5.13-16.51-9.13C311,328.34,309,368.19,343.19,370.51Z"/><path class="cls-4" d="M306.51,381.33a24.85,24.85,0,0,0-6.29-5.63c-8.55-5.63-19.22-8-28.85-4.54-4.92,1.77-11.72,5.49-17.79,6.3C253.58,377.46,282.12,405.34,306.51,381.33Z"/><path class="cls-4" d="M275,354.76a24.8,24.8,0,0,0-6.3-5.63c-8.55-5.63-19.21-8-28.85-4.54-4.92,1.77-11.72,5.49-17.78,6.3C222.1,350.89,250.64,378.77,275,354.76Z"/><path class="cls-4" d="M172.49,338.33a24.92,24.92,0,0,0,.2-8.44c-1.28-10.16-6.4-19.82-15.29-24.89-4.54-2.59-11.79-5.35-16.34-9.44C141.06,295.56,138.39,335.38,172.49,338.33Z"/><path class="cls-4" d="M191.28,633.48a25,25,0,0,0-1.15,8.36c.1,10.24,4.09,20.41,12.35,26.47,4.21,3.09,11.1,6.65,15.15,11.24C217.63,679.55,224.82,640.3,191.28,633.48Z"/><path class="cls-4" d="M114.59,428.38a24.83,24.83,0,0,0-7-4.78c-9.2-4.5-20.08-5.5-29.19-.83-4.66,2.38-10.93,6.93-16.84,8.5C61.6,431.27,93.45,455.3,114.59,428.38Z"/><path class="cls-4" d="M844.08,337.1a24.81,24.81,0,0,0,0-8.44c-1.46-10.14-6.76-19.69-15.75-24.6-4.59-2.51-11.88-5.13-16.51-9.13C811.86,294.93,809.93,334.78,844.08,337.1Z"/><path class="cls-4" d="M845.52,581.85a25.58,25.58,0,0,0,1.5,8.52c3.33,10,10.41,18.61,20.37,21.92,5.08,1.69,12.92,3,18.31,6.19C885.7,618.48,880.37,578,845.52,581.85Z"/><path class="cls-2" d="M853.7,631.54a25.58,25.58,0,0,0,1.5,8.52c3.32,10,10.41,18.61,20.36,21.92,5.09,1.69,12.92,3,18.32,6.19C893.88,668.17,888.55,627.64,853.7,631.54Z"/><path class="cls-4" d="M725.62,323.65a30.91,30.91,0,0,0,7.1-7.8c7.14-10.63,10.22-23.93,6-36-2.16-6.17-6.74-14.71-7.68-22.3C731,257.54,695.87,292.9,725.62,323.65Z"/><path class="cls-1" d="M960.15,700.65H67.62a5.67,5.67,0,1,1,0-11.34H960.15a5.67,5.67,0,1,1,0,11.34Z"/><path class="cls-1" d="M615.74,139.57a5.66,5.66,0,0,0-8-.34l-88.17,81V155.55a5.11,5.11,0,0,0,.52-.52l84.78-95a5.67,5.67,0,0,0-8.46-7.55l-76.84,86.13V47.33a5.67,5.67,0,1,0-11.34,0v55.11L454.11,52.09a5.67,5.67,0,1,0-7.73,8.3l61.84,57.54v67.9l-80.86-58.06a5.67,5.67,0,1,0-6.61,9.21l87.47,62.81V334.53a5.67,5.67,0,1,0,11.34,0V235.62l95.84-88A5.67,5.67,0,0,0,615.74,139.57Z"/><path class="cls-1" d="M517.73,329.32,370,220.45l-13.19-142a5.67,5.67,0,0,0-11.29,1.05l12.26,131.9L251.12,132.85a5.67,5.67,0,1,0-6.73,9.13l53.74,39.6-116.24,8.15a5.67,5.67,0,0,0,.39,11.32h.4L312.22,192l61.93,45.64L240.36,250.75a5.67,5.67,0,0,0,.55,11.31l.56,0,146.32-14.38L511,338.45a5.67,5.67,0,0,0,6.73-9.13Z"/><path class="cls-1" d="M725.42,346.45l36.11-40.63a5.67,5.67,0,0,0-8.48-7.53l-30.34,34.14-18.94-40.76a5.67,5.67,0,1,0-10.28,4.78l21,45.22-37.29,42V310.25a5.67,5.67,0,0,0-11.34,0V340.1l-40.1-34.16a5.67,5.67,0,1,0-7.36,8.63L665.87,355v83a5.67,5.67,0,1,0,11.34,0V400.7l48.19-54.23Z"/><path class="cls-1" d="M963.64,612.87,830.11,531.72h0l-90.88-55.22a5.67,5.67,0,1,0-5.88,9.69l88.83,54L841.65,650.3a5.67,5.67,0,0,0,5.58,4.68,5.51,5.51,0,0,0,1-.08,5.68,5.68,0,0,0,4.6-6.57L835.07,548l122.68,74.55a5.67,5.67,0,1,0,5.89-9.69Z"/><path class="cls-1" d="M297.28,477.66a5.68,5.68,0,0,0-7.79-1.9l-44.57,27.09-54.16-39.69-2.63-115.78,43.74-54.88a5.67,5.67,0,1,0-8.87-7.07l-35.28,44.26-1-45.65a5.67,5.67,0,0,0-11.34.26l1.8,79.22L119,308.12a5.67,5.67,0,0,0-7.82,8.21l66.36,63.2,1.71,75.18L79.89,381.92a5.67,5.67,0,1,0-6.7,9.15l61.71,45.22c-7,1.87-17.17,4.9-32.18,9.61-21,6.6-41.89,13.57-42.1,13.64a5.67,5.67,0,0,0,3.59,10.76c35.05-11.71,74.12-23.86,82.69-25.21l87.53,64.13L161,553.87,63.74,530.41a5.67,5.67,0,0,0-2.66,11l86.14,20.78L65.07,612.14a5.67,5.67,0,0,0,3,10.52,5.63,5.63,0,0,0,2.94-.83L203.65,541.2,168.76,657.9a5.65,5.65,0,0,0,3.8,7.05,5.8,5.8,0,0,0,1.63.24,5.67,5.67,0,0,0,5.43-4.05l38.49-128.73,77.26-47A5.67,5.67,0,0,0,297.28,477.66Z"/><path class="cls-1" d="M967.32,473.05l-70.08-28.87,60.88-48.62A5.67,5.67,0,1,0,951,386.7l-68.41,54.64,0,0-24.25,19.37V357l56.25-58.39a5.67,5.67,0,0,0-8.17-7.87l-48.08,49.91V282.37a5.67,5.67,0,0,0-11.34,0v83.54L801.13,323a5.67,5.67,0,0,0-7.75,8.28L847,381.44V469.8l-53.27,42.54a5.67,5.67,0,0,0,7.08,8.87l86.31-68.93L963,483.53a5.43,5.43,0,0,0,2.15.43,5.67,5.67,0,0,0,2.16-10.91Z"/><path class="cls-1" d="M856.61,205.83h-161L782.24,142a5.67,5.67,0,0,0-6.72-9.13l-60.79,44.79c-.89-17.59-.07-58.68.86-86.29A5.67,5.67,0,0,0,704.25,91c-.27,8.18-2.52,77.6-.19,94.53L508.9,329.32a5.67,5.67,0,0,0,6.73,9.13L680.2,217.17H750l62.82,52.09a5.67,5.67,0,1,0,7.24-8.73l-52.29-43.36h88.8a5.67,5.67,0,0,0,0-11.34Z"/><path class="cls-1" d="M410.45,339.37a5.67,5.67,0,0,0-7.9-1.34l-45.72,32.51V311.06a5.67,5.67,0,1,0-11.34,0v84l-42.71-35.17,8-41.47a5.67,5.67,0,0,0-11.14-2.14l-6.8,35.4-30-24.71a5.67,5.67,0,1,0-7.21,8.75L293,366.46l0,0,52.5,43.23v29.07a5.67,5.67,0,1,0,11.34,0V407.05h0V384.46l52.29-37.19A5.66,5.66,0,0,0,410.45,339.37Z"/><path class="cls-1" d="M513.89,328.34,275.6,484.7h70.93V701.17H681.25V484.7h70.92Zm-5,297.43h-60.8V565h60.8Zm0-70.86h-60.8v-60.8h60.8Zm70.86,70.86H518.91V565h60.81Zm0-70.86H518.91v-60.8h60.81Z"/><path class="cls-1" d="M513.89,1001A487.27,487.27,0,0,1,324.26,65,487.28,487.28,0,0,1,703.51,962.76,484.16,484.16,0,0,1,513.89,1001Zm0-963c-262.37,0-475.82,213.45-475.82,475.82S251.52,989.7,513.89,989.7,989.7,776.25,989.7,513.89,776.25,38.07,513.89,38.07Z"/></g></g></svg>