<svg xmlns="http://www.w3.org/2000/svg" viewBox="0 0 421.43 244.79"><defs><style>.cls-1{isolation:isolate;}.cls-2{fill:#ffa0aa;}.cls-3{fill:#ffb9be;}.cls-4,.cls-45,.cls-46{mix-blend-mode:overlay;}.cls-4{opacity:0.28;}.cls-5{fill:#ff8291;}.cls-6{fill:#1c9585;}.cls-7{font-size:175.69px;}.cls-19,.cls-33,.cls-7{fill:#fff;}.cls-33,.cls-7{font-family:FamiliarPro-Bold, FamiliarPro Bold;font-weight:700;}.cls-8{letter-spacing:-0.08em;}.cls-9{letter-spacing:-0.01em;}.cls-10{fill:#ffdc64;}.cls-11{fill:#41378c;}.cls-12{fill:#ffb49b;}.cls-13{fill:#ab51a6;}.cls-14{fill:#be5ab9;}.cls-15{fill:#e64b55;}.cls-16{fill:#ffa587;}.cls-17{fill:#f5876e;}.cls-18{fill:#a5c8cd;}.cls-20{fill:#ff6473;}.cls-21{fill:#6eaa50;}.cls-22,.cls-44,.cls-47{fill:none;}.cls-22{stroke:#fff;stroke-linecap:round;stroke-linejoin:round;stroke-width:0.94px;}.cls-23{fill:#fac855;}.cls-24{fill:#5046af;}.cls-25{fill:#82be50;}.cls-26{fill:#55879b;}.cls-27{fill:#6c9baa;}.cls-28{fill:#c8e6eb;}.cls-29{fill:#e4f2f6;}.cls-30{fill:#a0ebff;}.cls-31{fill:#96dbbf;}.cls-32{fill:#ffe65a;}.cls-33{font-size:5.27px;}.cls-34{fill:#3c5a73;}.cls-35{fill:#50374b;}.cls-36{fill:#00558c;}.cls-37{fill:#46738c;}.cls-38{fill:#ff7350;}.cls-39{fill:#ff9669;}.cls-40{fill:#373c41;}.cls-41{fill:#50555a;}.cls-42{fill:#ffa50a;}.cls-43{fill:#f2be46;}.cls-44{stroke:#fac855;}.cls-44,.cls-47{stroke-miterlimit:10;stroke-width:0.69px;}.cls-45,.cls-46{opacity:0.26;}.cls-47{stroke:#ffdc64;}.cls-48{fill:#87afb9;}.cls-49{fill:#006941;}.cls-50{fill:#297f58;}.cls-51{fill:#2f9165;}</style></defs><g class="cls-1"><g id="Layer_2" data-name="Layer 2"><g id="OBJECTS"><path class="cls-2" d="M323.85,46.7s25.38,10.17,29.8,26.93,0,52.92,0,52.92-14-38.68-16.69-49.36S323.85,46.7,323.85,46.7Z"/><path class="cls-3" d="M353.65,85.78a73.41,73.41,0,0,1,1.87,15.34c.29-9.83,0-20.4-1.87-27.49-4.42-16.76-29.8-26.93-29.8-26.93s.6,1.14,1.55,3a57.15,57.15,0,0,0,15.66,19.2C346.64,73.3,351.86,79,353.65,85.78Z"/><path class="cls-4" d="M353.65,126.55s3.13-25.57,1.5-43.67c-3,8-5.26,18.09-6.92,28.48C351.24,119.9,353.65,126.55,353.65,126.55Z"/><path class="cls-2" d="M344.75,164.5s7-92.21,30-98,32.77,57.16,32.77,57.16-21.36-33.48-26.26-32.41S344.75,164.5,344.75,164.5Z"/><path class="cls-5" d="M386.15,84.53c-2.45,1.11-7.43,9.5-7.44,9.51,1.12-1.67,2-2.67,2.54-2.79,4.9-1.07,26.26,32.41,26.26,32.41C402.17,104.48,388.59,83.42,386.15,84.53Z"/><path class="cls-3" d="M354.58,166.52s16.07-59.29,37.16-77.28,29.69-23.11,29.69-23.11-24.27,45.09-33.12,58.92S354.58,166.52,354.58,166.52Z"/><path class="cls-2" d="M407.51,81.42c-2.48,3.36-4.93,6.75-7.3,10.19s-4.75,6.87-7,10.38-4.5,7-6.61,10.62-4,7.29-6,11q-6.12,11-12.62,21.69L361.35,156c-2.24,3.53-4.46,7.07-6.77,10.56l12.58-21.7c4.18-7.24,8.39-14.46,12.37-21.8,2-3.64,4-7.36,6.14-11s4.4-7.13,6.78-10.58C397.18,94.58,402.17,87.85,407.51,81.42Z"/><path class="cls-2" d="M393.94,91.54a47.57,47.57,0,0,1,.06,4.92c-.06,1.63-.16,3.26-.31,4.89l-.86-.55c1.2-.67,2.41-1.32,3.65-1.92s2.49-1.18,3.8-1.66c-1.09.87-2.22,1.66-3.37,2.42s-2.32,1.47-3.51,2.16l-.94.55.08-1.1c.11-1.63.29-3.25.51-4.87A45.17,45.17,0,0,1,393.94,91.54Z"/><path class="cls-2" d="M388,99.33a46,46,0,0,1,.49,5c.07,1.65.11,3.3.09,4.95l-.78-.54c1.25-.45,2.52-.87,3.8-1.25s2.57-.74,3.89-1c-1.17.67-2.38,1.25-3.59,1.8s-2.45,1.06-3.7,1.53l-.76.29v-.83c0-1.65,0-3.3.09-4.95A46,46,0,0,1,388,99.33Z"/><path class="cls-2" d="M380.58,107.9a51.72,51.72,0,0,1,1.66,4.92c.46,1.67.89,3.33,1.25,5l-.68-.43c1.28-.26,2.57-.48,3.87-.67s2.59-.35,3.92-.42c-1.24.49-2.49.87-3.75,1.24s-2.52.69-3.8,1l-.54.12-.14-.55c-.42-1.67-.77-3.36-1.1-5A51.81,51.81,0,0,1,380.58,107.9Z"/><path class="cls-2" d="M375.69,118.47a36.54,36.54,0,0,1,1.74,3.9c.5,1.32,1,2.66,1.37,4l-.7-.38c1.14-.28,2.28-.53,3.43-.73a31.61,31.61,0,0,1,3.5-.46,30.56,30.56,0,0,1-3.28,1.29c-1.11.38-2.23.71-3.36,1l-.52.14-.17-.52c-.45-1.34-.84-2.7-1.19-4.07A32.66,32.66,0,0,1,375.69,118.47Z"/><path class="cls-2" d="M372,127.48a20.62,20.62,0,0,1,1.62,2.79c.47.95.89,1.93,1.27,2.92l-.67-.35c.91-.2,1.82-.37,2.75-.49a18.82,18.82,0,0,1,2.82-.19,19.62,19.62,0,0,1-2.62,1.05c-.89.3-1.79.54-2.69.76l-.48.11-.19-.46c-.4-1-.76-2-1.07-3A20.5,20.5,0,0,1,372,127.48Z"/><path class="cls-5" d="M347.27,153.86c1.46-5,3-10.05,4.48-15.08l4.6-15c3.08-10,6.26-20,9.42-30l2.44-7.48A65.85,65.85,0,0,1,371,78.83c1.15-2.38,2.6-4.82,5-6.31a7.63,7.63,0,0,1,4-1.1,11.17,11.17,0,0,1,4,.85,15.6,15.6,0,0,1,6.24,5,45.69,45.69,0,0,1,4.38,6.59A93.25,93.25,0,0,1,401,98.26a101,101,0,0,0-6.84-14.12,46.93,46.93,0,0,0-4.45-6.41,14.94,14.94,0,0,0-6-4.61,8,8,0,0,0-7.15.27c-2.1,1.31-3.49,3.59-4.57,5.89a62.58,62.58,0,0,0-2.71,7.31l-2.39,7.49L357.21,124,352.3,139Z"/><path class="cls-5" d="M334.37,58.05A57.31,57.31,0,0,1,343,68a36.19,36.19,0,0,1,3.25,5.8A28.89,28.89,0,0,1,347.38,77l.41,1.64c.13.55.19,1.08.3,1.62.72,4.33,1.44,8.65,2.07,13l.95,6.51c.27,2.18.58,4.35.82,6.53-.5-2.14-.93-4.29-1.39-6.43l-1.27-6.45c-.84-4.3-1.59-8.61-2.34-12.93-.09-.53-.16-1.09-.28-1.61l-.37-1.55a30.33,30.33,0,0,0-1.1-3,42.33,42.33,0,0,0-3-5.75c-1.14-1.86-2.38-3.65-3.7-5.39S335.81,59.7,334.37,58.05Z"/><ellipse class="cls-6" cx="190.84" cy="202.51" rx="190.84" ry="7.92"/><text class="cls-7" transform="translate(52.61 200.87)"><tspan class="cls-8">F</tspan><tspan class="cls-9" x="71.86" y="0">A</tspan><tspan x="176.75" y="0">Q</tspan></text><path class="cls-10" d="M130.89,109.31c-.23-2.27.42-5.68,1.69-6.88,2-1.92,6.35.52,7.56-.62,2-1.9,5.35-.66,7,2.35a7.12,7.12,0,0,1,.79,2.2,4.12,4.12,0,0,0,1.41,2.43,5.33,5.33,0,0,1,1.44,2l.11.3a10.13,10.13,0,0,0,3.6,4.71,7.27,7.27,0,1,1-11.59,6.93,7.44,7.44,0,0,1,.11-2.83h-.18a3.21,3.21,0,0,1-2.16,1.43,5.2,5.2,0,0,1-4.82-2.37,7.39,7.39,0,0,1-1.28-2.81,7.14,7.14,0,0,0-2.42-4A3.61,3.61,0,0,1,130.89,109.31Z"/><path class="cls-11" d="M116.13,206c.63,1.62-.5,2-2.53,2.64s-3.57.84-3.74.31.54-1.22,2.24-2.49C114.15,204.92,115.72,204.93,116.13,206Z"/><path class="cls-12" d="M116.63,203.42l-1,2.56a.84.84,0,0,1-1,.59h0a.84.84,0,0,1-.66-.95l.41-3.45Z"/><path class="cls-13" d="M134.65,139s-6.16,1-9.2,8.43c-2.89,7.05-11.22,50.87-11.82,55.15a.46.46,0,0,0,.28.5,5.38,5.38,0,0,0,2.78.41.49.49,0,0,0,.39-.29l18-44.65a37.93,37.93,0,0,0,2.44-19v-.05Z"/><path class="cls-11" d="M125.63,181.23c1.69.4,1.35,1.54.75,3.58s-1.32,3.42-1.85,3.27-.71-1.13-.8-3.26C123.63,182.27,124.52,181,125.63,181.23Z"/><path class="cls-12" d="M124.43,179l1,2.53c.34.8.2,1.28-.18,1.51h0a.84.84,0,0,1-1.13-.24L122.09,180Z"/><path class="cls-14" d="M144.65,135.2l3.23,6.18a9.18,9.18,0,0,1,.75,6.92c-1.5,5-6.3,6.83-9.69,7.65-6.37,1.56-16.17,7.27-16.43,8.1-1.11,3.51,2.52,15.37,2.52,15.37s-1.06,1.83-2.39,2.18c-3.73-6.49-6.56-14.4-6-20C117.86,148.75,144.65,135.2,144.65,135.2Z"/><path class="cls-15" d="M130.63,137.11s-3-11.33-1.49-16.4c.92-3.12,3.9-8.8,10.07-8.25,4.12.37,10.59.26,10.57,8.49,0,4.36-1.66,12.84-6,17.34C143.74,138.29,136.47,141,130.63,137.11Z"/><path class="cls-16" d="M140.66,116.82h0a2.17,2.17,0,0,0,1.8-2.48l-1.13-7.06-4.28.68,1.13,7.06A2.17,2.17,0,0,0,140.66,116.82Z"/><path class="cls-17" d="M138.36,113.39h0a3.25,3.25,0,0,1-.44,0l-.87-5.46,4.28-.68.13.8C141.8,110.2,140.48,113.05,138.36,113.39Z"/><path class="cls-12" d="M137.65,112.34h0c1.87-.3,4-3,3.73-4.83l-.62-3.87L134,104.72l.61,3.87C134.89,110.46,136.83,112.47,137.65,112.34Z"/><path class="cls-16" d="M142.51,105.54a1.53,1.53,0,0,1-1.26,1.75l-.48-3A1.52,1.52,0,0,1,142.51,105.54Z"/><path class="cls-16" d="M133.9,104.21l5.72-.91.2,1.26a1.12,1.12,0,0,1,1.22,1,1,1,0,0,1,0,.45,1.69,1.69,0,0,1-.43-.15,1.5,1.5,0,0,0-.91-.12,3,3,0,0,1-1.93-.37,3.32,3.32,0,0,0-2.63-.31,3.39,3.39,0,0,1-.57.14,2.81,2.81,0,0,1-.5,0Z"/><path class="cls-18" d="M138.34,134a.7.7,0,0,1-.68.81h-3.42a.68.68,0,0,1-.69-.58L132.4,127a.69.69,0,0,1,.68-.81h3.42a.7.7,0,0,1,.69.59Z"/><path class="cls-19" d="M137.74,134.84l-4.83,0L131.66,127a.69.69,0,0,1,.68-.79h3.32a.84.84,0,0,1,.82.7Z"/><path class="cls-10" d="M133.43,96.15a4.2,4.2,0,0,1,3.33,1,5.38,5.38,0,0,0,3.37,1.2h0a3.47,3.47,0,0,1,3.05,2.26c.06.18.1.35.14.52a3.63,3.63,0,0,0,.65,1.57,1.76,1.76,0,0,1,.32.74,1.84,1.84,0,0,1-1.6,2.06,1.94,1.94,0,0,1-1.2-.18,1.69,1.69,0,0,0-1-.15,3.4,3.4,0,0,1-2.2-.41,3.7,3.7,0,0,0-3-.35,3.61,3.61,0,0,1-.65.15,4.25,4.25,0,0,1-4.89-3.65A4.38,4.38,0,0,1,133.43,96.15Z"/><path class="cls-12" d="M128.52,132.74,130,132a2.62,2.62,0,0,0,1.51-1.6c.05-.22-.85-1.38-.43-1.4s.83.54,1.93,1.34a17.41,17.41,0,0,1,1.8-.74c.65-.23,2.74-.72,3-.07.35,1-1.48,3.53-2.42,4a17.58,17.58,0,0,1-4.11.66l-2.27,1Z"/><path class="cls-20" d="M132.78,114.65c-6.26,5.13-12,18-11.13,21,1.42,4.95,9.78,3.46,9.78,3.46s1-4.42-1.37-10.85l1.71-7.93S133.9,116.23,132.78,114.65Z"/><path class="cls-12" d="M130.71,138.57s-1.6,0-2.88-.17a.86.86,0,0,0-.93,1,3.51,3.51,0,0,1-.06,1.39c-.38,1.44-.5,3.85.11,4.43s3.73-2.72,3.73-2.72l3.79-1Z"/><path class="cls-20" d="M129.13,134.62s14.27-2.69,16.88-6c1.71-2.16-.76-6.68-1.59-10.05a2.56,2.56,0,0,1,1.19-2.83h0c1.51-.89,3.43.44,3.8,2.14,1.23,5.65,4.37,13.57,2.92,16.54-2.16,4.41-15.46,12.57-15.46,12.57A28,28,0,0,1,129.13,134.62Z"/><path class="cls-21" d="M297.68,156.07c-8.24-1.87-13.7.17-13.7.17l-3.24,6.57,7.76,7.08S314.35,174,315,178.07s-13.69,17.42-13.69,17.42a.48.48,0,0,0-.06.5,5.76,5.76,0,0,0,1.83,2.33.5.5,0,0,0,.6,0c2.28-1.77,26-14.54,24.7-26.25C327.51,164.45,301.76,157,297.68,156.07Z"/><path class="cls-22" d="M314.14,135.56a2.61,2.61,0,1,1,2.6,2.6V142"/><path class="cls-23" d="M287.67,132.08a2.13,2.13,0,1,1-2.18-2.06A2.13,2.13,0,0,1,287.67,132.08Z"/><path class="cls-23" d="M289.08,133.63a2.43,2.43,0,1,1-2.5-2.37A2.43,2.43,0,0,1,289.08,133.63Z"/><path class="cls-24" d="M294.63,138.5s5.06,9.22,8.78,11.26c3.54,1.94,16,1.63,16,1.63a21.89,21.89,0,0,1,.42,11.77s-16-3.8-20.14-7.25c-3.23-2.69-8.47-14.58-8.47-14.58Z"/><path class="cls-11" d="M331.09,213.63c0,1.83,1.21,1.79,3.44,1.73s3.84-.43,3.82-1-1-1-3.1-1.69C332.68,211.87,331.13,212.44,331.09,213.63Z"/><path class="cls-12" d="M329.42,211.8l2.26,1.8a.88.88,0,0,0,1.21,0h0a.88.88,0,0,0,.08-1.21l-2.21-2.91Z"/><path class="cls-25" d="M291.31,180.62s-12.54-2.91-9.3-19.18l11.34-3.95S319.93,190.24,332,209.9a.48.48,0,0,1,0,.48,5.58,5.58,0,0,1-2,2.14.47.47,0,0,1-.53-.05Z"/><path class="cls-11" d="M295.12,161.88s3.86-11.72,2.61-17.14c-.77-3.34-3.55-9.5-10.07-9.3-4.34.12-12.38,6.09-11.75,11.6.53,4.56,1,10.25,5.36,15.25C281.27,162.29,288.75,165.6,295.12,161.88Z"/><path class="cls-16" d="M286.8,141.49h0a2.28,2.28,0,0,1-1.63-2.78l1.9-7.29,4.42,1.16-1.91,7.28A2.28,2.28,0,0,1,286.8,141.49Z"/><path class="cls-17" d="M289.58,139.86l1.07-4.1-4.33-1.13-.21.82c-.55,2.1.42,5,2.43,5.79A2.26,2.26,0,0,0,289.58,139.86Z"/><path class="cls-12" d="M289.66,140.31h0c-1.93-.5-3.91-3.52-3.41-5.45l1-4,7.24.91-1.28,4.91C292.74,138.62,290.5,140.53,289.66,140.31Z"/><path class="cls-16" d="M285.27,132.68a1.6,1.6,0,0,0,1.13,2l.82-3.13A1.61,1.61,0,0,0,285.27,132.68Z"/><path class="cls-16" d="M294.43,132.18l-5.9-1.54-.34,1.29a1.19,1.19,0,0,0-1.38.87,1.26,1.26,0,0,0,0,.47,1.88,1.88,0,0,0,.47-.1,1.51,1.51,0,0,1,.94,0,3.11,3.11,0,0,0,2.09-.17,3.41,3.41,0,0,1,2.78-.06h0a1,1,0,0,0,1.35-.7Z"/><path class="cls-23" d="M296.19,126.71c-1.09.6-2.44.83-3.27,0a4.8,4.8,0,0,0-2.95-1.43l-.87-.06h0a3.47,3.47,0,0,0-2.95,1.29,3.92,3.92,0,0,0-.76,1.67,2,2,0,0,1-.67,1.1,1.79,1.79,0,0,0-.49.83,1.94,1.94,0,0,0,1.46,2.32,2.1,2.1,0,0,0,1.27-.07,1.88,1.88,0,0,1,1.15,0,3.51,3.51,0,0,0,2.29-.21,5.8,5.8,0,0,1,3.17-.06,4.44,4.44,0,0,0,5.48-3.32v0A1.93,1.93,0,0,0,296.19,126.71Z"/><path class="cls-12" d="M294.63,164.44l3.35-1.72c2.12-1.2,2.32-.47,2.44-.36s.42-.35.82-.45a.92.92,0,0,1,.8.17,3.92,3.92,0,0,1,1.56,2.8.55.55,0,0,1-.55.59l-4,.36-3.26.43Z"/><path class="cls-24" d="M279.22,143.19a2.88,2.88,0,0,0-3.32,2.61c-.46,5.82-1.25,18.11,0,21.19,2.12,5.15,16.6,3.22,22.47-.67a23.75,23.75,0,0,0-4.49-9.81s-9.94,4.74-11.59,3.4c-.72-.57-.71-9.41-.66-13.84a2.87,2.87,0,0,0-2.43-2.88Z"/><path class="cls-12" d="M319.46,151.9s-1.39,1.75-.65,2.73,1.45.68,1.7,1.7-.06,2.4.94,2.43a2.36,2.36,0,0,0,1.17-2.94C322,154.3,320.59,151.27,319.46,151.9Z"/><path class="cls-23" d="M288.68,129.73a2.53,2.53,0,1,1-2.6-2.46A2.53,2.53,0,0,1,288.68,129.73Z"/><path class="cls-11" d="M299.39,197c-1.83-.1-1.82,1.16-1.82,3.4s.33,3.84.9,3.84,1.06-.93,1.77-3.05C301.1,198.62,300.58,197.05,299.39,197Z"/><path class="cls-12" d="M301.79,195.66l-2.24,1.81a.88.88,0,0,0-.27,1.18h0a.89.89,0,0,0,1.17.35l3.32-1.53Z"/><path class="cls-21" d="M328.34,172.06c-.58-5.36-13.49-10.63-22.52-13.61v15.11c4.85,1.35,8.9,2.93,9.14,4.51.62,4.08-13.69,17.42-13.69,17.42a.48.48,0,0,0-.06.5,5.76,5.76,0,0,0,1.83,2.33.5.5,0,0,0,.6,0C305.92,196.54,329.61,183.77,328.34,172.06Z"/><polygon class="cls-26" points="319.82 166.52 300.74 171.15 289.33 169.01 289.42 167.97 308.41 164.38 319.82 166.52"/><polygon class="cls-27" points="319.91 165.49 300.83 170.11 289.42 167.97 308.5 163.35 319.91 165.49"/><polygon class="cls-27" points="319.03 165.41 299.95 170.03 301.23 155.43 320.31 150.81 319.03 165.41"/><polygon class="cls-18" points="319.91 165.49 300.83 170.11 302.12 155.51 321.19 150.89 319.91 165.49"/><polygon class="cls-27" points="300.83 170.11 300.74 171.15 319.82 166.52 319.91 165.49 300.83 170.11"/><polygon class="cls-28" points="302.12 155.51 301.23 155.43 320.31 150.81 321.19 150.89 302.12 155.51"/><path class="cls-29" d="M313,160.75c-.19,1.53-1.23,2.65-2.32,2.51s-1.81-1.49-1.61-3,1.23-2.65,2.32-2.51S313.18,159.23,313,160.75Z"/><line class="cls-22" x1="316.74" y1="143.52" x2="316.74" y2="143.87"/><path class="cls-22" d="M323.62,126.83a1.79,1.79,0,1,1,1.79,1.79v2.59"/><line class="cls-22" x1="325.41" y1="132.98" x2="325.41" y2="133.23"/><path class="cls-22" d="M310,116.48a1.79,1.79,0,1,1,1.79,1.78v2.6"/><line class="cls-22" x1="311.74" y1="122.63" x2="311.74" y2="122.88"/><path class="cls-30" d="M233.83,64.92h-8.29a2.13,2.13,0,0,0-2.14,2.13v4.74a2.13,2.13,0,0,0,2.14,2.13h6.2l2.09,2v-2h0A2.13,2.13,0,0,0,236,71.79V67.05A2.13,2.13,0,0,0,233.83,64.92Z"/><path class="cls-31" d="M223,54.69H208.32a1.74,1.74,0,0,0-1.74,1.74v4.5a1.74,1.74,0,0,0,1.74,1.73h10.83l2,2.26V62.66H223a1.74,1.74,0,0,0,1.74-1.73v-4.5A1.74,1.74,0,0,0,223,54.69Z"/><path class="cls-32" d="M210.06,17.85H195.41a1.74,1.74,0,0,0-1.74,1.74v4.5a1.74,1.74,0,0,0,1.74,1.73h10.83l2,2.25V25.82h1.82a1.75,1.75,0,0,0,1.74-1.73v-4.5A1.75,1.75,0,0,0,210.06,17.85Z"/><path class="cls-30" d="M239.9,43h-8.29a2.13,2.13,0,0,0-2.13,2.13v4.74A2.13,2.13,0,0,0,231.61,52h6.2l2.09,2V52h0A2.13,2.13,0,0,0,242,49.85V45.11A2.13,2.13,0,0,0,239.9,43Z"/><path class="cls-31" d="M243.9,17.85h-8.29A2.13,2.13,0,0,0,233.48,20v4.74a2.13,2.13,0,0,0,2.13,2.13h6.21l2.08,2v-2h0A2.13,2.13,0,0,0,246,24.72V20A2.13,2.13,0,0,0,243.9,17.85Z"/><path class="cls-31" d="M229,32.75h-10a1.75,1.75,0,0,0-1.73,1.74V39a1.74,1.74,0,0,0,1.73,1.74h6.15l2,2.25V40.73H229A1.74,1.74,0,0,0,230.78,39v-4.5A1.75,1.75,0,0,0,229,32.75Z"/><path class="cls-32" d="M223.29,0h-10a1.74,1.74,0,0,0-1.74,1.74v4.5A1.75,1.75,0,0,0,213.33,8h6.14l2,2.25V8h1.82A1.75,1.75,0,0,0,225,6.24V1.74A1.74,1.74,0,0,0,223.29,0Z"/><text class="cls-33" transform="translate(213.45 60.48)">Q</text><text class="cls-33" transform="translate(221.8 38.63)">Q</text><text class="cls-33" transform="translate(237.62 23.97)">Q</text><text class="cls-33" transform="translate(200.75 23.97)">Q</text><text class="cls-33" transform="translate(216.3 5.66)">Q</text><text class="cls-33" transform="translate(227.61 71.14)">A</text><text class="cls-33" transform="translate(234.01 49.55)">A</text><path class="cls-34" d="M252.91,105.3s-9.13-7.5-9.18-8.26c-.13-2.13,9.81-3.26,11.15-9.58l0-.18a6.62,6.62,0,0,0-9.66-7c-8,4.3-20.3,12.19-16.4,18.17,2.57,3.93,21.57,14.45,21.57,14.45Z"/><path class="cls-35" d="M264.34,46.63c-.63,2.48-4.14,5.18-4.14,5.18s-2.71-2.73-2.15-5.23,2.43-4.2,4.18-3.81A2.9,2.9,0,0,1,264.34,46.63Z"/><path class="cls-36" d="M256.07,131.47c2.07.39,1.72,1.8,1.09,4.3s-1.44,4.2-2.08,4-.92-1.34-1.13-3.9C253.7,132.82,254.73,131.21,256.07,131.47Z"/><path class="cls-12" d="M255.39,128.56l1.18,4a1,1,0,0,1-.73,1.19h0a1,1,0,0,1-1.24-.65l-1.51-3.92Z"/><path class="cls-37" d="M255.76,80.87S242,93.21,240.89,98.19c-1.91,8.93,12.16,32.16,12.16,32.16a4.64,4.64,0,0,0,3.55-1s-5.6-22.92-3.81-26.17c1.65-3,14.38-4.19,19.53-8.08s4.24-10,4.24-10L274,75.93Z"/><path class="cls-19" d="M249.8,83.1s-4.63-13.29-3.62-19.61c.62-3.89,2.61-11.05,10.11-11.35,5-.19,14.7,6,14.41,12.41-.24,5.28-.39,11.85-5,17.94C265.74,82.49,257.42,86.87,249.8,83.1Z"/><path class="cls-38" d="M259.66,64.18c.84,3.81,2.47,7.43,3.54,11.18.7,2.45,1.38,4.9,2.1,7.34l.44-.21c4.57-6.09,4.72-12.66,5-17.94.17-3.78-3.15-7.49-6.93-9.86C261,57.36,258.77,60.09,259.66,64.18Z"/><path class="cls-38" d="M258.48,79.56c-.87-3.72-2.16-7.3-3.25-11-1.4-4.74-3.34-10.44-2.79-15.55-4.38,2.1-5.76,7.31-6.26,10.43-1,6.32,3.62,19.61,3.62,19.61a16.26,16.26,0,0,0,9.75,1.3C259.2,82.78,258.86,81.17,258.48,79.56Z"/><path class="cls-16" d="M258.06,58h0a2.63,2.63,0,0,0,2.55-2.7l-.27-8.67-5.25.17.27,8.66A2.61,2.61,0,0,0,258.06,58Z"/><path class="cls-17" d="M255.36,55.47l-.15-4.88,5.15-.16,0,1c.08,2.5-1.77,5.55-4.22,5.88A2.61,2.61,0,0,1,255.36,55.47Z"/><path class="cls-12" d="M255.15,56h0c2.3-.07,5.3-2.94,5.23-5.24L260.23,46l-8.32.26.15,4.74C252.13,53.27,254.15,56,255.15,56Z"/><path class="cls-16" d="M262,48.52a1.85,1.85,0,0,1-1.78,1.91l-.12-3.71A1.84,1.84,0,0,1,262,48.52Z"/><path class="cls-16" d="M251.89,45.6l8.27-.25s.09,2.17.12,2.91a1.61,1.61,0,0,1-.09.54,2.57,2.57,0,0,1-.5-.24,1.77,1.77,0,0,0-1.08-.3,3.6,3.6,0,0,1-2.26-.73,4,4,0,0,0-3.11-.77,4.17,4.17,0,0,1-.71.07,4,4,0,0,1-.6,0Z"/><path class="cls-16" d="M253.75,56.26s1.08-2.46-.59-3.91c-1.1-.94-1.15-2.84-1.21-4.62h0a5.39,5.39,0,0,0-1.69,3.42l-.06.58a6,6,0,0,0,.73,3.52l.63,1.13-.82,1.87,2,1.8Z"/><path class="cls-39" d="M257.34,61.39s-8.4,23.73-13.51,22c-4.29-1.46,4.37-27.32,4.37-27.32C250.51,57.88,253,60.54,257.34,61.39Z"/><path class="cls-40" d="M249.07,82.05a.49.49,0,0,1-.06.44.48.48,0,0,1-.39.21h-4.53l-3.2-8.78h4.59a.91.91,0,0,1,.84.59Z"/><path class="cls-41" d="M248.27,82.05a.49.49,0,0,1-.06.44.48.48,0,0,1-.39.21h-3.9a.89.89,0,0,1-.84-.59l-2.75-7.54a.48.48,0,0,1,.45-.65h3.9a.91.91,0,0,1,.84.59Z"/><path class="cls-35" d="M259.68,39.33a5.55,5.55,0,0,0-3.23.58,4.81,4.81,0,0,1-2.35.29A3.7,3.7,0,0,0,250.86,42c-1.11,1.63-.31,4.87-.31,4.87a12.27,12.27,0,0,0,2.48-.4,4.14,4.14,0,0,1,3.27.33,4.51,4.51,0,0,0,1.33.56,4.36,4.36,0,0,0,5.45-2.86A4.36,4.36,0,0,0,259.68,39.33Z"/><path class="cls-12" d="M254.9,79.68l-4.21-1a7.45,7.45,0,0,1-3.44-2l-.05,0a.77.77,0,0,0-.09,1.06c.37.46.81,1,.75,1.13-.91,1.37-5.69,0-5.82.75a4.53,4.53,0,0,0,2.65,3.24,2.74,2.74,0,0,0,1.35.2l4.29-.67,3.76-.42Z"/><path class="cls-16" d="M252.15,79l2.75.66L254.09,82l-2.87.32A23.68,23.68,0,0,1,252.15,79Z"/><path class="cls-39" d="M265.91,59.25a3,3,0,0,1,3.87,1.49c2.53,5.2,8.44,18.08,7.67,23.08-1,6.35-17.69,8.12-25.32,5.36A27.43,27.43,0,0,1,254.48,77s12.41,2.6,13.9.66c.86-1.12-2.48-10-4.23-14.45a3,3,0,0,1,1.68-3.92Z"/><path class="cls-42" d="M29.72,102.41a2.27,2.27,0,0,1,.44.86,2.35,2.35,0,0,0,4.61-.73,2.33,2.33,0,0,0-1.16-1.93,2.44,2.44,0,0,0-1.82-4.17A2.46,2.46,0,0,0,29.44,99c0,.14,0,.26,0,.39a2,2,0,0,1-.08,1.1,2,2,0,0,0-.12.77A2.06,2.06,0,0,0,29.72,102.41Z"/><path class="cls-11" d="M20.31,193.88c-1.72.41-1.37,1.58-.75,3.65s1.37,3.47,1.9,3.31.72-1.16.8-3.32C22.35,194.93,21.43,193.61,20.31,193.88Z"/><path class="cls-12" d="M22.16,192l-1.57,2.3a.85.85,0,0,0,.08,1.17h0a.84.84,0,0,0,1.17,0l2.65-2.33Z"/><path class="cls-21" d="M40.07,130.49S49.82,155.2,47.69,164c-2,8.14-20.23,26.89-22.5,29.38a.59.59,0,0,1-.65.16,5.82,5.82,0,0,1-2.79-2.06.58.58,0,0,1,0-.63c1.46-2.84,14.19-24.35,14.22-28.32,0-3.81-6.16-11.14-8.59-15.86a11.16,11.16,0,0,1-1-7.38h0a11.08,11.08,0,0,1,10.87-8.81Z"/><path class="cls-12" d="M66.49,123.84s.22,2.16,1.39,2.34,1.75-.63,2.48-.16h4.37a17.32,17.32,0,0,0-3.4-1.59C69.88,123.8,66.85,122.65,66.49,123.84Z"/><path class="cls-24" d="M42.18,109.33s5.24,8.72,8.93,10.56c3.52,1.75,15.69,1,15.69,1a20.91,20.91,0,0,1,.8,11.36S51.86,129.15,47.74,126C44.5,123.49,39,112.19,39,112.19Z"/><path class="cls-11" d="M26.35,198.72c-.47,1.7.71,2,2.83,2.42s3.7.49,3.82-.06-.66-1.18-2.52-2.3C28.25,197.44,26.66,197.61,26.35,198.72Z"/><path class="cls-12" d="M29.41,195.8,29,198.55a.86.86,0,0,1-.87.79h0a.85.85,0,0,1-.84-.82L27,195Z"/><path class="cls-25" d="M21.35,147.75s-6.74-10.46,6.45-19.57l11-.38s-4.08,45.89-8.91,67.68a.45.45,0,0,1-.32.33,5.45,5.45,0,0,1-2.85.13.46.46,0,0,1-.33-.39Z"/><path class="cls-11" d="M40.36,131.62s4.78-10.93,4.06-16.26c-.44-3.28-2.55-9.46-8.84-9.87-4.2-.27-12.47,4.74-12.37,10.11.09,4.43.08,10,3.78,15.16C27,130.76,33.88,134.62,40.36,131.62Z"/><path class="cls-16" d="M36.29,108.3A2.21,2.21,0,0,1,34,110.38h0a2.22,2.22,0,0,1-2.08-2.33l.42-7.26,4.4.25Z"/><path class="cls-17" d="M36.29,108.3l.23-4.09L32.2,104l-.05.82c-.12,2.09,1.37,4.7,3.42,5A2.17,2.17,0,0,0,36.29,108.3Z"/><path class="cls-12" d="M35.43,109h0c-1.87-.46-3.83-3.34-3.37-5.22L33,99.9l7,.77-1.17,4.77C38.39,107.31,36.25,109.19,35.43,109Z"/><path class="cls-16" d="M31.08,101.68a1.56,1.56,0,0,0,1.12,1.89l.75-3A1.55,1.55,0,0,0,31.08,101.68Z"/><path class="cls-16" d="M39.92,101.06l-5.72-1.4-.31,1.25a1.16,1.16,0,0,0-1.32.86,1.2,1.2,0,0,0,0,.46,1.65,1.65,0,0,0,.45-.11,1.49,1.49,0,0,1,.91-.06,3,3,0,0,0,2-.19,3.32,3.32,0,0,1,2.69-.1h0a1,1,0,0,0,1.3-.69Z"/><path class="cls-42" d="M44.3,97.7a1.85,1.85,0,0,0-.71-1.87,1.82,1.82,0,0,0-2-.1,2.86,2.86,0,0,1-3.11.19,6.53,6.53,0,0,0-3.79-1.46h-.06a3.37,3.37,0,0,0-2.87,1.34,3.78,3.78,0,0,0-.67,1.57,1.93,1.93,0,0,1-.63,1.08,1.77,1.77,0,0,0-.46.81,1.88,1.88,0,0,0,1.44,2.22,2,2,0,0,0,1.23-.09,1.91,1.91,0,0,1,1.11,0,3.35,3.35,0,0,0,2.21-.24,5.68,5.68,0,0,1,3.06-.11A4.29,4.29,0,0,0,44.3,97.7Z"/><path class="cls-18" d="M38.83,132.74a.7.7,0,0,0,.68.81h3.42a.69.69,0,0,0,.69-.59l1.16-7.24a.7.7,0,0,0-.69-.81H40.67a.7.7,0,0,0-.69.59Z"/><path class="cls-27" d="M39.43,133.54l4.83,0,1.25-7.85a.69.69,0,0,0-.68-.79H41.51a.84.84,0,0,0-.82.7Z"/><path class="cls-12" d="M35,131.28l2.76-.18c.51,0,.66-.51,1.07-1.26,2.23-4.11,1,1,1,1.12.28.55,1.41.44,2.52.94,1.54.7,2,1.46,1.9,1.66a4.11,4.11,0,0,1-3.3,1.27l-2.68-1-3-.5Z"/><path class="cls-24" d="M27.94,111.6a2.78,2.78,0,0,0-4,1c-2.68,5-8.18,15.52-8.26,18.74-.13,5.38,13.42,9.33,20.14,8.18a23,23,0,0,0-.14-10.42s-10.64.3-11.58-1.52c-.41-.79,3.05-8.61,4.83-12.51a2.78,2.78,0,0,0-1-3.49Z"/><path class="cls-43" d="M209.43,125.56l-1.58,1.29.37-2.47a14.3,14.3,0,0,0-1.4-1.12,23,23,0,0,0-3-1.83c-.19-.1-.39-.18-.59-.27l-1.88,4-.8-5a16.44,16.44,0,0,0-20.1,19c0,.08,0,.17,0,.26.91,4.57,4.36,5.73,9.18,7.42l3.71-2.26-2.24,2.78c1.47.53,3,1.13,4.68,1.91l2.26-1.17-1.3,1.63a37.13,37.13,0,0,1,8.49,5.86c12.17,11.14,22.44,44.71,22.44,44.71C227.05,175.77,221.38,138.31,209.43,125.56Z"/><path class="cls-23" d="M199.66,129.72h0l.39-.81a3.27,3.27,0,0,1,4.86-1.26l0,0a3.23,3.23,0,0,1,1.32,3.12l-.09.62h0a2.1,2.1,0,0,1,3,.32c8,10,14.15,30.39,17.26,49.83-2.34-21.88-7.81-46.22-17-56l-1.58,1.29.37-2.47a14.3,14.3,0,0,0-1.4-1.12,23,23,0,0,0-3-1.83c-.19-.1-.39-.18-.59-.27l-1.88,4-.8-5a16.5,16.5,0,0,0-20.09,12.7,16.75,16.75,0,0,1,12.16-8.48A6.3,6.3,0,0,1,199.66,129.72Z"/><path class="cls-44" d="M195.59,134s12.53,4.5,19,20.35,10.09,35.31,10.09,35.31"/><path class="cls-23" d="M264,152.21l-5,4.31,1.55-4.14c-.85.1-1.74.25-2.66.44-20.86,4.48-30.23,47.36-30.23,47.36,9.33-15.57,18.82-20.35,27.44-22.46l-.63-1.62,1.78,1.35c2.46-.54,4.84-.89,7.12-1.25l-1.21-2.62,3.71,2.22a28.66,28.66,0,0,0,8.48-2.54C282.11,169.22,279.38,152.58,264,152.21Z"/><path class="cls-10" d="M256.64,157.39h0a1.51,1.51,0,0,1,1.71,2l-.63,1.68h0c6-5.18,15.44-3.24,18.51,4a12.36,12.36,0,0,1,1,5.37c3.67-6.14-.32-18-13.25-18.29l-5,4.31,1.55-4.14c-.85.1-1.74.25-2.66.44-17.53,3.76-27,34.64-29.51,44.4C232.18,184.72,241.31,160.68,256.64,157.39Z"/><path class="cls-45" d="M219.32,145.14c-2.72,11.24-1,25.22,1.59,36.68,3.06,7.29,5.29,13.86,6.25,16.82,0-2,.08-3.95.2-5.79C226.43,177.63,223.83,159.41,219.32,145.14Z"/><path class="cls-23" d="M236.2,123.45l-2.66,7.93-1-5.54c-.87.66-1.75,1.4-2.63,2.21-19.94,18.34-2.54,71.29-2.54,71.29.17-23,7.47-34.4,15.54-42.26l-1.73-1.36L244,156c2.34-2.18,4.72-4.1,7-5.95L248,148l5.49,0a36,36,0,0,0,7.64-8.26C267,130.4,253.26,113.94,236.2,123.45Z"/><path class="cls-23" d="M236.2,123.45l-2.66,7.93-1-5.54c-.87.66-1.75,1.4-2.63,2.21-19.94,18.34-2.54,71.29-2.54,71.29.17-23,7.47-34.4,15.54-42.26l-1.73-1.36L244,156c2.34-2.18,4.72-4.1,7-5.95L248,148l5.49,0a36,36,0,0,0,7.64-8.26C267,130.4,253.26,113.94,236.2,123.45Z"/><path class="cls-10" d="M234,133.14l0,0a1.92,1.92,0,0,1,3.11,1.29l.26,2.27h0c3.79-9.45,15.84-12.65,23.52-6a16.9,16.9,0,0,1,1.21,1.18c-2.21-8.13-13.12-15.57-25.89-8.45l-2.66,7.93-1-5.54c-.87.66-1.75,1.4-2.63,2.21-13.5,12.41-9.89,40.68-6.14,57.66C221.52,168.44,221,143.76,234,133.14Z"/><g class="cls-46"><path d="M224.36,188.14a185.76,185.76,0,0,1-3.7-23.15A152.09,152.09,0,0,0,224.36,188.14Z"/><path d="M244.52,151.25a6.38,6.38,0,0,1-5,1.16h0a2,2,0,0,1,.05,2.89c-7.59,7.27-13.79,20.35-12.16,42.76.43-22.19,7.61-33.27,15.52-41l-1.73-1.36L244,156c2.34-2.18,4.72-4.1,7-5.95l-2.49-1.72C247.21,149.29,245.87,150.24,244.52,151.25Z"/><path d="M262.32,132.89a9.18,9.18,0,0,1-1.74,5.11,25.21,25.21,0,0,1-3.2,3.58,13.69,13.69,0,0,1-10.51,3.64h0l2.86,2.31L249,148l4.45,0a36,36,0,0,0,7.64-8.26A9.58,9.58,0,0,0,262.32,132.89Z"/></g><path class="cls-47" d="M242.78,136s-22.46,14.68-15.37,63.33"/><path class="cls-47" d="M263.45,163.36s-21.11,1-35.75,36.82"/><path class="cls-23" d="M202.63,168l3.44,3L205,168.16c.59.07,1.2.17,1.84.31,14.4,3.09,20.87,32.69,20.87,32.69-6.44-10.75-13-14-18.94-15.51l.43-1.11-.53.4a2,2,0,0,1-1.57.35c-1.39-.28-2.74-.48-4-.68l.83-1.81-1.28.77a3.88,3.88,0,0,1-2.78.48,16.9,16.9,0,0,1-4.35-1.47C190.14,179.79,192,168.3,202.63,168Z"/><path class="cls-45" d="M224.82,196.85a48,48,0,0,1,2.71,4l0-.56c-.92-3.79-5.22-19.83-13.41-27.71A171.08,171.08,0,0,1,224.82,196.85Z"/><path class="cls-10" d="M221.45,192.89a43.57,43.57,0,0,1,6.25,8.27s-.23-1-.68-2.7A32.49,32.49,0,0,0,221.45,192.89Z"/><path class="cls-10" d="M209.06,173.68h0l-.44-1.16a1,1,0,0,1,1.19-1.4h0a13.82,13.82,0,0,1,5.09,2.33,16,16,0,0,0-8.1-5c-.64-.14-1.25-.24-1.84-.31l1.08,2.86-3.44-3c-10.61.26-12.49,11.75-7.16,14.54.26.14.54.26.81.38a8.08,8.08,0,0,1,12.78-9.28Z"/><path class="cls-47" d="M203,175.74s14.57.68,24.68,25.42"/><path class="cls-37" d="M231.43,213h-8.67a2.14,2.14,0,0,1-2.12-1.82l-2-12.8h16.93l-2,12.8A2.14,2.14,0,0,1,231.43,213Z"/><path class="cls-34" d="M218.63,198.42l.64,4.09h7.48a4.36,4.36,0,0,1,4.31,5l-.86,5.5h1.23a2.14,2.14,0,0,0,2.12-1.82l2-12.8Z"/><path class="cls-27" d="M235,201.28H219.19a1.94,1.94,0,0,1-1.93-1.94h0a1.94,1.94,0,0,1,1.93-1.93H235a1.94,1.94,0,0,1,1.93,1.93h0A1.94,1.94,0,0,1,235,201.28Z"/><path class="cls-48" d="M228.38,199.37v-.05a1.9,1.9,0,0,0-1.9-1.91h-4.14a1.9,1.9,0,0,0-1.9,1.92v0a1.9,1.9,0,0,0,1.9,1.9h4.14A1.91,1.91,0,0,0,228.38,199.37Z"/><path class="cls-49" d="M97.64,160.51s-.5,14.25-5.3,22.72l-4.81-17.92Z"/><path class="cls-37" d="M81.76,204.55H73.09A2.14,2.14,0,0,1,71,202.74l-2-12.81H85.89l-2,12.81A2.14,2.14,0,0,1,81.76,204.55Z"/><path class="cls-34" d="M69,189.93l.65,4.09h7.48a4.36,4.36,0,0,1,4.3,5l-.86,5.49h1.23a2.14,2.14,0,0,0,2.12-1.81l2-12.81Z"/><rect class="cls-27" x="67.59" y="188.93" width="19.67" height="3.86" rx="1.93"/><path class="cls-48" d="M78.72,190.89v-.06a1.91,1.91,0,0,0-1.91-1.9H72.67a1.9,1.9,0,0,0-1.9,1.91v.06a1.9,1.9,0,0,0,1.9,1.89h4.14A1.91,1.91,0,0,0,78.72,190.89Z"/><path class="cls-50" d="M74.78,184.84s-15.92-5.57-26,4a19.85,19.85,0,0,0-5.13,21.43s9.17-13.75,13.21-14.7S74.78,189,74.78,189Z"/><path class="cls-51" d="M53.49,189.69c5.94-5.62,13.87-6,19.41-5.38-4.49-1.13-16.14-3.06-24.14,4.52a19.85,19.85,0,0,0-5.13,21.43l.3-.44a22.37,22.37,0,0,0,3.48-9A19.47,19.47,0,0,1,53.49,189.69Z"/><path class="cls-50" d="M74,189S84,175.36,97.73,177.51a19.84,19.84,0,0,1,16.37,14.74s-15.34-6.12-19.21-4.61-18.49,4.77-18.49,4.77Z"/><path class="cls-49" d="M55.34,170.87s-1,9.95,2.51,16.6c0,0,8.32-14.2,10.48-17.11S55.34,170.87,55.34,170.87Z"/><path class="cls-50" d="M55.34,170.87s11.09-10.36,14.51-10.36S76.56,189,76.56,189Z"/><path class="cls-51" d="M66.69,166.63c1.26.72,1.61,3.25,1.91,6.77a23,23,0,0,0,8,15.61h0s-3.3-28.5-6.71-28.5c-2.64,0-9.85,6.17-13,9C59.76,167.21,65.37,165.88,66.69,166.63Z"/><path class="cls-50" d="M77.43,190.52s-.34-34.71,4.8-39.38c3-2.76,15.41,9.37,15.41,9.37Z"/><path class="cls-51" d="M88.29,156.35c1.5-1.36,5.28.91,8.72,3.55-2.56-2.41-12.16-11.15-14.78-8.76-5.14,4.67-4.8,39.38-4.8,39.38l0,0a43.11,43.11,0,0,0,7.07-19.73C85.22,164,86.37,158.09,88.29,156.35Z"/><path class="cls-50" d="M72.12,187.58a6,6,0,0,0-2.1,2c-1.21,1.88-3.29,5.37-3.33,7.18C66.6,201,74,211.11,74,211.11l2.52-12.48,3.52-10.33-2.73-1.08a6.08,6.08,0,0,0-5.23.36Z"/><path class="cls-51" d="M74,211.11s-3.21-10.5-2.45-14.37,8.49-8.44,8.49-8.44l-3.52,10.33Z"/><path class="cls-51" d="M114.1,192.25A21.81,21.81,0,0,0,98.68,181.6c-11-1.8-19.62,6.29-19.62,6.29l-3.17-1.09s7.61-9.47,18.94-9.51S112.65,185,114.1,192.25Z"/></g></g></g></svg>